<svg width="24" height="24" viewBox="0 0 24 24" fill="none" xmlns="http://www.w3.org/2000/svg">
    <path fill-rule="evenodd" clip-rule="evenodd" d="M5.159 4.4a.1.1 0 0 0-.092.06l-1.16 2.706a.1.1 0 0 0-.007.04V19a.1.1 0 0 0 .1.1h16a.1.1 0 0 0 .1-.1V7.205a.099.099 0 0 0-.009-.04l-1.159-2.704a.1.1 0 0 0-.092-.061H5.16zm-1.746-.648A1.9 1.9 0 0 1 5.159 2.6H18.84a1.9 1.9 0 0 1 1.747 1.152l1.159 2.705c.101.236.154.49.154.748V19a1.9 1.9 0 0 1-1.9 1.9H4A1.9 1.9 0 0 1 2.1 19V7.205a1.9 1.9 0 0 1 .153-.748l1.16-2.705z" fill="#223A5A"/>
    <path fill-rule="evenodd" clip-rule="evenodd" d="M12 11.22V17c2-1.31 5.267-4.3 4.352-5.78-1.143-1.85-3.209-1.387-4.352 0zm0 0V17c-2.001-1.31-5.31-4.3-4.395-5.78 1.143-1.85 3.251-1.387 4.395 0z" fill="#D96459"/>
    <path fill-rule="evenodd" clip-rule="evenodd" d="M7.1 6.5a.9.9 0 0 1 .9-.9h8a.9.9 0 1 1 0 1.8H8a.9.9 0 0 1-.9-.9z" fill="#223A5A"/>
</svg>
