<svg width="21" height="21" viewBox="0 0 21 21" fill="none" xmlns="http://www.w3.org/2000/svg">
    <path fill-rule="evenodd" clip-rule="evenodd" d="M10.792 6.417a1.458 1.458 0 1 1-2.917 0 1.458 1.458 0 0 1 2.917 0zm1.458 0a2.917 2.917 0 1 1-5.833 0 2.917 2.917 0 0 1 5.833 0zm-6.854 8.75a3.937 3.937 0 0 1 5.518-3.608.73.73 0 0 0 .586-1.335 5.396 5.396 0 0 0-7.562 4.943.73.73 0 0 0 1.458 0zm5.542-1.75a.73.73 0 0 1 .729-.73h2.77v-2.77a.73.73 0 0 1 1.459 0v2.77h2.77a.73.73 0 0 1 0 1.459h-2.77v2.77a.73.73 0 1 1-1.459 0v-2.77h-2.77a.73.73 0 0 1-.73-.73z" fill="#fff"/>
</svg>
