<svg width="121" height="100" viewBox="0 0 121 100" fill="none" xmlns="http://www.w3.org/2000/svg">
    <path fill-rule="evenodd" clip-rule="evenodd" d="M50.545 33.41H19.394a.973.973 0 0 0-.974.974v31.15c0 .538.436.974.974.974h31.15a.973.973 0 0 0 .974-.973V34.384a.973.973 0 0 0-.973-.974zm-31.151-2.92a3.894 3.894 0 0 0-3.894 3.894v31.15a3.894 3.894 0 0 0 3.894 3.895h31.15a3.894 3.894 0 0 0 3.895-3.894V34.384a3.894 3.894 0 0 0-3.894-3.894H19.394z" fill="#4AA6B5"/>
    <path d="M25.514 48.29h18.913v3.338H25.514v-3.337z" fill="#4AA6B5"/>
    <path d="M36.637 40.503v18.913h-3.338V40.503h3.338z" fill="#4AA6B5"/>
    <path fill-rule="evenodd" clip-rule="evenodd" d="M74.452 30a6 6 0 0 1 6-6h19.8a6 6 0 0 1 6 6v41a6 6 0 0 1-6 6h-19.8a6 6 0 0 1-6-6v-7.427h2.826v6.904h26.147v-38.65H77.278v6.306h-2.826V30z" fill="#4AA6B5"/>
    <path fill-rule="evenodd" clip-rule="evenodd" d="m75.831 47.617-7.369-.134.071-3.914 15.154.276-.277 14.673-3.913-.074.143-7.57-12.907 12.908-3.534-3.534 12.632-12.631z" fill="#385378"/>
</svg>
