<svg width="245" height="50" viewBox="0 0 245 50" fill="none" xmlns="http://www.w3.org/2000/svg">
    <rect width="245" height="50" rx="13" fill="#F7F9F9"/>
    <path fill-rule="evenodd" clip-rule="evenodd" d="M22.284 13a3 3 0 0 0-3 3v3.4H20.8V18a1 1 0 0 1 1-1H31a1 1 0 0 1 1 1v14.8a1 1 0 0 1-1 1h-9.2a1 1 0 0 1-1-1v-1.88h-1.516V34a3 3 0 0 0 3 3h8.4a3 3 0 0 0 3-3V16a3 3 0 0 0-3-3h-8.4zm-3.9 9.47 3.336.06L16 28.25l1.6 1.6 5.845-5.844-.065 3.428 1.772.034.125-6.645-6.861-.125-.033 1.772z" fill="#B4B5B5"/>
    <path d="M59.97 29.623v1.241h4.624v-1.241H59.97zm-9.384-9.673v1.241h6.528V19.95h-6.528zm8.806-1.105v13.26h1.24V20.069h3.282v11.917h1.292V18.845h-5.814zm-2.618 1.105v.306c-.12 7.276-.272 9.792-.663 10.319-.153.221-.306.272-.561.255-.323 0-1.054 0-1.853-.068.22.357.357.918.374 1.292.765.051 1.547.051 2.023-.017.51-.051.816-.204 1.122-.646.544-.748.663-3.23.799-10.795v-.646h-1.241zM53 16.958c-.017 5.95 0 11.56-2.84 14.552.324.187.766.578.987.867 2.992-3.247 3.077-9.146 3.094-15.419H53zm14.127.884v1.156h8.72v-1.156h-8.72zm.51 8.092v1.156h7.718v-1.156h-7.718zm3.247-2.023v6.851l1.258-.187v-6.664h-1.258zm-3.944 6.664.204 1.275c2.26-.306 5.61-.782 8.772-1.224l-.034-1.19c-3.281.442-6.732.901-8.942 1.139zm.153-8.109.102 1.207c2.023-.119 4.93-.272 7.718-.442l.034-1.122c-2.924.153-5.916.289-7.854.357zm5.423-2.074c1.02 1.207 2.159 2.856 2.652 3.893l1.02-.612c-.493-1.02-1.683-2.618-2.72-3.808l-.952.527zm-2.448-1.938c-.374 1.343-1.105 3.332-1.7 4.539l1.122.272c.629-1.173 1.36-3.043 1.955-4.539l-1.377-.272zm6.528.323v9.418h1.224v-9.418h-1.224zm4.012-1.564V30.66c0 .306-.085.391-.391.408-.34 0-1.394.017-2.533-.034.187.391.374.986.442 1.343 1.377 0 2.414-.034 2.975-.255.56-.204.765-.595.765-1.479v-13.43h-1.258zm3.995 2.907v1.258h13.515V20.12H84.603zm.782 4.998v1.241h12.019v-1.241h-12.02zm-1.564 5.423v1.258h15.147v-1.258H83.82zm6.85-9.418v10.064h1.378V21.123h-1.377zm-1.461-3.621c1.122.833 2.465 2.04 3.077 2.839l1.105-.799c-.663-.816-2.04-1.972-3.145-2.754l-1.037.714zm18.088 8.925v3.417h1.19v-3.417h-1.19zm-6.97 4.539v.918h15.283v-.918h-15.283zm.034-11.526v.799h15.198v-.799h-15.198zm-.034 5.1v.901h15.283v-.901h-15.283zm1.309-1.683v.799h12.75v-.799h-12.75zm.527-5.083v.799h10.268v2.601h-10.37v.799h11.645v-4.199h-11.543zm5.083-1.054v8.177h1.292V16.72h-1.292zm-3.723 11.798h8.925v.901h-8.925v-.901zm0-1.581h8.925v.867h-8.925v-.867zm-1.258-.765v3.995h11.475v-3.995h-11.475zm19.822-1.887v1.054h4.658v-1.054h-4.658zm0 2.958v1.054h4.709v-1.054h-4.709zm-3.502 3.043v1.19h12.002v-1.19h-12.002zm-.782-9.078v11.169h1.241v-9.979h10.948v9.979h1.292V21.208h-13.481zm3.689.748v8.874h1.156v-8.874h-1.156zm4.76 0v8.823h1.173v-8.823h-1.173zm-2.55-3.536c-.119.986-.459 2.397-.731 3.315l1.156.323c.34-.85.697-2.159 1.054-3.298l-1.479-.34zm-6.664-.561v1.224h15.062v-1.224h-15.062z" fill="#000"/>
</svg>
