<svg width="121" height="100" viewBox="0 0 121 100" fill="none" xmlns="http://www.w3.org/2000/svg">
<path fill-rule="evenodd" clip-rule="evenodd" d="M77.5 23H38.5C36.8431 23 35.5 24.3431 35.5 26V74C35.5 75.6569 36.8431 77 38.5 77H77.5C79.1569 77 80.5 75.6569 80.5 74V26C80.5 24.3431 79.1569 23 77.5 23ZM38.5 20C35.1863 20 32.5 22.6863 32.5 26V74C32.5 77.3137 35.1863 80 38.5 80H77.5C80.8137 80 83.5 77.3137 83.5 74V26C83.5 22.6863 80.8137 20 77.5 20H38.5Z" fill="#4AA6B5"/>
<path d="M32.5 26C32.5 22.6863 35.1863 20 38.5 20H77.5C80.8137 20 83.5 22.6863 83.5 26V28H32.5V26Z" fill="#4AA6B5"/>
<path d="M75.5 52C75.5 61.3888 67.8888 69 58.5 69C49.1112 69 41.5 61.3888 41.5 52C41.5 42.6112 49.1112 35 58.5 35C67.8888 35 75.5 42.6112 75.5 52Z" fill="#4AA6B5"/>
<path fill-rule="evenodd" clip-rule="evenodd" d="M58.5 66C66.232 66 72.5 59.732 72.5 52C72.5 44.268 66.232 38 58.5 38C50.768 38 44.5 44.268 44.5 52C44.5 59.732 50.768 66 58.5 66ZM58.5 69C67.8888 69 75.5 61.3888 75.5 52C75.5 42.6112 67.8888 35 58.5 35C49.1112 35 41.5 42.6112 41.5 52C41.5 61.3888 49.1112 69 58.5 69Z" fill="#4AA6B5"/>
<path fill-rule="evenodd" clip-rule="evenodd" d="M52.4677 44.4678C53.2961 44.4678 53.9677 45.1393 53.9677 45.9678V48.1613C53.9677 48.9897 53.2961 49.6613 52.4677 49.6613C51.6392 49.6613 50.9677 48.9897 50.9677 48.1613V45.9678C50.9677 45.1393 51.6392 44.4678 52.4677 44.4678Z" fill="white"/>
<path fill-rule="evenodd" clip-rule="evenodd" d="M63.4354 44.4678C64.2638 44.4678 64.9354 45.1393 64.9354 45.9678V48.1613C64.9354 48.9897 64.2638 49.6613 63.4354 49.6613C62.6069 49.6613 61.9354 48.9897 61.9354 48.1613V45.9678C61.9354 45.1393 62.6069 44.4678 63.4354 44.4678Z" fill="white"/>
<path fill-rule="evenodd" clip-rule="evenodd" d="M48.6537 53.2198C49.1915 53.0941 49.7294 53.4281 49.8551 53.9659C50.7438 57.7668 54.1558 60.5968 58.2263 60.5968C62.2968 60.5968 65.7088 57.7668 66.5975 53.9659C66.7233 53.4281 67.2612 53.0941 67.7989 53.2198C68.3367 53.3456 68.6707 53.8835 68.545 54.4213C67.4495 59.1066 63.2467 62.5968 58.2263 62.5968C53.2059 62.5968 49.0032 59.1066 47.9077 54.4213C47.7819 53.8835 48.1159 53.3456 48.6537 53.2198Z" fill="white"/>
<path d="M104.5 73C104.5 81.8366 97.3366 89 88.5 89C79.6634 89 72.5 81.8366 72.5 73C72.5 64.1634 79.6634 57 88.5 57C97.3366 57 104.5 64.1634 104.5 73Z" fill="#385378"/>
<path d="M40.5 24.5C40.5 25.3284 39.8284 26 39 26C38.1716 26 37.5 25.3284 37.5 24.5C37.5 23.6716 38.1716 23 39 23C39.8284 23 40.5 23.6716 40.5 24.5Z" fill="white"/>
<path d="M45.5 24.5C45.5 25.3284 44.8284 26 44 26C43.1716 26 42.5 25.3284 42.5 24.5C42.5 23.6716 43.1716 23 44 23C44.8284 23 45.5 23.6716 45.5 24.5Z" fill="white"/>
<path d="M50.5 24.5C50.5 25.3284 49.8284 26 49 26C48.1716 26 47.5 25.3284 47.5 24.5C47.5 23.6716 48.1716 23 49 23C49.8284 23 50.5 23.6716 50.5 24.5Z" fill="white"/>
<path fill-rule="evenodd" clip-rule="evenodd" d="M98.5034 70.1146L88.5034 79.1146C87.9152 79.6441 87.0168 79.6254 86.451 79.072L80.451 73.2024L82.5489 71.0579L87.5428 75.9432L96.4965 67.8848L98.5034 70.1146Z" fill="white"/>
</svg>
