<svg width="20" height="20" viewBox="0 0 20 20" fill="none" xmlns="http://www.w3.org/2000/svg">
<path fill-rule="evenodd" clip-rule="evenodd" d="M11.4618 10.0506L10.203 8.79827L5.66617 4.28442C5.28501 3.90519 4.66703 3.90519 4.28587 4.28442C3.90471 4.66365 3.90471 5.2785 4.28587 5.65773L8.82273 10.1716L4.40743 14.5645C4.02627 14.9437 4.02627 15.5586 4.40743 15.9378C4.78859 16.317 5.40658 16.317 5.78774 15.9378L11.5833 10.1716L11.4618 10.0506ZM17.3221 10.0506L16.0634 8.79827L11.5265 4.28442C11.1454 3.90519 10.5274 3.90519 10.1462 4.28442C9.76505 4.66365 9.76505 5.2785 10.1462 5.65773L14.6831 10.1716L10.2678 14.5645C9.88662 14.9437 9.88662 15.5586 10.2678 15.9378C10.6489 16.317 11.2669 16.317 11.6481 15.9378L17.4437 10.1716L17.3221 10.0506Z" fill="#223A5A"/>
</svg>
