<svg width="28" height="28" viewBox="0 0 28 28" fill="none" xmlns="http://www.w3.org/2000/svg">
    <path fill-rule="evenodd" clip-rule="evenodd" d="M4.86 10.267a3.074 3.074 0 0 1 3.074-3.074h8.633a3.074 3.074 0 0 1 3.074 3.074v10.966a3.074 3.074 0 0 1-3.074 3.075H7.934a3.074 3.074 0 0 1-3.075-3.075V10.267zM7.933 9.14c-.622 0-1.126.504-1.126 1.126v10.966c0 .622.504 1.126 1.126 1.126h8.633c.622 0 1.126-.504 1.126-1.126V10.267c0-.622-.504-1.126-1.126-1.126H7.934z" fill="#223A5A"/>
    <path fill-rule="evenodd" clip-rule="evenodd" d="M9.525 5.6A3.074 3.074 0 0 1 12.6 2.526h8.633A3.074 3.074 0 0 1 24.307 5.6v10.967a3.074 3.074 0 0 1-3.074 3.074H21v-1.948h.233c.622 0 1.126-.505 1.126-1.126V5.6c0-.622-.504-1.126-1.126-1.126H12.6c-.622 0-1.126.504-1.126 1.126v.078H9.525V5.6z" fill="#223A5A"/>
</svg>
