<svg width="24" height="24" viewBox="0 0 24 24" fill="none" xmlns="http://www.w3.org/2000/svg">
    <path fill-rule="evenodd" clip-rule="evenodd" d="M4.165 9.8A2.635 2.635 0 0 1 6.8 7.165h7.4A2.635 2.635 0 0 1 16.835 9.8v8.4a2.635 2.635 0 0 1-2.635 2.635H6.8A2.635 2.635 0 0 1 4.165 18.2V9.8zM6.8 8.835a.965.965 0 0 0-.965.965v8.4c0 .533.432.965.965.965h7.4a.965.965 0 0 0 .965-.965V9.8a.965.965 0 0 0-.965-.965H6.8z" fill="#223A5A"/>
    <path fill-rule="evenodd" clip-rule="evenodd" d="M8.165 5.8A2.635 2.635 0 0 1 10.8 3.165h7.4A2.635 2.635 0 0 1 20.835 5.8v8.4a2.635 2.635 0 0 1-2.635 2.635H18v-1.67h.2a.965.965 0 0 0 .965-.965V5.8a.965.965 0 0 0-.965-.965h-7.4a.965.965 0 0 0-.965.965v.067h-1.67V5.8z" fill="#223A5A"/>
</svg>
