<svg width="24" height="24" viewBox="0 0 24 24" fill="none" xmlns="http://www.w3.org/2000/svg">
    <path fill-rule="evenodd" clip-rule="evenodd" d="M13.523 6.385a1.385 1.385 0 1 1-2.77 0 1.385 1.385 0 0 1 2.77 0zm-9.138 3.23a1.385 1.385 0 1 0 0-2.769 1.385 1.385 0 0 0 0 2.77zm8.671-.335a.923.923 0 0 0-1.593-.1l-1.957 2.936-3.236-2.091a.923.923 0 0 0-1.386 1.035l1.846 6.277a.923.923 0 0 0 .885.663h8.616c.38 0 .72-.233.86-.586l2.46-6.277a.923.923 0 0 0-1.31-1.142l-3.771 2.112-1.414-2.827zm-2.519 4.617 1.58-2.37 1.134 2.27a.923.923 0 0 0 1.277.393l2.362-1.323-1.289 3.287H8.306l-.95-3.23 1.912 1.236a.923.923 0 0 0 1.27-.263zm9.54-4.282a1.385 1.385 0 1 0 0-2.769 1.385 1.385 0 0 0 0 2.77z" fill="#13284B"/>
</svg>
