<svg width="24" height="24" viewBox="0 0 24 24" fill="none" xmlns="http://www.w3.org/2000/svg">
    <path fill-rule="evenodd" clip-rule="evenodd" d="M10.823 3.7a.3.3 0 0 0-.3.3v1.984l-.539.127a6.522 6.522 0 0 0-1.93.8l-.471.291L6.18 5.8a.3.3 0 0 0-.424 0l-.957.957a.3.3 0 0 0 0 .424l1.403 1.403-.291.471a6.523 6.523 0 0 0-.8 1.93l-.128.54H3a.3.3 0 0 0-.3.3v1.353a.3.3 0 0 0 .3.3h1.983l.128.538c.163.692.436 1.342.8 1.93l.291.472-1.403 1.403a.3.3 0 0 0 0 .424l.957.957a.3.3 0 0 0 .424 0l1.403-1.403.471.291a6.521 6.521 0 0 0 1.93.8l.54.127V21a.3.3 0 0 0 .3.3h1.352a.3.3 0 0 0 .3-.3v-1.984l.54-.127a6.521 6.521 0 0 0 1.93-.8l.47-.291L16.82 19.2a.3.3 0 0 0 .424 0l.957-.957a.3.3 0 0 0 0-.424l-1.403-1.403.29-.471a6.524 6.524 0 0 0 .8-1.93l.128-.54H20a.3.3 0 0 0 .3-.3v-1.353a.3.3 0 0 0-.3-.3h-1.984l-.127-.539a6.525 6.525 0 0 0-.8-1.93l-.291-.47L18.2 7.18a.3.3 0 0 0 0-.424l-.957-.957a.3.3 0 0 0-.424 0l-1.403 1.403-.472-.291a6.522 6.522 0 0 0-1.93-.8l-.539-.127V4a.3.3 0 0 0-.3-.3h-1.353zm-1.7.3a1.7 1.7 0 0 1 1.7-1.7h1.353a1.7 1.7 0 0 1 1.7 1.7v.896c.46.143.9.327 1.32.547l.634-.634a1.7 1.7 0 0 1 2.404 0l.957.957a1.7 1.7 0 0 1 0 2.404l-.634.634c.22.42.403.86.547 1.32H20a1.7 1.7 0 0 1 1.7 1.7v1.353a1.7 1.7 0 0 1-1.7 1.7h-.896c-.144.459-.327.9-.547 1.319l.634.634a1.7 1.7 0 0 1 0 2.404l-.957.957a1.7 1.7 0 0 1-2.404 0l-.634-.634c-.42.22-.86.404-1.32.547V21a1.7 1.7 0 0 1-1.7 1.7h-1.353a1.7 1.7 0 0 1-1.7-1.7v-.896c-.459-.143-.9-.327-1.32-.547l-.633.634a1.7 1.7 0 0 1-2.404 0l-.957-.957a1.7 1.7 0 0 1 0-2.404l.634-.634a7.92 7.92 0 0 1-.547-1.32H3a1.7 1.7 0 0 1-1.7-1.7v-1.353a1.7 1.7 0 0 1 1.7-1.7h.896c.143-.459.327-.9.547-1.319l-.634-.634a1.7 1.7 0 0 1 0-2.404l.957-.957a1.7 1.7 0 0 1 2.404 0l.634.634c.419-.22.86-.404 1.32-.547V4zM11.5 9.288a3.212 3.212 0 1 0 0 6.424 3.212 3.212 0 0 0 0-6.424zM6.888 12.5a4.612 4.612 0 1 1 9.224 0 4.612 4.612 0 0 1-9.224 0z" fill="#223A5A"/>
</svg>
