<svg width="24" height="24" viewBox="0 0 24 24" fill="none" xmlns="http://www.w3.org/2000/svg">
    <g clip-path="url(#a4d41fngva)" fill="#223A5A">
        <rect width="24" height="24" rx="2" fill-opacity=".25"/>
        <path fill-rule="evenodd" clip-rule="evenodd" d="M17.912 4.999a1 1 0 0 0-1.412-.072l-.865.781 2.903 3.214.865-.781a1 1 0 0 0 .072-1.413l-1.563-1.73zM7 15.513l7.751-7.003.835.924-7.751 7.003-.849-.072.014-.852zm-1.709 2.383 3.125.266 8.787-7.938a1 1 0 0 0 .071-1.413l-1.733-1.918a1 1 0 0 0-1.412-.071L5.342 14.76l-.051 3.135z"/>
    </g>
    <defs>
        <clipPath id="a4d41fngva">
            <rect width="24" height="24" rx="12" fill="#fff"/>
        </clipPath>
    </defs>
</svg>
