<svg width="24" height="24" viewBox="0 0 24 24" fill="none" xmlns="http://www.w3.org/2000/svg">
    <g clip-path="url(#d8srtlouwa)">
        <rect width="24" height="24" rx="12" fill="#223A5A" fill-opacity=".25"/>
        <path d="M12 19H7.8A1.8 1.8 0 0 1 6 17.2V5.8A1.8 1.8 0 0 1 7.8 4h5.454a1.8 1.8 0 0 1 1.273.527l2.946 2.946A1.8 1.8 0 0 1 18 8.746V11.5" stroke="#223A5A" stroke-width="1.67"/>
        <path d="M13 4v4a1 1 0 0 0 1 1h4" stroke="#223A5A" stroke-width="1.67"/>
        <path d="M17.5 13.5v7M13.5 16.5l3.646 3.646a.5.5 0 0 0 .708 0L21.5 16.5" stroke="#223A5A" stroke-width="2"/>
    </g>
    <defs>
        <clipPath id="d8srtlouwa">
            <path fill="#fff" d="M0 0h24v24H0z"/>
        </clipPath>
    </defs>
</svg>
