<svg width="24" height="24" viewBox="0 0 24 24" fill="none" xmlns="http://www.w3.org/2000/svg">
<path d="M12 5.09961C14.0023 5.09961 15.6992 5.86451 17.0322 6.8418L17.3203 7.06055C17.3343 7.07155 17.3474 7.08368 17.3613 7.09473L19.4102 5.32031C19.7855 4.99501 20.354 5.03529 20.6797 5.41016C21.005 5.78563 20.965 6.35412 20.5898 6.67969L5.58984 19.6797C5.21441 20.005 4.64591 19.9649 4.32031 19.5898C3.99526 19.2144 4.03514 18.6458 4.41016 18.3203L6.33105 16.6543C5.49524 15.9414 4.81922 15.1578 4.31348 14.4609C3.94887 13.9585 3.66374 13.4889 3.46582 13.1055C3.36733 12.9146 3.2856 12.7348 3.22559 12.5762C3.19153 12.4861 3.13787 12.3375 3.11328 12.1709L3.09961 12L3.1084 11.8672C3.12339 11.7389 3.15581 11.6281 3.17773 11.5596C3.2141 11.4459 3.26255 11.3246 3.31738 11.2021C3.42767 10.9558 3.58342 10.6621 3.77832 10.3418C4.16864 9.70032 4.73951 8.91527 5.47754 8.15039C6.94204 6.63264 9.16043 5.09961 12 5.09961ZM19.3779 9.13086C19.8413 9.71907 20.2014 10.2807 20.4502 10.7373C20.5741 10.9646 20.6756 11.1756 20.749 11.3584C20.8039 11.4952 20.9004 11.7477 20.9004 12L20.8916 12.1328C20.8766 12.2611 20.8442 12.3719 20.8223 12.4404C20.7859 12.5541 20.7374 12.6754 20.6826 12.7979C20.5723 13.0442 20.4166 13.3379 20.2217 13.6582C19.8314 14.2997 19.2605 15.0847 18.5225 15.8496C17.058 17.3674 14.8396 18.9004 12 18.9004C11.5655 18.9004 11.0062 18.901 10.4902 18.835C10.0099 18.7735 9.35998 18.633 8.89648 18.1934L10.1348 16.8877C10.1347 16.8876 10.1696 16.9182 10.2783 16.9561C10.3857 16.9934 10.5316 17.0258 10.7188 17.0498C11.1002 17.0986 11.5407 17.0996 12 17.0996C14.1604 17.0996 15.942 15.9319 17.2275 14.5996C17.8643 13.9396 18.3562 13.2623 18.6846 12.7227C18.8489 12.4525 18.9668 12.2262 19.04 12.0625C19.0504 12.0394 19.0565 12.0171 19.0645 11.998C19.023 11.8992 18.9601 11.7638 18.8701 11.5986C18.6708 11.2329 18.3665 10.7552 17.9639 10.2441L19.3779 9.13086ZM12 6.90039C9.83957 6.90039 8.05796 8.06814 6.77246 9.40039C6.13568 10.0604 5.6438 10.7377 5.31543 11.2773C5.15109 11.5475 5.03324 11.7738 4.95996 11.9375C4.94971 11.9604 4.94247 11.9821 4.93457 12.001C4.96469 12.0728 5.00715 12.1664 5.06543 12.2793C5.21825 12.5754 5.45457 12.968 5.77051 13.4033C6.25645 14.073 6.91169 14.815 7.71094 15.458L8.92969 14.4023C8.41114 13.7406 8.09964 12.9068 8.09961 12C8.09978 9.84634 9.84633 8.09977 12 8.09961C13.1072 8.09964 14.1051 8.56303 14.8145 9.30273L15.9736 8.29688L15.9678 8.29297C14.8569 7.47859 13.5244 6.90039 12 6.90039ZM12 9.90039C10.8404 9.90055 9.90057 10.8404 9.90039 12C9.90042 12.4551 10.0453 12.8771 10.292 13.2217L13.4521 10.4824C13.0744 10.1214 12.5623 9.90042 12 9.90039Z" fill="#223A5A"/>
</svg>
