<svg width="24" height="24" viewBox="0 0 24 24" fill="none" xmlns="http://www.w3.org/2000/svg">
    <path d="M2 5h19v12a2 2 0 0 1-2 2H4a2 2 0 0 1-2-2V5z" fill="#4AA6B5" stroke="#4AA6B5" stroke-width="1.4"/>
    <path fill="#fff" d="M2 15h19v2H2z"/>
    <circle cx="11.5" cy="9.5" r="3.5" fill="#fff" stroke="#fff"/>
    <path fill-rule="evenodd" clip-rule="evenodd" d="M11.127 7.135a.773.773 0 0 0 .53.192.773.773 0 0 0 .53-.192.59.59 0 0 0 .227-.467.59.59 0 0 0-.228-.468.754.754 0 0 0-.53-.2.754.754 0 0 0-.53.2.6.6 0 0 0-.217.468.6.6 0 0 0 .217.467zm-.114 5.088c-.303 0-.55-.084-.739-.25-.182-.168-.274-.418-.274-.752 0-.139.025-.32.076-.542L10.719 8h1.363l-.681 2.837a.92.92 0 0 0-.038.268c0 .11.028.191.085.242.063.044.164.066.303.066a.776.776 0 0 0 .51-.2 1.17 1.17 0 0 0 .341-.534H13c-.233.6-.533 1.01-.9 1.227-.365.211-.728.317-1.087.317z" fill="#4AA6B5"/>
</svg>
