<svg width="24" height="24" viewBox="0 0 24 24" fill="none" xmlns="http://www.w3.org/2000/svg">
    <g clip-path="url(#5joughs0da)" fill="#223A5A">
        <rect width="24" height="24" rx="2" fill-opacity=".25"/>
        <path fill-rule="evenodd" clip-rule="evenodd" d="M10 4a1 1 0 0 1 1-1h2a1 1 0 0 1 1 1v1h-4V4zM5 6.8a.8.8 0 0 1 .8-.8h12.4a.8.8 0 0 1 0 1.6H5.8a.8.8 0 0 1-.8-.8zM6.2 9v8A2.8 2.8 0 0 0 9 19.8h6a2.8 2.8 0 0 0 2.8-2.8V9h-1.6v8a1.2 1.2 0 0 1-1.2 1.2H9A1.2 1.2 0 0 1 7.8 17V9H6.2zm3.3 7V9h1.6v7H9.5zm3.4-7v7h1.6V9h-1.6z"/>
    </g>
    <defs>
        <clipPath id="5joughs0da">
            <rect width="24" height="24" rx="12" fill="#fff"/>
        </clipPath>
    </defs>
</svg>
