<svg width="24" height="24" viewBox="0 0 24 24" fill="none" xmlns="http://www.w3.org/2000/svg">
    <g clip-path="url(#jmwznw923a)" fill="#223A5A">
        <rect width="24" height="24" rx="12" fill-opacity=".25"/>
        <path fill-rule="evenodd" clip-rule="evenodd" d="M7.333 9.667a1 1 0 1 0 0-2 1 1 0 0 0 0 2zm0 1.666c1.12 0 2.078-.69 2.473-1.666h9.36a.833.833 0 0 0 0-1.667h-9.25a2.668 2.668 0 0 0-5.165 0H4v1.667h.86a2.668 2.668 0 0 0 2.473 1.666zm9.334 5.334a1 1 0 1 0 0-2 1 1 0 0 0 0 2zm0 1.666c1.119 0 2.077-.69 2.473-1.666H20V15h-.75a2.668 2.668 0 0 0-5.166 0h-9.25a.833.833 0 0 0 0 1.667h9.36a2.668 2.668 0 0 0 2.473 1.666z"/>
    </g>
    <defs>
        <clipPath id="jmwznw923a">
            <path fill="#fff" d="M0 0h24v24H0z"/>
        </clipPath>
    </defs>
</svg>
