<svg width="24" height="25" viewBox="0 0 24 25" fill="none" xmlns="http://www.w3.org/2000/svg">
    <path d="m12 8.5 3.065-3.476a2 2 0 0 1 2.824-.168l1.496 1.327a2 2 0 0 1 .169 2.823L14.5 14m-5.565-2-4.489 4.994a2 2 0 0 0 .17 2.823l1.495 1.327a2 2 0 0 0 2.824-.169L12 17.5" stroke="#4AA6B5" stroke-width="2"/>
    <path d="m3.889 4.89 2.828 2.828M.707 9.485l3.536.708M8.484 1.707l.707 3.536M19.719 20.717l-2.829-2.829M22.9 16.121l-3.535-.707M15.123 23.9l-.707-3.536" stroke="#4AA6B5" stroke-width="1.5"/>
</svg>
