<svg width="24" height="24" viewBox="0 0 24 24" fill="none" xmlns="http://www.w3.org/2000/svg">
<path d="M12 5.09961C14.8396 5.09961 17.058 6.63264 18.5225 8.15039C19.2605 8.91527 19.8314 9.70032 20.2217 10.3418C20.4166 10.6621 20.5723 10.9558 20.6826 11.2021C20.7374 11.3246 20.7859 11.4459 20.8223 11.5596C20.8515 11.6509 20.9004 11.817 20.9004 12L20.8916 12.1328C20.8766 12.2611 20.8442 12.3719 20.8223 12.4404C20.7859 12.5541 20.7374 12.6754 20.6826 12.7979C20.5723 13.0442 20.4166 13.3379 20.2217 13.6582C19.8314 14.2997 19.2605 15.0847 18.5225 15.8496C17.058 17.3674 14.8396 18.9004 12 18.9004C9.16043 18.9004 6.94204 17.3674 5.47754 15.8496C4.73951 15.0847 4.16864 14.2997 3.77832 13.6582C3.58342 13.3379 3.42767 13.0442 3.31738 12.7979C3.26255 12.6754 3.2141 12.5541 3.17773 12.4404C3.15581 12.3719 3.12339 12.2611 3.1084 12.1328L3.09961 12L3.1084 11.8672C3.12339 11.7389 3.15581 11.6281 3.17773 11.5596C3.2141 11.4459 3.26255 11.3246 3.31738 11.2021C3.42767 10.9558 3.58342 10.6621 3.77832 10.3418C4.16864 9.70032 4.73951 8.91527 5.47754 8.15039C6.94204 6.63264 9.16043 5.09961 12 5.09961ZM12 6.90039C9.83957 6.90039 8.05796 8.06814 6.77246 9.40039C6.13568 10.0604 5.6438 10.7377 5.31543 11.2773C5.15109 11.5475 5.03324 11.7738 4.95996 11.9375C4.94986 11.9601 4.94239 11.9813 4.93457 12C4.94239 12.0187 4.94986 12.0399 4.95996 12.0625C5.03324 12.2262 5.15109 12.4525 5.31543 12.7227C5.6438 13.2623 6.13568 13.9396 6.77246 14.5996C8.05796 15.9319 9.83957 17.0996 12 17.0996C14.1604 17.0996 15.942 15.9319 17.2275 14.5996C17.8643 13.9396 18.3562 13.2623 18.6846 12.7227C18.8489 12.4525 18.9668 12.2262 19.04 12.0625C19.0501 12.0401 19.0567 12.0186 19.0645 12C19.0567 11.9814 19.0501 11.9599 19.04 11.9375C18.9668 11.7738 18.8489 11.5475 18.6846 11.2773C18.3562 10.7377 17.8643 10.0604 17.2275 9.40039C15.942 8.06814 14.1604 6.90039 12 6.90039ZM12 8.09961C14.1539 8.09961 15.9004 9.84609 15.9004 12C15.9004 14.1539 14.1539 15.9004 12 15.9004C9.84609 15.9004 8.09961 14.1539 8.09961 12C8.09961 9.84609 9.84609 8.09961 12 8.09961ZM12 9.90039C10.8402 9.90039 9.90039 10.8402 9.90039 12C9.90039 13.1598 10.8402 14.0996 12 14.0996C13.1598 14.0996 14.0996 13.1598 14.0996 12C14.0996 10.8402 13.1598 9.90039 12 9.90039Z" fill="#223A5A"/>
<circle cx="12" cy="12" r="3" fill="#223A5A"/>
<circle cx="13" cy="11" r="1" fill="white"/>
</svg>
