<svg width="50" height="24" viewBox="0 0 50 24" fill="none" xmlns="http://www.w3.org/2000/svg">
    <path d="m22.588 12 2.823.706v8.47h-2.823V12z" fill="#385378"/>
    <circle cx="24" cy="8.471" fill="#4AA6B5" r="2.118"/>
    <path d="M27.53 12.706h6.352v2.824H27.53v-2.824z" fill="#385378"/>
    <path fill-rule="evenodd" clip-rule="evenodd" d="M4.94 6.353V3.529h8.824a4.941 4.941 0 0 1 3.69 8.229 4.526 4.526 0 0 1 2.663 4.124 5.294 5.294 0 0 1-5.294 5.295H4.941V7.765l2.823.706v9.882h7.06a2.47 2.47 0 0 0 2.47-2.47c0-.791-.545-1.478-1.315-1.658l-5.744-1.52V9.883l2.83.706h.7a2.118 2.118 0 1 0 0-4.235H4.94zM2.824 21.177c1.17 0 2.118-.949 2.118-2.118v2.117H2.823z" fill="#385378"/>
    <path d="M38.824 3.53 36 2.823v18.352h2.824V3.53z" fill="#385378"/>
    <path d="M38.824 19.059v2.117h2.103a2.11 2.11 0 0 1-2.103-2.117z" fill="#385378"/>
    <path fill-rule="evenodd" clip-rule="evenodd" d="m44.471 3.53-2.823-.706v18.352h4.92a2.11 2.11 0 0 1-2.097-1.945V3.529z" fill="#385378"/>
</svg>
