<svg width="294" height="49" viewBox="0 0 294 49" fill="none" xmlns="http://www.w3.org/2000/svg">
    <g filter="url(#lygvcq630a)">
        <path fill="#F1F3F4" d="M3 8h288v33H3z"/>
        <g clip-path="url(#vkdyg2tqrb)" fill-rule="evenodd" clip-rule="evenodd" fill="#000">
            <path d="M18.05 29.787v-7.02h-1.17v7.605c0 .323.263.585.586.585h10.529a.585.585 0 0 0 .585-.585v-7.604h-1.17v7.019h-9.36z"/>
            <path d="M22.73 16.492c.163 0 .32.069.43.189l6.86 7.445a.585.585 0 0 1-.43.981h-1.595v-1.17h.26L22.73 17.94l-5.526 5.997h.261v1.17H15.87a.585.585 0 0 1-.43-.98l6.86-7.446a.585.585 0 0 1 .43-.189z"/>
        </g>
        <rect x="43" y="12" width="193" height="25" rx="12.5" fill="#fff"/>
        <g clip-path="url(#0qd6u2lz9c)">
            <path fill-rule="evenodd" clip-rule="evenodd" d="M61.5 19.25a2.5 2.5 0 0 0-2.5 2.5v1h-.5a1 1 0 0 0-1 1v5a1 1 0 0 0 1 1h6a1 1 0 0 0 1-1v-5a1 1 0 0 0-1-1H64v-1a2.5 2.5 0 0 0-2.5-2.5zm1.5 3.5v-1a1.5 1.5 0 0 0-3 0v1h3z" fill="#333"/>
            <path d="M75.728 18.5V29h-1.264V18.5h1.264zm-.3 6.521-.527-.02c.005-.506.08-.973.226-1.401.146-.433.35-.81.615-1.128a2.742 2.742 0 0 1 2.167-1.005c.365 0 .693.05.985.15.291.096.54.25.745.465.21.214.369.492.478.834.11.337.164.75.164 1.237V29H79.01v-4.86c0-.388-.057-.698-.171-.93a1.05 1.05 0 0 0-.5-.513c-.218-.11-.487-.164-.806-.164-.314 0-.601.066-.861.198a2.06 2.06 0 0 0-.663.547 2.75 2.75 0 0 0-.43.8c-.101.296-.151.61-.151.944zm9.844-3.418v.971h-4v-.97h4zm-2.646-1.797h1.265v7.362c0 .25.038.44.116.567a.556.556 0 0 0 .3.253c.124.041.256.062.397.062.105 0 .214-.01.328-.027.119-.023.208-.042.267-.055L85.306 29c-.1.032-.233.061-.397.089-.16.032-.353.048-.58.048a1.97 1.97 0 0 1-.855-.185 1.374 1.374 0 0 1-.622-.615c-.15-.292-.226-.684-.226-1.176v-7.355zm7.226 1.797v.971h-4v-.97h4zm-2.646-1.797h1.265v7.362c0 .25.038.44.116.567a.555.555 0 0 0 .3.253c.124.041.256.062.397.062.105 0 .214-.01.328-.027.119-.023.208-.042.267-.055L89.886 29c-.1.032-.233.061-.397.089-.16.032-.353.048-.58.048a1.97 1.97 0 0 1-.855-.185 1.374 1.374 0 0 1-.622-.615c-.15-.292-.226-.684-.226-1.176v-7.355zm5.394 3.22v8.818h-1.272v-10.24h1.162l.11 1.421zm4.983 2.214v.144c0 .538-.064 1.037-.191 1.497a3.682 3.682 0 0 1-.56 1.19c-.242.337-.541.599-.896.785a2.59 2.59 0 0 1-1.224.28c-.47 0-.884-.077-1.244-.232a2.453 2.453 0 0 1-.916-.677 3.456 3.456 0 0 1-.602-1.066 6.174 6.174 0 0 1-.3-1.401v-.766a6.433 6.433 0 0 1 .307-1.47c.15-.433.349-.802.595-1.107.25-.31.553-.545.909-.704a2.907 2.907 0 0 1 1.23-.246c.465 0 .878.09 1.238.273.36.178.663.433.909.766.246.332.43.731.554 1.196.127.46.191.973.191 1.538zm-1.272.144v-.144c0-.369-.038-.715-.116-1.039a2.625 2.625 0 0 0-.362-.861 1.726 1.726 0 0 0-.615-.588 1.75 1.75 0 0 0-.896-.219c-.319 0-.597.055-.834.164-.232.11-.43.258-.594.445a2.36 2.36 0 0 0-.404.628c-.1.233-.175.474-.225.725v1.77c.09.32.218.62.382.903.164.278.383.504.657.677.273.168.617.253 1.032.253.342 0 .636-.071.882-.212.25-.146.456-.344.615-.595a2.71 2.71 0 0 0 .362-.861 4.54 4.54 0 0 0 .117-1.046zm7.192 1.654c0-.182-.041-.35-.123-.506-.078-.16-.239-.303-.485-.43-.242-.133-.607-.247-1.094-.342a8.636 8.636 0 0 1-1.114-.308 3.363 3.363 0 0 1-.841-.43 1.807 1.807 0 0 1-.527-.595 1.659 1.659 0 0 1-.184-.8c0-.292.064-.567.191-.827.132-.26.317-.49.554-.69.241-.201.531-.358.868-.472.337-.114.713-.171 1.128-.171.592 0 1.098.105 1.518.314.419.21.74.49.963.841.224.346.335.732.335 1.155h-1.264c0-.205-.062-.403-.185-.594a1.361 1.361 0 0 0-.526-.486c-.228-.127-.508-.191-.841-.191-.351 0-.636.055-.855.164-.214.105-.371.24-.471.403a1.013 1.013 0 0 0-.075.889.81.81 0 0 0 .259.294c.123.086.297.168.52.246.223.077.508.155.854.232.607.137 1.106.301 1.497.493.392.191.684.426.875.704.192.278.288.615.288 1.011a1.96 1.96 0 0 1-.787 1.586c-.25.192-.551.342-.902.451a4.03 4.03 0 0 1-1.169.158c-.652 0-1.203-.117-1.654-.349-.451-.232-.793-.533-1.025-.902a2.158 2.158 0 0 1-.35-1.17h1.272c.019.347.119.623.301.828.182.2.406.344.67.43.264.083.526.124.786.124.347 0 .636-.046.868-.137.237-.091.417-.216.54-.376a.872.872 0 0 0 .185-.547zm2.871 1.292c0-.214.066-.394.198-.54.137-.15.333-.226.588-.226.255 0 .449.076.581.226a.759.759 0 0 1 .205.54.75.75 0 0 1-.205.533c-.132.146-.326.219-.581.219-.255 0-.451-.073-.588-.219a.766.766 0 0 1-.198-.533zm.007-6.036c0-.214.066-.394.198-.54.137-.15.333-.226.588-.226.255 0 .449.076.581.226a.758.758 0 0 1 .205.54.75.75 0 0 1-.205.533c-.132.146-.326.219-.581.219-.255 0-.451-.073-.588-.219a.766.766 0 0 1-.198-.533zm7.841-3.247-4.15 10.808h-1.087l4.157-10.808h1.08zm4.252 0-4.15 10.808h-1.087l4.157-10.808h1.08zm1.374-.547h1.271v9.064L121.01 29h-1.162V18.5zm6.268 6.74v.144c0 .538-.064 1.037-.191 1.497a3.691 3.691 0 0 1-.561 1.19c-.246.337-.547.599-.902.785-.356.187-.763.28-1.224.28-.469 0-.882-.079-1.237-.238a2.437 2.437 0 0 1-.889-.705 3.656 3.656 0 0 1-.581-1.107 7.014 7.014 0 0 1-.294-1.463v-.629a7.025 7.025 0 0 1 .294-1.47c.146-.433.34-.802.581-1.107.242-.31.538-.545.889-.704.351-.164.759-.246 1.224-.246.464 0 .877.09 1.237.273.36.178.661.433.902.766.246.332.433.731.561 1.196.127.46.191.973.191 1.538zm-1.271.144v-.144c0-.369-.034-.715-.103-1.039a2.691 2.691 0 0 0-.328-.861 1.632 1.632 0 0 0-.595-.588c-.246-.146-.549-.219-.909-.219-.319 0-.597.055-.834.164-.232.11-.43.258-.595.445a2.363 2.363 0 0 0-.403.628 3.62 3.62 0 0 0-.225.725v1.648c.072.319.191.626.355.922.169.292.392.531.67.718.282.187.631.28 1.046.28.342 0 .633-.068.875-.205.246-.14.444-.335.595-.58.155-.247.268-.532.341-.855.073-.324.11-.67.11-1.04zm4.245-3.78V29h-1.272v-7.396h1.272zm-1.367-1.962c0-.206.061-.379.184-.52.128-.141.315-.212.561-.212.241 0 .426.07.553.212a.729.729 0 0 1 .199.52.712.712 0 0 1-.199.506c-.127.136-.312.204-.553.204-.246 0-.433-.068-.561-.204a.744.744 0 0 1-.184-.506zm6.029 4.607v1.04h-3.336v-1.04h3.336zm2.611-5.749V29h-1.271V18.5h1.271zm3.405 0V29h-1.272V18.5h1.272zm2.05 9.83c0-.214.066-.394.199-.54.136-.15.332-.226.587-.226.256 0 .449.076.582.226a.763.763 0 0 1 .205.54c0 .21-.069.387-.205.533-.133.146-.326.219-.582.219-.255 0-.451-.073-.587-.219a.762.762 0 0 1-.199-.533zm6.631-.232c.301 0 .579-.062.834-.185a1.72 1.72 0 0 0 .629-.506c.164-.218.258-.467.28-.745h1.204a2.253 2.253 0 0 1-.445 1.224 3.037 3.037 0 0 1-2.502 1.25c-.556 0-1.041-.097-1.456-.293a2.883 2.883 0 0 1-1.025-.807 3.608 3.608 0 0 1-.609-1.176 4.968 4.968 0 0 1-.198-1.415v-.287c0-.497.066-.966.198-1.408.137-.447.34-.84.609-1.183.273-.341.615-.61 1.025-.806.415-.196.9-.294 1.456-.294.579 0 1.085.118 1.518.355.433.233.772.552 1.018.957.251.401.388.857.411 1.367h-1.204a1.816 1.816 0 0 0-.259-.827 1.624 1.624 0 0 0-.602-.588 1.684 1.684 0 0 0-.882-.225c-.387 0-.713.077-.977.232-.26.15-.467.356-.622.616-.151.255-.26.54-.329.854-.063.31-.095.627-.095.95v.287c0 .324.032.643.095.957.064.315.171.6.322.855.155.255.362.46.622.615.264.15.592.226.984.226zm7.438 1.039c-.515 0-.982-.087-1.402-.26a3.187 3.187 0 0 1-1.073-.745 3.308 3.308 0 0 1-.683-1.135 4.15 4.15 0 0 1-.24-1.436v-.287c0-.601.089-1.137.267-1.606.178-.474.419-.875.724-1.203a3.108 3.108 0 0 1 1.04-.745 2.982 2.982 0 0 1 1.203-.253c.528 0 .984.09 1.367.273.387.183.704.438.95.766.246.323.428.706.547 1.148a5.5 5.5 0 0 1 .178 1.436v.567h-5.524v-1.032h4.259v-.096a3.162 3.162 0 0 0-.205-.957 1.72 1.72 0 0 0-.547-.765c-.251-.2-.592-.301-1.025-.301a1.72 1.72 0 0 0-1.415.718 2.675 2.675 0 0 0-.404.868 4.43 4.43 0 0 0-.143 1.182v.287c0 .351.048.682.143.992.101.305.244.574.431.806.191.233.422.415.69.547.274.132.584.199.93.199.447 0 .825-.092 1.135-.274.31-.182.581-.426.813-.731l.766.608c-.16.242-.362.472-.608.69-.247.22-.55.397-.91.534-.355.136-.777.205-1.264.205zm5.728-10.637V29h-1.271V18.5h1.271zm5.1 10.637c-.515 0-.982-.087-1.402-.26a3.187 3.187 0 0 1-1.073-.745 3.308 3.308 0 0 1-.683-1.135 4.15 4.15 0 0 1-.24-1.436v-.287c0-.601.089-1.137.267-1.606.178-.474.419-.875.725-1.203a3.094 3.094 0 0 1 1.039-.745 2.982 2.982 0 0 1 1.203-.253c.528 0 .984.09 1.367.273.387.183.704.438.95.766.246.323.429.706.547 1.148.119.438.178.916.178 1.436v.567h-5.524v-1.032h4.259v-.096a3.132 3.132 0 0 0-.205-.957 1.72 1.72 0 0 0-.547-.765c-.25-.2-.592-.301-1.025-.301a1.72 1.72 0 0 0-1.415.718 2.696 2.696 0 0 0-.404.868 4.43 4.43 0 0 0-.143 1.182v.287c0 .351.048.682.143.992.101.305.244.574.431.806.191.233.422.415.691.547.273.132.583.199.929.199.447 0 .825-.092 1.135-.274.31-.182.581-.426.813-.731l.766.608a3.522 3.522 0 0 1-.608.69 2.894 2.894 0 0 1-.91.534c-.355.136-.777.205-1.264.205zm8.661-2.099c0-.182-.041-.35-.123-.506-.078-.16-.239-.303-.485-.43-.242-.133-.607-.247-1.094-.342a8.636 8.636 0 0 1-1.114-.308 3.356 3.356 0 0 1-.841-.43 1.807 1.807 0 0 1-.527-.595 1.659 1.659 0 0 1-.184-.8c0-.292.064-.567.191-.827.132-.26.317-.49.554-.69.241-.201.531-.358.868-.472.337-.114.713-.171 1.128-.171.592 0 1.098.105 1.518.314.419.21.74.49.963.841.224.346.335.732.335 1.155h-1.264c0-.205-.062-.403-.185-.594a1.361 1.361 0 0 0-.526-.486c-.228-.127-.508-.191-.841-.191-.351 0-.636.055-.854.164-.215.105-.372.24-.472.403a1.013 1.013 0 0 0-.075.889.81.81 0 0 0 .259.294c.123.086.297.168.52.246.223.077.508.155.854.232.607.137 1.106.301 1.498.493.391.191.683.426.875.704.191.278.287.615.287 1.011 0 .324-.069.62-.205.89a1.974 1.974 0 0 1-.582.696c-.25.192-.551.342-.902.452a4.03 4.03 0 0 1-1.169.157c-.651 0-1.203-.117-1.654-.349-.451-.232-.793-.533-1.025-.902a2.154 2.154 0 0 1-.349-1.17h1.271c.019.347.119.623.301.828.182.2.406.344.67.43.264.083.526.124.786.124.347 0 .636-.046.868-.137.237-.091.417-.216.54-.376a.872.872 0 0 0 .185-.547zm6.022-5.434v.97h-3.999v-.97h3.999zm-2.645-1.798h1.265v7.362c0 .25.038.44.116.567a.554.554 0 0 0 .301.253c.123.041.255.062.396.062.105 0 .214-.01.328-.027.119-.023.208-.042.267-.055l.007 1.032a3.004 3.004 0 0 1-.397.089 3.01 3.01 0 0 1-.581.048c-.31 0-.595-.062-.854-.185a1.369 1.369 0 0 1-.622-.615c-.151-.292-.226-.684-.226-1.176v-7.355zm5.503 1.797V29h-1.272v-7.396h1.272zm-1.367-1.961c0-.206.061-.379.184-.52.128-.141.315-.212.561-.212.241 0 .426.07.554.212a.732.732 0 0 1 .198.52.715.715 0 0 1-.198.506c-.128.136-.313.204-.554.204-.246 0-.433-.068-.561-.204a.744.744 0 0 1-.184-.506zm7.758 8.093v-3.807c0-.292-.059-.545-.177-.76a1.162 1.162 0 0 0-.52-.505c-.232-.118-.519-.178-.861-.178-.319 0-.599.055-.841.164-.237.11-.424.253-.56.431a.94.94 0 0 0-.199.574h-1.264c0-.264.068-.526.205-.786.136-.26.332-.494.588-.704.259-.214.569-.383.929-.506.365-.127.77-.191 1.217-.191.538 0 1.012.09 1.422.273.415.183.738.458.971.827.237.365.355.823.355 1.374v3.446c0 .246.021.508.062.786.045.278.111.517.198.718V29h-1.319a2.374 2.374 0 0 1-.151-.581 4.752 4.752 0 0 1-.055-.684zm.219-3.22.014.89h-1.278c-.36 0-.682.029-.964.088-.283.055-.52.14-.711.253a1.205 1.205 0 0 0-.438.43c-.1.17-.15.368-.15.596 0 .232.052.444.157.635.105.192.262.344.472.458.214.11.476.164.786.164a2.125 2.125 0 0 0 1.729-.848c.178-.236.274-.466.288-.69l.54.609a1.846 1.846 0 0 1-.26.635 3.036 3.036 0 0 1-.568.67c-.232.21-.51.385-.834.527a2.715 2.715 0 0 1-1.08.205c-.501 0-.941-.098-1.319-.294a2.256 2.256 0 0 1-.875-.786 2.082 2.082 0 0 1-.308-1.115c0-.396.078-.745.233-1.046.155-.305.378-.558.67-.758.291-.205.642-.36 1.052-.465a5.559 5.559 0 0 1 1.374-.157h1.47zm4.409-6.015V29h-1.271V18.5h1.271zm6.337 8.538c0-.182-.041-.35-.123-.506-.077-.16-.239-.303-.485-.43-.242-.133-.606-.247-1.094-.342a8.681 8.681 0 0 1-1.114-.308 3.39 3.39 0 0 1-.841-.43 1.804 1.804 0 0 1-.526-.595 1.66 1.66 0 0 1-.185-.8c0-.292.064-.567.192-.827.132-.26.316-.49.553-.69.242-.201.531-.358.868-.472.338-.114.714-.171 1.128-.171.593 0 1.099.105 1.518.314.419.21.74.49.964.841.223.346.335.732.335 1.155h-1.265c0-.205-.061-.403-.184-.594a1.364 1.364 0 0 0-.527-.486c-.228-.127-.508-.191-.841-.191-.351 0-.635.055-.854.164-.214.105-.372.24-.472.403a1.012 1.012 0 0 0-.143.52c0 .137.022.26.068.369.05.105.137.203.26.294.123.086.296.168.519.246.224.077.508.155.855.232.606.137 1.105.301 1.497.493.392.191.683.426.875.704.191.278.287.615.287 1.011a1.97 1.97 0 0 1-.786 1.586 2.895 2.895 0 0 1-.903.451 4.028 4.028 0 0 1-1.168.158c-.652 0-1.204-.117-1.655-.349-.451-.232-.793-.533-1.025-.902a2.154 2.154 0 0 1-.349-1.17h1.272c.018.347.118.623.3.828.183.2.406.344.67.43.265.083.527.124.787.124.346 0 .635-.046.868-.137.237-.091.417-.216.54-.376a.871.871 0 0 0 .184-.547zm6.023-5.434v.97h-3.999v-.97h3.999zm-2.646-1.798h1.265v7.362c0 .25.039.44.116.567a.558.558 0 0 0 .301.253c.123.041.255.062.396.062.105 0 .215-.01.329-.027.118-.023.207-.042.266-.055l.007 1.032c-.1.032-.232.061-.397.089a3.01 3.01 0 0 1-.581.048c-.309 0-.594-.062-.854-.185a1.373 1.373 0 0 1-.622-.615c-.151-.292-.226-.684-.226-1.176v-7.355zm8.655 7.485v-5.688h1.271V29h-1.21l-.061-1.709zm.239-1.559.526-.013c0 .492-.052.948-.157 1.367-.1.415-.264.775-.492 1.08a2.331 2.331 0 0 1-.896.718c-.369.168-.818.253-1.346.253a3 3 0 0 1-.992-.157 1.978 1.978 0 0 1-.765-.486 2.204 2.204 0 0 1-.499-.854c-.114-.351-.171-.773-.171-1.265v-4.771h1.264v4.785c0 .332.037.608.11.827.077.214.18.385.307.512.133.124.278.21.438.26.164.05.333.076.506.076.538 0 .964-.103 1.278-.308.315-.21.54-.49.677-.841.141-.355.212-.75.212-1.183zm7.622 1.832V18.5h1.271V29h-1.162l-.109-1.436zm-4.977-2.18v-.144c0-.565.069-1.078.205-1.538.142-.465.34-.864.595-1.196.26-.333.568-.588.923-.766.36-.182.761-.273 1.203-.273.465 0 .871.082 1.217.246.351.16.647.394.889.704.246.305.439.674.581 1.107.141.433.239.923.294 1.47v.629a6.534 6.534 0 0 1-.294 1.463 3.468 3.468 0 0 1-.581 1.107c-.242.306-.538.54-.889.704-.351.16-.761.24-1.231.24a2.54 2.54 0 0 1-1.189-.28 2.813 2.813 0 0 1-.923-.787 3.852 3.852 0 0 1-.595-1.19 5.263 5.263 0 0 1-.205-1.496zm1.272-.144v.144c0 .369.036.715.109 1.039.078.323.196.608.356.854.159.246.362.44.608.581.246.137.54.206.882.206.419 0 .763-.09 1.032-.267.274-.178.492-.413.656-.704.164-.292.292-.609.383-.95v-1.648a3.659 3.659 0 0 0-.239-.725 2.228 2.228 0 0 0-.397-.628 1.706 1.706 0 0 0-.594-.445 1.928 1.928 0 0 0-.827-.164 1.75 1.75 0 0 0-.896.219 1.74 1.74 0 0 0-.608.588 2.72 2.72 0 0 0-.356.861c-.073.324-.109.67-.109 1.04zm8.319-3.636V29h-1.271v-7.396h1.271zm-1.367-1.962c0-.206.061-.379.185-.52.127-.141.314-.212.56-.212.242 0 .426.07.554.212a.732.732 0 0 1 .198.52.715.715 0 0 1-.198.506c-.128.136-.312.204-.554.204-.246 0-.433-.068-.56-.204a.74.74 0 0 1-.185-.506zm3.062 5.742v-.157c0-.534.078-1.028.233-1.484.155-.46.378-.859.67-1.196a2.988 2.988 0 0 1 1.059-.793c.415-.192.88-.287 1.395-.287.519 0 .987.096 1.401.287.42.187.775.451 1.067.793.296.337.521.736.676 1.196.155.456.233.95.233 1.484v.157c0 .533-.078 1.027-.233 1.483-.155.456-.38.855-.676 1.197a3.103 3.103 0 0 1-1.06.792c-.41.187-.875.28-1.394.28-.52 0-.987-.093-1.402-.28a3.165 3.165 0 0 1-1.066-.793 3.609 3.609 0 0 1-.67-1.196 4.579 4.579 0 0 1-.233-1.483zm1.265-.157v.157c0 .369.043.718.13 1.046.087.323.216.61.39.861.177.25.398.449.663.595.264.141.572.212.923.212.346 0 .649-.071.909-.212.264-.146.483-.344.656-.595.173-.25.303-.538.39-.861.091-.328.136-.677.136-1.046v-.157c0-.365-.045-.71-.136-1.033a2.661 2.661 0 0 0-.397-.868 1.885 1.885 0 0 0-.656-.601 1.841 1.841 0 0 0-.916-.22c-.346 0-.652.074-.916.22-.26.145-.479.346-.656.601-.174.25-.303.54-.39.868-.087.324-.13.668-.13 1.033zm7.075 3.103c0-.214.066-.394.199-.54.136-.15.332-.226.587-.226.256 0 .449.076.581.226a.76.76 0 0 1 .206.54.75.75 0 0 1-.206.533c-.132.146-.325.219-.581.219-.255 0-.451-.073-.587-.219a.762.762 0 0 1-.199-.533zm4.936-5.147V29h-1.265v-7.396h1.196l.069 1.579zm-.301 1.838-.526-.02c.004-.506.079-.973.225-1.401a3.49 3.49 0 0 1 .616-1.128c.264-.32.578-.565.943-.739a2.784 2.784 0 0 1 1.224-.266c.364 0 .692.05.984.15.292.096.54.25.745.465.21.214.369.492.479.834.109.337.164.75.164 1.237V29h-1.272v-4.86c0-.388-.057-.698-.171-.93a1.05 1.05 0 0 0-.499-.513c-.219-.11-.487-.164-.806-.164-.315 0-.602.066-.862.198a2.065 2.065 0 0 0-.663.547 2.763 2.763 0 0 0-.581 1.744zm9.844 4.116c-.515 0-.982-.087-1.402-.26a3.187 3.187 0 0 1-1.073-.745 3.308 3.308 0 0 1-.683-1.135 4.15 4.15 0 0 1-.24-1.436v-.287c0-.601.089-1.137.267-1.606.178-.474.419-.875.725-1.203a3.094 3.094 0 0 1 1.039-.745 2.982 2.982 0 0 1 1.203-.253c.528 0 .984.09 1.367.273.387.183.704.438.95.766.246.323.429.706.547 1.148a5.5 5.5 0 0 1 .178 1.436v.567h-5.524v-1.032h4.259v-.096a3.132 3.132 0 0 0-.205-.957 1.72 1.72 0 0 0-.547-.765c-.251-.2-.592-.301-1.025-.301a1.72 1.72 0 0 0-1.415.718 2.696 2.696 0 0 0-.404.868 4.43 4.43 0 0 0-.143 1.182v.287c0 .351.048.682.143.992.101.305.244.574.431.806.191.233.422.415.69.547.274.132.584.199.93.199.447 0 .825-.092 1.135-.274.31-.182.581-.426.813-.731l.766.608a3.522 3.522 0 0 1-.608.69c-.246.22-.55.397-.91.534-.355.136-.777.205-1.264.205zm7.451-7.534v.971h-3.999v-.97h3.999zm-2.646-1.797h1.265v7.362c0 .25.039.44.116.567a.558.558 0 0 0 .301.253c.123.041.255.062.397.062.104 0 .214-.01.328-.027.118-.023.207-.042.266-.055l.007 1.032c-.1.032-.232.061-.396.089-.16.032-.354.048-.581.048-.31 0-.595-.062-.855-.185a1.373 1.373 0 0 1-.622-.615c-.15-.292-.226-.684-.226-1.176v-7.355z" fill="#3C4043"/>
            <a>
                <path fill="none" d="M0 0h185.104v16.406H0z"/>
            </a>
        </g>
        <path d="M254.873 20.153V28h-1.294v-6.311l-1.918.65V21.27l3.056-1.117h.156z" fill="#3C4043"/>
        <rect x="244.9" y="15.9" width="17.2" height="17.2" rx="3.1" stroke="#3C4043" stroke-width="1.8"/>
        <path fill-rule="evenodd" clip-rule="evenodd" d="M277 20.5c1.1 0 2-.9 2-2s-.9-2-2-2-2 .9-2 2 .9 2 2 2zm0 2c-1.1 0-2 .9-2 2s.9 2 2 2 2-.9 2-2-.9-2-2-2zm0 6c-1.1 0-2 .9-2 2s.9 2 2 2 2-.9 2-2-.9-2-2-2z" fill="#3C4043"/>
    </g>
    <path d="M288 24c0 6.506-1.321 12.346-3.409 16.523C282.472 44.76 279.731 47 277 47s-5.472-2.24-7.591-6.477C267.321 36.346 266 30.506 266 24s1.321-12.346 3.409-16.523C271.528 3.24 274.269 1 277 1s5.472 2.24 7.591 6.477C286.679 11.654 288 17.494 288 24z" stroke="#F38181" stroke-width="2"/>
    <defs>
        <clipPath id="vkdyg2tqrb">
            <path fill="#fff" transform="translate(11 12.5)" d="M0 0h24v24H0z"/>
        </clipPath>
        <clipPath id="0qd6u2lz9c">
            <path fill="#fff" transform="translate(57.5 16)" d="M0 0h164v17H0z"/>
        </clipPath>
        <filter id="lygvcq630a" x="0" y="8" width="294" height="39" filterUnits="userSpaceOnUse" color-interpolation-filters="sRGB">
            <feFlood flood-opacity="0" result="BackgroundImageFix"/>
            <feColorMatrix in="SourceAlpha" values="0 0 0 0 0 0 0 0 0 0 0 0 0 0 0 0 0 0 127 0" result="hardAlpha"/>
            <feOffset dy="3"/>
            <feGaussianBlur stdDeviation="1.5"/>
            <feColorMatrix values="0 0 0 0 0 0 0 0 0 0 0 0 0 0 0 0 0 0 0.08 0"/>
            <feBlend in2="BackgroundImageFix" result="effect1_dropShadow_1072_25708"/>
            <feBlend in="SourceGraphic" in2="effect1_dropShadow_1072_25708" result="shape"/>
        </filter>
    </defs>
</svg>
