<svg width="345" height="330" viewBox="0 0 345 330" fill="none" xmlns="http://www.w3.org/2000/svg">
    <g clip-path="url(#n9242dseja)">
        <circle cx="269.639" cy="112.88" r="24.473" fill="#FCF5E8"/>
        <path d="M336.293 266.449c16.704-19.257-15.714-39.289-10.765-45.376 21.53-82.12-30.315-62.863-44.916-83.78-14.601-20.917-17.332-55.787-79.431-55.787-59.56 0-79.693 68.847-93.428 66.301-13.735-2.545-48.752 24.348-55.557 57.55-6.806 33.202-38.111 15.716-40.09 34.973-1.98 19.257 95.647 62.727 153.175 32.768 23.686-12.335 154.308 12.608 171.012-6.649z" fill="#F9EBD1"/>
        <path d="M14.53 257.313c-16.708-21.314 15.718-43.486 10.768-50.224-21.535-90.892 30.321-69.578 44.925-92.73 14.604-23.152 14.721-50.103 76.833-50.103 59.573 0 46.575 61.74 96.064 61.74 13.954 0 48.762 26.95 55.569 63.699 6.807 36.749 23.511 33.868 21.575 55.188-3.559 39.176-77.144 52.948-134.684 19.789-23.692-13.653-154.342 13.956-171.05-7.359z" fill="#F1E0BF"/>
        <path d="M148.747 251.602c-51.272-1.608-100.365 1.004-117.228 6.65-13.964 5.072-5.99 7.592-.258 8.217 19.685.618 58.445 2.221 56.007 3.696-3.047 1.844-67.472 5.04-72.012 8.174-4.54 3.135 106.692.069 76.843 3.948-23.88 3.104-13.552 5.371-5.403 6.117 54.378 2.085 165.058 4.829 172.754-.868 9.62-7.122-101.383-3.18-96.454-7.84 4.93-4.661 125.549-1.948 163.029-6.724 37.48-4.777-90.05-5.031-98.908-8.586-8.858-3.555 44.803 1.405 43.146-5.669-1.657-7.074-57.426-5.106-121.516-7.115z" fill="#E3D0AB" fill-opacity=".7"/>
        <path d="M181.948 274.972c38.128-1.515 74.723 1.647 87.391 8.009 10.499 5.709 4.616 8.465.363 9.13-14.639.581-43.455 2.157-41.61 3.808 2.307 2.065 50.324 5.957 53.769 9.463 3.444 3.506-79.409-.489-57.112 3.978 17.838 3.574 10.198 6.038 4.148 6.824-40.43 2.027-122.752 4.488-128.598-1.881-7.309-7.962 75.393-2.995 71.627-8.198-3.766-5.203-115.338-3.814-121.92-5.108-6.584-1.295 67.358-8.337 73.877-12.239 6.519-3.902-33.318 1.323-32.231-6.526 1.086-7.85 42.635-5.368 90.296-7.26z" fill="#E3D0AB" fill-opacity=".5"/>
        <path fill-rule="evenodd" clip-rule="evenodd" d="M218.99 78.541a.347.347 0 0 0-.481.095c-.299.445-.673 1.2-1.112 2.206a88.316 88.316 0 0 0-1.535 3.819c-1.156 3.041-2.569 7.032-4.156 11.67-3.175 9.275-7.054 21.149-10.985 33.211l-.704 2.158c-3.701 11.358-7.416 22.756-10.604 32.194-3.395 10.047-6.184 17.845-7.725 21.02a.346.346 0 0 0 .624.303c1.565-3.224 4.369-11.071 7.758-21.101 3.19-9.442 6.906-20.843 10.607-32.2l.703-2.159c3.932-12.064 7.809-23.932 10.982-33.202 1.587-4.635 2.997-8.617 4.149-11.648a88.583 88.583 0 0 1 1.522-3.787c.438-1.005.792-1.709 1.052-2.097a.347.347 0 0 0-.095-.482z" fill="#E3D1AD"/>
        <path d="M224.855 83.7c-6.064-.841-7.438 1.264-8.728 3.943 5.419 5.256 11.502.97 13.865-1.83.283.04-.622-1.487-5.137-2.113zM222.505 92.03c-5.433-.753-8.105 1.87-9.434 4.629 6.376 3.918 11.846.999 14.281-1.885 1.631-.936.35-2.022-4.847-2.743zM219.002 103.22c-5.36-1.598-8.833.282-10.967 2.513 4.209 5.773 11.866 2.91 15.168.757 1.935-.556.924-1.742-4.201-3.27zM215.295 113.037c-5.471-1.161-8.781.993-10.728 3.388 4.66 5.415 12.061 1.944 15.179-.468 1.884-.71.781-1.81-4.451-2.92zM212.477 124.174c-6.367-.878-9.309.419-11.731 2.964 5.178 5.252 13.748 3.278 17.548.651 2.253-.827.272-2.776-5.817-3.615zM211.331 135.385c-6.235-1.561-9.3-.59-11.982 1.678 4.579 5.781 13.312 4.746 17.374 2.545 2.329-.578.571-2.73-5.392-4.223zM206.719 144.721c-6.235-1.562-9.3-.591-11.983 1.678 4.58 5.781 13.313 4.746 17.374 2.545 2.33-.578.571-2.73-5.391-4.223zM201.984 156.347c-3.133-2.946-6.069-2.567-8.207-1.49 1.055 5.861 7.13 6.031 10.035 5.383 1.483.175 1.167-1.075-1.828-3.893zM202.495 164.433c-5.759-2.143-10.168-1.093-13.127.452 3.474 5.461 12.897 4.218 17.174 2.914 2.342-.174 1.462-1.317-4.047-3.366zM199.552 175.141c-4.859-3.763-9.38-4.077-12.665-3.485 1.687 6.249 11.051 7.874 15.523 7.905 2.287.533 1.788-.821-2.858-4.42zM182.627 150.149c3.645-1.506 6.406-.738 8.25.378-2.245 3.885-8.157 2.958-10.833 2.009-1.471-.134-.904-.947 2.583-2.387zM206.864 81.918c.9 4.873 3.909 6.418 6.652 6.772 1.375-5.395-2.514-10.44-5.679-11.707-1.267-1.133-1.834.275-.973 4.935zM212.136 72.193c.9 4.873 3.909 6.417 6.653 6.771 1.374-5.394-2.515-10.44-5.68-11.707-1.267-1.132-1.833.276-.973 4.936z" fill="#E3D1AD"/>
        <path d="M227.955 79.702c-4.412 2.254-7.47.81-9.422-1.151 3.441-4.376 9.812-4.365 12.744-2.627 1.67.315.898 1.622-3.322 3.778zM199.771 92.914c2.071 5.772 6.053 7.06 9.476 6.946.604-6.864-5.152-12.253-9.271-13.17-1.773-1.13-2.185.703-.205 6.224zM195.889 106.3c1.803 5.028 5.272 6.149 8.253 6.049.527-5.978-4.487-10.671-8.074-11.469-1.834-.408-1.903.611-.179 5.42zM192.232 119.19c3.654 3.896 7.283 3.545 9.978 2.269-1.894-5.694-8.361-8.007-11.97-7.313-1.844.355-1.502 1.317 1.992 5.044zM186.733 129.857c5.015 3.979 9.256 2.928 12.228.942-3.244-6.419-11.316-8.029-15.473-6.574-2.125.744-1.551 1.826 3.245 5.632zM181.347 141.347c5.652 4.13 10.4 3.079 13.719 1.057-3.683-6.628-12.746-8.341-17.398-6.874-2.378.75-1.726 1.867 3.679 5.817z" fill="#E3D1AD"/>
        <path d="M197.536 217.265c-6.775-.512-10.205 14.626-7.65 25.799l4.133-.629c-.854-10.675 10.293-24.657 3.517-25.17z" fill="#D9C7A5"/>
        <path fill-rule="evenodd" clip-rule="evenodd" d="M195.678 221.925a.104.104 0 0 1 .044.145c-4.366 7.631-4.007 16.173-3.822 20.565l.006.144-.225.014-.007-.153c-.184-4.392-.546-12.985 3.851-20.669a.117.117 0 0 1 .153-.046z" fill="#F1E0BF"/>
        <path d="M208.785 221.93c-4.782-2.043-11.261 8.216-12.351 17.04l2.935-.201c2.194-8.04 14.198-14.796 9.416-16.839z" fill="#E3D1AD"/>
        <path fill-rule="evenodd" clip-rule="evenodd" d="M206.23 224.876a.105.105 0 0 1-.013.152c-4.928 4.051-6.491 8.503-7.906 12.534-.158.451-.315.897-.474 1.336l-.213-.067c.159-.438.315-.883.473-1.334 1.415-4.032 2.996-8.538 7.974-12.631a.117.117 0 0 1 .159.01z" fill="#F1E0BF"/>
        <path d="M184.644 219.243c6.769 1.862 4.988 18.144-1.278 28.38l-2.931-2.68c4.441-10.335-2.559-27.562 4.209-25.7z" fill="#D9C7A5"/>
        <path fill-rule="evenodd" clip-rule="evenodd" d="M184.867 224.503a.142.142 0 0 0-.114.171c1.799 8.422-.292 14.437-2.186 19.884-.212.61-.421 1.212-.623 1.81l.282.109c.201-.596.41-1.198.622-1.808 1.895-5.447 4.012-11.536 2.195-20.042a.157.157 0 0 0-.176-.124z" fill="#F1E0BF"/>
        <circle cx="34.069" cy="126.788" fill="#F9EBD1" r="13.584"/>
        <circle cx="314.273" cy="94.983" fill="#FCF5E8" r="8.302"/>
        <circle cx="78.595" cy="69.539" fill="#F9EBD1" fill-opacity=".5" r="24.689"/>
        <circle cx="286.242" cy="141.773" fill="#F9EBD1" r="21.886"/>
        <path d="M200.709 44.745c3.734 12.857-3.661 26.305-16.517 30.039-12.857 3.734-26.305-3.662-30.039-16.518-3.734-12.856 3.662-26.305 16.518-30.038 12.856-3.734 26.305 3.661 30.038 16.517z" fill="#B1DEDC"/>
        <path fill-rule="evenodd" clip-rule="evenodd" d="M169.798 25.662a.246.246 0 0 1 .305.168l.274.945a.246.246 0 1 1-.472.138l-.275-.946a.246.246 0 0 1 .168-.305zm.961 3.309a.246.246 0 0 1 .305.168l.549 1.89a.246.246 0 1 1-.473.137l-.549-1.89a.246.246 0 0 1 .168-.305zm1.235 4.254a.246.246 0 0 1 .305.167l.549 1.891a.246.246 0 1 1-.472.137l-.55-1.89a.247.247 0 0 1 .168-.305zm1.236 4.254a.245.245 0 0 1 .304.167l.55 1.89a.246.246 0 1 1-.473.137l-.549-1.89a.246.246 0 0 1 .168-.304zm1.235 4.253a.246.246 0 0 1 .305.168l.549 1.89a.246.246 0 1 1-.473.138l-.549-1.89a.246.246 0 0 1 .168-.306zm1.235 4.254a.246.246 0 0 1 .305.168l.549 1.89a.246.246 0 1 1-.472.138l-.549-1.89a.246.246 0 0 1 .167-.306zm1.236 4.254a.246.246 0 0 1 .305.168l.549 1.89a.246.246 0 1 1-.473.138l-.549-1.89a.246.246 0 0 1 .168-.306zm1.235 4.254a.246.246 0 0 1 .305.168l.549 1.89a.246.246 0 1 1-.472.138l-.55-1.89a.247.247 0 0 1 .168-.306zm1.236 4.254a.246.246 0 0 1 .305.168l.549 1.89a.247.247 0 0 1-.473.138l-.549-1.891a.246.246 0 0 1 .168-.305zm1.235 4.254a.246.246 0 0 1 .305.168l.549 1.89a.246.246 0 1 1-.473.137l-.549-1.89a.246.246 0 0 1 .168-.305zm1.235 4.254a.246.246 0 0 1 .305.168l.549 1.89a.246.246 0 1 1-.472.137l-.549-1.89a.246.246 0 0 1 .167-.305zm1.236 4.254a.246.246 0 0 1 .305.167l.549 1.891a.246.246 0 1 1-.473.137l-.549-1.89a.246.246 0 0 1 .168-.305zm1.235 4.253a.246.246 0 0 1 .305.168l.275.945a.246.246 0 1 1-.473.138l-.274-.945a.246.246 0 0 1 .167-.306z" fill="#385378"/>
        <path fill-rule="evenodd" clip-rule="evenodd" d="M151.519 58.903a.246.246 0 0 1 .168-.305l.95-.276a.246.246 0 0 1 .137.473l-.95.276a.246.246 0 0 1-.305-.168zm3.324-.965a.246.246 0 0 1 .168-.305l1.899-.552a.246.246 0 1 1 .137.473l-1.899.551a.246.246 0 0 1-.305-.167zm4.274-1.242a.246.246 0 0 1 .167-.304l1.9-.552a.246.246 0 0 1 .137.473l-1.899.551a.246.246 0 0 1-.305-.167zm4.273-1.24a.246.246 0 0 1 .168-.306l1.899-.551a.246.246 0 0 1 .138.473l-1.9.551a.246.246 0 0 1-.305-.168zm4.274-1.242a.246.246 0 0 1 .168-.305l1.899-.551a.246.246 0 0 1 .137.472l-1.899.552a.246.246 0 0 1-.305-.168zm4.273-1.24a.247.247 0 0 1 .168-.306l1.9-.551a.246.246 0 0 1 .137.472l-1.9.552a.246.246 0 0 1-.305-.168zm4.274-1.242a.246.246 0 0 1 .168-.305l1.899-.552a.246.246 0 1 1 .137.473l-1.899.552a.246.246 0 0 1-.305-.168zm4.274-1.241a.246.246 0 0 1 .167-.305l1.9-.552a.246.246 0 0 1 .137.473l-1.899.552a.246.246 0 0 1-.305-.168zm4.273-1.241a.246.246 0 0 1 .168-.305l1.899-.552a.246.246 0 0 1 .138.473l-1.9.551a.246.246 0 0 1-.305-.167zm4.274-1.241a.246.246 0 0 1 .167-.305l1.9-.552a.246.246 0 0 1 .137.473l-1.899.551a.246.246 0 0 1-.305-.167zm4.273-1.242a.247.247 0 0 1 .168-.305l1.899-.551a.246.246 0 0 1 .138.473l-1.9.551a.246.246 0 0 1-.305-.168zm4.274-1.24a.246.246 0 0 1 .168-.306l1.899-.551a.246.246 0 1 1 .137.472l-1.899.552a.246.246 0 0 1-.305-.168zm4.274-1.242a.246.246 0 0 1 .167-.305l.95-.275a.246.246 0 0 1 .137.472l-.949.276a.245.245 0 0 1-.305-.168z" fill="#385378"/>
        <path fill-rule="evenodd" clip-rule="evenodd" d="M153.886 38.559a.246.246 0 0 1 .334-.097l.863.474a.247.247 0 0 1-.237.431l-.863-.474a.247.247 0 0 1-.097-.334zm3.019 1.66a.246.246 0 0 1 .334-.097l1.725.948a.246.246 0 1 1-.237.432l-1.725-.95a.247.247 0 0 1-.097-.333zm3.882 2.134a.246.246 0 0 1 .334-.097l1.725.949a.246.246 0 1 1-.237.431l-1.725-.949a.246.246 0 0 1-.097-.334zm3.881 2.134a.246.246 0 0 1 .334-.097l1.725.95a.246.246 0 1 1-.237.43l-1.725-.948a.247.247 0 0 1-.097-.335zm3.882 2.135a.246.246 0 0 1 .334-.097l1.725.948a.246.246 0 1 1-.237.432l-1.725-.949a.246.246 0 0 1-.097-.334zm3.881 2.134a.246.246 0 0 1 .334-.097l1.726.949a.247.247 0 0 1-.238.431l-1.725-.949a.247.247 0 0 1-.097-.334zm3.882 2.135a.246.246 0 0 1 .334-.097l1.725.948a.246.246 0 1 1-.237.431l-1.725-.948a.246.246 0 0 1-.097-.334zm3.881 2.134a.246.246 0 0 1 .334-.097l1.726.949a.247.247 0 0 1-.238.43l-1.725-.948a.247.247 0 0 1-.097-.334zm3.882 2.134a.246.246 0 0 1 .334-.097l1.725.949a.246.246 0 1 1-.237.431l-1.725-.948a.246.246 0 0 1-.097-.335zm3.881 2.135a.246.246 0 0 1 .334-.097l1.726.948a.247.247 0 0 1-.238.432l-1.725-.949a.247.247 0 0 1-.097-.334zm3.882 2.134a.246.246 0 0 1 .334-.097l1.725.949a.246.246 0 1 1-.237.431l-1.725-.949a.246.246 0 0 1-.097-.334zm3.881 2.135a.247.247 0 0 1 .335-.098l1.725.95a.247.247 0 0 1-.238.43l-1.725-.948a.247.247 0 0 1-.097-.334zm3.882 2.134a.246.246 0 0 1 .334-.097l.863.474a.247.247 0 0 1-.238.431l-.862-.474a.246.246 0 0 1-.097-.334z" fill="#385378"/>
        <path fill-rule="evenodd" clip-rule="evenodd" d="M190.378 27.96a.246.246 0 0 0-.334.098l-.474.862a.246.246 0 1 0 .431.237l.474-.862a.246.246 0 0 0-.097-.335zm-1.66 3.02a.246.246 0 0 0-.334.096l-.949 1.726a.247.247 0 0 0 .431.237l.949-1.725a.246.246 0 0 0-.097-.334zm-2.134 3.881a.247.247 0 0 0-.335.097l-.948 1.725a.246.246 0 1 0 .431.237l.949-1.725a.247.247 0 0 0-.097-.334zm-2.135 3.882a.246.246 0 0 0-.334.097l-.949 1.725a.247.247 0 0 0 .432.237l.948-1.725a.246.246 0 0 0-.097-.334zm-2.134 3.881a.246.246 0 0 0-.334.097l-.949 1.725a.247.247 0 0 0 .431.237l.949-1.725a.247.247 0 0 0-.097-.334zm-2.135 3.882a.246.246 0 0 0-.334.097l-.948 1.725a.246.246 0 1 0 .431.237l.949-1.725a.246.246 0 0 0-.098-.334zm-2.134 3.881a.246.246 0 0 0-.334.097l-.949 1.725a.247.247 0 0 0 .432.237l.948-1.725a.246.246 0 0 0-.097-.334zm-2.134 3.882a.247.247 0 0 0-.335.097l-.948 1.725a.246.246 0 1 0 .431.237l.949-1.725a.247.247 0 0 0-.097-.334zm-2.135 3.881a.246.246 0 0 0-.334.097l-.949 1.725a.246.246 0 0 0 .432.237l.948-1.725a.246.246 0 0 0-.097-.334zm-2.134 3.882a.246.246 0 0 0-.334.097l-.949 1.725a.247.247 0 0 0 .431.237l.949-1.725a.247.247 0 0 0-.097-.334zm-2.134 3.881a.247.247 0 0 0-.335.097l-.948 1.725a.246.246 0 1 0 .431.237l.949-1.725a.247.247 0 0 0-.097-.334zm-2.135 3.882a.246.246 0 0 0-.334.097l-.949 1.725a.247.247 0 0 0 .432.237l.948-1.725a.246.246 0 0 0-.097-.334zm-2.134 3.881a.246.246 0 0 0-.334.097l-.475.863a.247.247 0 0 0 .432.237l.474-.863a.247.247 0 0 0-.097-.334z" fill="#385378"/>
        <path d="m177.245 51.304-6.692-23.042c6.278-2.208 15.194-.184 18.533 2.049l-11.841 20.993z" fill="#81CBC8"/>
        <path d="M71.803 72.234v7.547h84.094V61.13H81.075c-3.45 0-9.272 2.264-9.272 11.104z" fill="#9BADB5"/>
        <path fill-rule="evenodd" clip-rule="evenodd" d="M80.751 61.022h78.703c5.954 0 10.781 4.827 10.781 10.781v173.578l.863 2.84a10.781 10.781 0 0 0 7.444 7.258l2.475.683h-78.704c-5.954 0-10.78-4.826-10.78-10.781V71.803l-.863-2.84a10.782 10.782 0 0 0-7.445-7.257l-2.474-.684z" fill="url(#6nagxc0rzb)"/>
        <path fill-rule="evenodd" clip-rule="evenodd" d="M170.235 245.381V71.803c0-5.954-4.827-10.781-10.781-10.781H80.751l2.474.684a10.782 10.782 0 0 1 7.445 7.257l.862 2.84v173.578c0 5.955 4.827 10.781 10.781 10.781h78.704l-2.475-.683a10.781 10.781 0 0 1-7.444-7.258l-.863-2.84zm6.504 10.135a11.433 11.433 0 0 1-6.26-7.107l-.891-2.932V71.803c0-5.597-4.537-10.134-10.134-10.134H85.028a11.43 11.43 0 0 1 6.26 7.106l.891 2.932v173.674c0 5.597 4.537 10.135 10.134 10.135h74.426z" fill="#F2F4F4"/>
        <path fill-rule="evenodd" clip-rule="evenodd" d="M134.873 245.381c0-5.954-4.827-10.781-10.781-10.781-5.955 0-10.781 4.827-10.781 10.781 0 5.955-4.827 10.781-10.782 10.781h39.028v-10.781h-6.684z" fill="#9BADB5"/>
        <path fill-rule="evenodd" clip-rule="evenodd" d="M134.873 245.381V234.6c0 13.457 10.909 24.366 24.366 24.366H224.357l-.878-.036c-5.543-.447-9.903-5.087-9.903-10.746v10.782c0-13.457-10.909-24.366-24.365-24.366h-65.119l.877.035c5.544.446 9.904 5.087 9.904 10.746z" fill="#fff"/>
        <path fill-rule="evenodd" clip-rule="evenodd" d="M175.626 259.181c5.954 0 10.781-4.827 10.781-10.781h89.269c0 5.954-4.827 10.781-10.781 10.781h-89.269z" fill="url(#3cfld3klcc)"/>
        <path fill="#C8D8D8" d="M99.727 90.131h50.672v1.294H99.727zM99.835 80.212h35.578v1.294H99.835zM99.403 70.294h35.578l.216 1.293H99.619l-.216-1.293zM99.727 109.969h22.532v1.294H99.727v-1.294zM99.727 119.887h33.961v1.294H99.727v-1.294zM99.727 129.806h19.514v1.294H99.727v-1.294zM99.727 139.725h50.672v1.294H99.727zM99.727 149.644h50.672v1.294H99.727zM99.727 167.109h50.672v1.294H99.727zM99.727 177.028h23.287v1.294H99.727v-1.294zM99.727 196.866h50.672v1.294H99.727zM99.727 206.784h31.266v1.294H99.727zM141.558 238.266h59.943l1.725 1.293h-59.943l-1.725-1.293zM186.3 249.909h-42.478l-.324 1.294h42.586l.216-1.294zM99.727 216.703h21.131v1.294H99.727zM99.727 226.622h50.672v1.294H99.727zM99.727 238.266h16.279l-.97 1.293h-15.31v-1.293z"/>
        <ellipse cx="239.049" cy="120.41" rx="9.282" ry="11.602" transform="rotate(31.852 239.049 120.41)" fill="#ECB96D"/>
        <path d="M238.022 138.858c1.231-3.302-.206-6.32-1.078-7.415l5.926-1.988c.123 5.565 2.041 11.51 8.817 12.16 0 4.116-2.32 17.078-10.024 17.635-6.096.441-11.102-16.158-10.025-17.635.847-.179 5.152.546 6.384-2.757z" fill="#ECB96D"/>
        <ellipse cx="91.578" cy="126.339" rx="9.282" ry="11.602" transform="rotate(-16.724 91.578 126.339)" fill="#ECB96D"/>
        <path d="M84.741 145.87c3.364-1.638 3.127-7.511 2.588-10.242h7.87c-.395 2.372-.985 8.253 1.94 10.242 2.696 1.833 6.685 2.588 8.841 3.019-.898 4.528-4.356 12.916-8.41 14.124-4.053 1.207-15.524-8.59-20.591-14.124 1.078 0 4.398-1.38 7.762-3.019zM233.647 292.48c.302-.519-.127-3.987-.379-5.656h4.731c-.379 1.113-.316 4.265 0 5.656l3.027 8.531c.158 1.206-.038 3.709-2.081 4.08-2.555.464-6.718-1.854-7.096-2.503-.379-.649 1.419-9.459 1.798-10.108zM243.81 274.788l3.272-5.214 4.02 2.607-2.431 4.283 3.179 12.756c-.374.28-1.253.838-1.777.838-.523 0-2.524-3.414-3.459-5.121-1.807-2.203-5.403-6.853-5.329-7.821.075-.968 1.714-1.955 2.525-2.328z" fill="#ECB96D"/>
        <path d="m232.828 300.404 1.011-7.974c-2.722 8.233-2.084 12.084-1.655 13.629.368.835 2.299 4.08 5.058 4.265 2.111.142 4.537-5.501 3.955-8.622l-3.403-9.272c.766 2.658 2.152 8.326 1.563 9.735-.735 1.762-3.494 1.206-4.69.928-.956-.223-1.625-1.886-1.839-2.689zM251.419 288.722c-2.156.172-7.08-8.553-9.272-12.938-2.674.777-3.055 3.127-2.911 4.205 3.306 5.103 10.199 15.525 11.32 16.388 1.402 1.078 2.264-.432 2.588-1.079.259-.517-.827-4.6-1.402-6.576h-.323zM259.484 114.597c-4.901-2.005-9.406-.835-11.046 0 .995.349.279 1.671.279 1.671 2.97 4.369 2.592 6.546 2.32 10.588-.649 9.653 7.797 11.417 12.902 10.674-3.898-.649-4.238-4.455-3.527-5.662 5.941-8.446 4.084-15.221-.928-17.271z" fill="#13284B"/>
        <path d="M259.298 112.562c-4.667-2.501-9.312-1.578-10.952-.743.994.349.557 2.042.557 2.042 8.557 4.4 5.284 9.689 5.012 13.731-.65 9.653 8.416 9.901 10.396 9.653-1.393-.457-3.992-3.056-2.878-5.933 4.363-9.839 3.063-15.966-2.135-18.75zM234.887 108.386c1.798-1.116 6.394-1.669 8.8 0-.7 5.677-6.437 8.011-9.218 8.468l-4.118-2.823c.003-1.316 2.18-4.466 4.536-5.645z" fill="#223A5A"/>
        <path d="M235.443 117.438c3.724-1.02 6.538-6.571 6.982-9.517 5.717 4.283 1.551 9.829-1.247 12.066l-5.735-2.549z" fill="#223A5A"/>
        <path d="M241.198 121.501c4.693-1.148 1.118-10.265 1.676-13.58 9.951 2.008 9.74 14.189 6.214 16.707l-7.89-3.127z" fill="#223A5A"/>
        <path d="M242.962 129.455c-5.792-2.97-1.856-9.344.557-12.345 1.708-2.765 4.734-3.565 6.034-3.62.464.402 2.005 1.559 1.485 7.054-.52 5.495-6.034 8.447-8.076 8.911z" fill="#223A5A"/>
        <path d="M239.435 122.586c-4.232-1.114-2.197-4.486-.65-6.033 4.604-1.856 5.26 1.269 5.013 3.063-2.451-1.04-3.93 1.547-4.363 2.97z" fill="#223A5A"/>
        <path d="M243.09 123.934c-.925 1.881-2.728 2.889-4.028 2.25-1.3-.639-.683-1.433-.214-2.816.794-2.341 2.262-4.636 3.562-3.997 1.3.639 1.604 2.682.68 4.563zM199.045 168.287c24.293 5.335 33.114-12.588 34.488-22.216-5.16-7.614-11.093-2.808-13.415.546-2.328 4.159-9.078 12.438-17.457 12.285-8.379-.153-17.256-8.564-20.647-12.75l-3.724 4.396c2.145 9.89 14.552 16.836 20.755 17.739z" fill="#ECB96D"/>
        <path d="M182.003 155.982c-4.914-.265-10.967-7.568-12.456-10.442-1.212-3.272.802-5.512 4.018-5.7 2.574-.151 6.17 4.869 7.647 7.397l.765-1.389c.22-.656-.878-3.636-.329-4.832.55-1.195.422-.532 1.091-.404l3.609 5.497-1.995 4.681c.648 1.345 2.564 5.457-2.35 5.192zM267.201 152.739c-3.881-8.399-8.74-10.21-10.685-10.065-7.661.815.336 14.736 1.695 17.859 1.087 2.498 11.751 27.816 17.555 41.42l6.589-3.874c-5.238-4.484-10.304-34.841-15.154-45.34z" fill="#ECB96D"/>
        <path d="m273.209 196.345 2.76-3.188c2.542-1.51 7.125 4.838 8.251 6.045.999 2.503 1.872 5.609.246 9.081-1.625 3.472-4.727 3.886-6.134 3.759l-3.601-1.391 5.5-3.572-1.565-5.061-2.156.79-.844 6.411c-.77-.519-1.699-1.258-2.246-2.97-.546-1.712-.024-8.151-.211-9.904z" fill="#ECB96D"/>
        <path d="M263.939 228.865c-6.618-9.22-16.184-23.804-19.77-31.094-.802-12.93 18.678-13.156 20.977-8.725 2.299 4.43 13.705 24.886 15.236 35.129 1.095 7.319-.372 9.846-2.241 10.816-1.87.971-7.15 3.698-14.202-6.126z" fill="#223A5A"/>
        <path d="M246.092 270.089c5.936-24.136 17.491-37.939 23.109-43.969 6.125-3.334 9.94 2.455 11.083 5.766-3.192 13.006-21.46 32.945-29.315 41.426-2.33-.005-4.727-2.049-4.877-3.223zM225.254 225.556c-1.628-11.233-.175-27.15 0-35.273 5.244-11.845 19.721-1.643 19.721 3.349s1.44 24.998-1.919 34.795c-2.4 7.001-5.117 9.628-8.155 9.628-3.039 0-7.912-.532-9.647-12.499z" fill="#223A5A"/>
        <path d="M232.659 288.103c-8.354-23.409-6.322-41.295-4.959-49.424 3.272-6.157 9.647-3.431 12.425-1.298 4.507 12.611.257 39.317-1.621 50.722-1.947 1.281-5.074.897-5.845 0z" fill="#223A5A"/>
        <path d="M227.593 242.458c-.134-6.246-.888-9.857-1.618-13.141 1.686-6.097 12.831-9.042 18.564-7.493-1.18 5.763-1.503 6.364-2.227 10.104-.342 1.764-1.041 8.113-.929 10.53-6.137 3.792-10.867 1.58-13.79 0zM224.896 198.579v-5.186l41.616-1.918 2.803 5.391c-4.672 2.486-14.878 6.956-21.778 6.899-6.9-.057-17.969-3.481-22.641-5.186z" fill="#223A5A"/>
        <path d="M233.091 140.512c2.104 3.433 4.528 10.318 6.684 11.719 3.342-2.695 7.537-11.844 7.983-12.463 1.671.464 5.55 1.207 7.333 1.703 2.507.697 4.611.336 5.756 1.084-.322 4.711-3.034 8.247-2.636 14.743.406 6.634 4.947 16.21 9.919 33.422-7.979 5.499-24.757 12.401-46.145 3.235l4.205-36.657c.057-7.962-2.432-12.331-2.938-15.39 1.578.129 6.646-.343 9.839-1.396z" fill="#4AA6B5"/>
        <path d="m168.479 120.283-3.197 1.362 4.428 11.543c-.662 2.702.508 5.957 1.175 7.246l6.887 15.439 8.425-3.588a6099.91 6099.91 0 0 0-7.277-15.937c-1.929-4.196-3.935-5.137-4.697-5.083l-5.744-10.982z" fill="#385378"/>
        <path d="M79.35 118.378c1.95-1.645 2.911-.976 4.456-1.479 4.96-1.186 9.811 2.264 5.175 3.126-3.708.69-2.91 3.564-1.868 6.116l.36 7.546c-.36.216-.015 1.997-2.085 1.48-2.07-.518-3.127-.401-5.175-3.959-4.313-2.415-2.84-7.547-2.48-8.841 0-1.94.431-2.989 1.617-3.989z" fill="#223A5A"/>
        <path d="M79.781 119.78c.54-3.163 3.235-6.146 8.84-6.146 6.754 0 8.322 5.862 8.775 7.158l.067.174a2.356 2.356 0 0 1-.067-.174c-5.026-4.378-17.615-.581-17.615-1.012z" fill="#223A5A"/>
        <path d="M84.905 116.868c1.524-2.823 5.034-4.784 10.344-2.987 6.397 2.166 6.002 8.22 6.016 9.593l.007.186a2.731 2.731 0 0 1-.007-.186c-3.357-5.759-16.499-6.198-16.36-6.606zM79.984 119.713c1.458-1.829 4.23-2.782 7.808-.807 4.31 2.38 3.246 6.674 3.078 7.661l-.019.134c.003-.033.01-.078.019-.134-1.665-4.566-11.038-6.579-10.886-6.854z" fill="#223A5A"/>
        <path d="M81.125 119.518c2.093-1.047 5.008-.747 7.425 2.55 2.91 3.971.14 7.419-.427 8.244l-.074.114c.017-.029.042-.067.073-.114.409-4.842-7.25-10.609-6.997-10.794z" fill="#223A5A"/>
        <path d="M80.093 120.642c1.35-2.91 4.735-5.08 10.144-3.607 6.516 1.775 6.489 7.842 6.585 9.212l.019.185a2.23 2.23 0 0 1-.019-.185c-3.699-5.545-16.843-5.189-16.73-5.605z" fill="#223A5A"/>
        <path d="M87.287 129.266c.849 1.774 1.571 3.54.414 4.094-1.158.554-3.756-.314-4.605-2.089-.85-1.774-1.665-3.839.29-4.775 1.158-.553 3.052.995 3.9 2.77zM130.881 151.165c-11.257 5.498-22.426.109-26.604-3.273-6.1.227-3.544 12.921-4.802 12.21 24.654 14.454 44.41-3.768 51.205-14.686l-3.549-3.768c-.727.881-4.993 4.019-16.25 9.517z" fill="#ECB96D"/>
        <path d="M144.404 152.013c4.9.446 10.361-3.297 12.248-5.927 1.671-3.063 1.582-8.181-1.574-8.831-2.525-.52-6.807 3.929-8.633 6.219l-.556-1.485c-.124-.681 1.392-3.472 1.021-4.734-.372-1.262-.341-.588-1.021-.557l-4.363 4.92 1.3 4.919c-.836 1.238-3.323 5.031 1.578 5.476z" fill="#ECB96D"/>
        <path fill-rule="evenodd" clip-rule="evenodd" d="M41.69 197.761a.323.323 0 0 1 .432.149c3.292 6.764 9.471 26.815 9.667 51.134a.323.323 0 1 1-.647.005c-.195-24.233-6.356-44.187-9.602-50.856a.323.323 0 0 1 .15-.432z" fill="#D9C7A5"/>
        <path d="M41.747 188.926c4.23 4.639 1.817 7.872 0 10.213-7.017-2.549-5.925-9.053-4.89-13.248-.05-.017-.052-.022.005-.022l-.006.022c.326.106 2.727.662 4.89 3.035zM35.61 200.212c5.694 0 6.691 2.116 7.538 4.749-5.665 4.15-10.722-.576-12.542-3.458-.266 0 .763-1.291 5.004-1.291zM38.608 210.973c5.705 0 8.083 3.083 9.057 6.115-7.127 3.126-12.345-.663-14.441-3.982-1.547-1.197-.071-2.133 5.384-2.133zM39.4 223.342c5.142-.787 8.102 1.388 9.783 3.717-4.615 4.781-11.304 1.164-14.072-1.242-1.711-.759-.629-1.723 4.29-2.475zM41.834 233.973c3.263-2.314 5.92-1.59 7.752-.324-1.721 5.264-7.34 4.645-9.934 3.677-1.389-.029-.938-1.14 2.182-3.353zM58.145 232.588c-3.658.294-5.62 2.098-6.676 3.802 3.503 2.27 8.01-.998 9.824-2.916 1.163-.733.35-1.167-3.148-.886zM52.43 202.423c-1.452 4.374-4.422 5.413-6.995 5.388-.577-5.146 3.651-9.297 6.73-10.06 1.312-.881 1.654.488.265 4.672zM57.56 213.46c-2.645 5.054-6.479 5.731-9.617 5.189.32-6.401 6.312-10.63 10.224-10.948 1.779-.816 1.923.925-.607 5.759zM59.426 226.29c-2.304 4.402-5.643 4.991-8.377 4.519.28-5.575 5.498-9.259 8.906-9.536 1.549-.71 1.675.807-.529 5.017z" fill="#D9C7A5"/>
        <path d="m161.157 114.287-3.284-1.137-4.465 11.529c-2.304 1.559-3.621 4.757-3.991 6.161l-5.257 16.068 8.654 2.994c1.19-3.731 3.916-12.293 5.302-16.698 1.385-4.406.529-6.45-.072-6.921l3.113-11.996z" fill="#385378"/>
        <path d="m40.373 249.282 16.497-6.621 3.022 8.279-17.713 6.164-.04 9.405-3.06-.947c-3.806-4.819-3.508-12.288-2.883-15.42l4.177-.86z" fill="#ECB96D"/>
        <path d="m38.597 249.361 1.176.649-2.847 1.445c.469 9.946 3.303 12.956 5.243 12.555.717 3.193 2.072 10.07 1.767 12.035-.306 1.964-2.347 1.516-3.33 1.047-1.425-.86-4.39-2.896-4.85-4.164-.46-1.268-3.855-13.653-5.64-19.899l8.481-3.668z" fill="#13284B"/>
        <path d="m107.597 294.113 1.833-17.682 8.733 1.186-2.803 18.544 8.301 4.42-2.264 2.264c-6.037 1.122-12.506-2.623-14.986-4.636l1.186-4.096z" fill="#ECB96D"/>
        <path d="m106.597 293.309 1.202-.598-.429 3.163c8.45 5.267 12.537 4.646 13.31 2.822 3.034 1.225 9.463 4.018 10.906 5.386 1.443 1.368-.086 2.793-1.03 3.335-1.518.684-4.878 1.966-6.183 1.624-1.305-.342-13.425-4.588-19.579-6.669l1.803-9.063z" fill="#13284B"/>
        <path d="M128.375 231.88c-1.777-2.702-13.853-24.338-19.67-34.819-.48-.281-11.678-1.4-17.217-1.924-.285-.032-.72 1.949-.182 10.126.673 10.222 26.547 37.579 30.186 37.227 3.638-.352 9.105-7.232 6.883-10.61z" fill="#F9FDFD"/>
        <path d="M103.252 234.574c-.987-2.994-6.8-26.519-9.583-37.908-.39-.373-10.959-3.789-16.194-5.451-.268-.09-1.233 1.743-2.946 9.796-2.14 10.067 15.507 42.019 19.137 42.434 3.63.415 10.82-5.129 9.586-8.871z" fill="#fff"/>
        <path d="M129.434 237.448c-.222-.851-.434-4.424-1.009-4.784-11.946-5.577-13.413.772-17.12 4.734-2.966 3.17-4.203 32.181-4.451 46.29l10.811 3.491c4.347-17.103 11.992-48.88 11.769-49.731z" fill="#F9FDFD"/>
        <path d="M98.314 241.904c.619-.625 3.584-2.631 3.601-3.309-1.296-13.12-7.505-11.143-12.804-12.311-4.239-.935-29.824 12.797-42.087 19.779l2.51 11.08c16.929-4.983 48.161-14.614 48.78-15.239z" fill="#fff"/>
        <path d="M92.934 157.622c-4.313-1.639-9.631-7.655-11.752-10.458l-9.38 2.156c0 3.666.389 13.153 1.941 21.778 1.553 8.625-.646 22.569-1.94 28.463 1.078 0 4.161.302 7.87 1.509 4.636 1.51 25.228-.754 28.894-1.509 2.932-.604 3.881-2.695 3.989-3.666-8.302-10.35-.97-46.79-2.264-46.575-1.035.173-6.325-1.365-8.841-2.156-1.042 4.169-4.204 12.097-8.517 10.458z" fill="#567196"/>
        <path d="M115.791 152.555c-.431-.432-3.881-2.372-5.606-3.127l-1.402 17.25 3.666-.97c1.294-4.205 3.773-12.722 3.342-13.153z" fill="#567196"/>
        <path d="M65.815 161.828c.258-5.261 4.276-10.458 7.223-11.967 5.779-1.725 6.577 7.259 6.253 11.967l-2.803 17.466c-1.15 3.557-4.894 10.285-10.673 8.732-7.224-1.94-.324-19.621 0-26.198z" fill="#ECB96D"/>
        <path d="m78.487 169.158-14.015-9.272 3.989-8.302 3.126-2.156c1.467-1.212 6.47-.505 7.763 0l1.833 5.606-2.696 14.124z" fill="#567196"/>
        <path d="M68.505 191.198c-5.865-.69-6.325-6.541-5.821-9.38 8.257-4.035 19.254 0 29.82 0v5.499c-7.26 1.581-18.134 4.571-23.999 3.881z" fill="#ECB96D"/>
        <path d="M107.92 188.887c-3.795 1.467-12.003-.61-15.633-1.832v-5.283l8.625 1.94h14.339c-.862 1.115-3.536 3.709-7.331 5.175z" fill="#ECB96D"/>
        <ellipse cx="110.292" cy="183.497" rx="15.417" ry="4.744" fill="#fff"/>
        <ellipse cx="109.106" cy="181.125" rx="3.234" ry="1.294" fill="#E9C16C"/>
        <ellipse cx="104.362" cy="184.359" rx="3.234" ry="1.294" fill="#E9C16C"/>
        <ellipse cx="105.656" cy="182.635" rx="3.234" ry="1.294" fill="#E9C16C"/>
        <path d="M112.341 180.37c0 .715-1.448 1.833-3.235 1.833-1.786 0-3.234-1.118-3.234-1.833 0-.714 1.448-.754 3.234-.754 1.787 0 3.235.04 3.235.754z" fill="#D9C24D"/>
        <path d="M107.597 183.605c0 .714-1.448 1.833-3.235 1.833-1.786 0-3.234-1.119-3.234-1.833 0-.715 1.448-.755 3.234-.755 1.787 0 3.235.04 3.235.755z" fill="#F2D384"/>
        <path d="M108.891 181.88c0 .714-1.448 1.833-3.235 1.833-1.786 0-3.234-1.119-3.234-1.833 0-.715 1.448-.755 3.234-.755 1.787 0 3.235.04 3.235.755z" fill="#EFDF89"/>
        <ellipse cx="111.485" cy="184.575" rx="3.234" ry="1.294" transform="rotate(-4.132 111.485 184.575)" fill="#E9C16C"/>
        <ellipse cx="116.319" cy="183.717" rx="3.234" ry="1.294" transform="rotate(-4.132 116.319 183.717)" fill="#E9C16C"/>
        <path d="M114.66 183.598c.049.713-1.318 1.929-3.1 2.052-1.782.124-3.304-.892-3.354-1.604-.049-.713 1.393-.853 3.175-.977 1.782-.123 3.229-.183 3.279.529z" fill="#F5E27C"/>
        <path d="M119.493 182.741c.049.712-1.318 1.928-3.1 2.052-1.782.123-3.304-.892-3.354-1.605-.049-.713 1.393-.853 3.175-.977 1.782-.123 3.229-.183 3.279.53z" fill="#F7E587"/>
        <ellipse cx="113.731" cy="181.992" rx="3.234" ry="1.294" transform="rotate(-4.132 113.731 181.992)" fill="#E9C16C"/>
        <path d="M116.905 181.015c.049.713-1.318 1.929-3.1 2.052-1.782.124-3.304-.892-3.353-1.604-.05-.713 1.392-.853 3.174-.977 1.782-.123 3.229-.183 3.279.529z" fill="#F5E27C"/>
        <ellipse cx="111.693" cy="183.281" rx="3.234" ry="1.294" fill="#E9C16C"/>
        <path d="M114.928 182.527c0 .714-1.448 1.832-3.235 1.832-1.786 0-3.234-1.118-3.234-1.832 0-.715 1.448-.755 3.234-.755 1.787 0 3.235.04 3.235.755z" fill="#FFF4BC"/>
        <path d="M168.433 289.486c3.697 10.306-1.66 21.658-11.966 25.356-10.306 3.697-21.658-1.66-25.356-11.966-3.697-10.306 1.66-21.658 11.966-25.356 10.306-3.697 21.658 1.66 25.356 11.966z" fill="url(#rgv01jydwd)"/>
        <path fill-rule="evenodd" clip-rule="evenodd" d="M144.525 294.112a2.162 2.162 0 1 0-.357-4.312 2.163 2.163 0 0 0 .357 4.312zm.124 1.498a3.666 3.666 0 1 0-.605-7.308 3.667 3.667 0 0 0 .605 7.308zM155.302 303.239a2.163 2.163 0 1 0-.357-4.31 2.163 2.163 0 0 0 .357 4.31zm.124 1.499a3.667 3.667 0 1 0-.607-7.31 3.667 3.667 0 0 0 .607 7.31zM141.674 304.874l14.974-17.68 1.148.972-14.974 17.68-1.148-.972z" fill="#fff"/>
        <path d="M336.001 184.452c2.788 9.578-2.717 19.603-12.295 22.39-9.578 2.788-19.603-2.717-22.39-12.295-2.788-9.579 2.717-19.603 12.295-22.39 9.578-2.788 19.603 2.717 22.39 12.295z" fill="url(#6h1rg79jpe)"/>
        <path fill-rule="evenodd" clip-rule="evenodd" d="m326.779 186.344-15.38 8.446-1.038-1.89 15.38-8.446 1.038 1.89z" fill="#fff"/>
        <path fill-rule="evenodd" clip-rule="evenodd" d="m315.292 181.413 8.446 15.38-1.89 1.038-8.446-15.38 1.89-1.038z" fill="#fff"/>
        <ellipse cx="264.128" cy="51.714" rx="9.811" ry="8.841" transform="rotate(8.299 264.128 51.714)" fill="#FAF0DE"/>
        <path d="M262.01 35.362a2.483 2.483 0 1 1 4.677 1.66l-3.257 8.126a2.13 2.13 0 0 1-4.013-1.424l2.593-8.362zM270.549 37.84a2.483 2.483 0 1 1 4.676 1.66l-3.257 8.126a2.13 2.13 0 0 1-4.013-1.424l2.594-8.361z" fill="#FAF0DE"/>
        <path d="M188.477 228.985c-2.695-7.913 2.333-11.064 5.246-11.268 7.393-.518 10.34 4.313 10.693 8.786.229 2.9-1.679 4.176-2.759 4.547-.897.307.181 1.833-1.516 3.965-1.582 1.987-11.486-.765-16.643-2.27-5.157-1.504-4.771-2.828-4.159-3.799.613-.971 2.288-2.098 4.866-.879 3.244 1.533 4.066.966 4.272.918z" fill="#F2F4F4"/>
        <path d="M182.829 233.563c-13.789.087-13.43-17.717-11.527-26.629l20.36-14.339c4.345 1.402 13.333 9.532 14.367 20.658 1.292 13.908-5.964 20.203-23.2 20.31z" fill="#fff"/>
        <rect width="8.953" height="16.093" rx="2" transform="matrix(.97901 -.20381 .3017 .9534 151.928 190.496)" fill="#4AA6B5"/>
        <path fill="#B1DEDC" d="m154.222 192.534 5.671-1.18.934 2.95-5.671 1.18z"/>
        <path fill="#567196" d="m155.715 197.255 1.547-.322.373 1.18-1.546.322zM156.464 199.616l1.547-.322.373 1.18-1.546.322zM157.27 202.179l1.547-.322.373 1.18-1.546.322zM157.776 196.826l1.547-.322.373 1.18-1.546.322zM158.524 199.186l1.547-.322.373 1.18-1.546.322zM159.84 196.397l1.547-.322.373 1.18-1.546.322zM160.586 198.757l1.547-.322.373 1.18-1.546.322z"/>
        <path fill="#EDA572" d="m159.399 201.745 3.543-.738.374 1.18-3.543.738z"/>
        <path d="m151.417 191.682.639-.9 4.983 14.847-.996-.16-4.626-13.787z" fill="#567196"/>
        <path d="M199.311 217.95c-9.101 10.536-19.173 3.345-24.309-1.09-5.136-4.436-9.051-15.749-3.128-22.607 5.924-6.859 18.167-2.869 22.598.064 9.111 6.032 10.762 16.775 4.839 23.633z" fill="url(#q5xj46hr6f)"/>
        <path d="M176.228 200.933c-6.314 2.578-13.011-2.576-15.469-8.597-4.451-10.903 1.103-13.296 7.749-13.691 6.286-.374 11.454 1.018 13.912 7.04 2.459 6.021.122 12.67-6.192 15.248z" fill="#fff"/>
        <ellipse cx="167.976" cy="191.204" rx="1.795" ry="1.415" transform="rotate(57.264 167.976 191.204)" fill="#D96459"/>
        <path d="M187.506 191.288c-3.077-1.283-2.733-2.519-4.103-5.386-1.75 3.333-10.234 11.897-14.875 14.362 2.246 1.026-.495 3.305.769 4.872 5.643 8.72 14.458-8.203 18.209-13.848z" fill="#fff"/>
        <path d="M201.037 200.833c-2.882-5.379-8.919-8.449-11.578-9.311l-.515-.258-17.752 9.569c-.601 1.811-1.493 6.828-1.287 7.242.206.414 1.287 3.276 1.801 4.656h29.331c-.046-4.049-.109-12.096 0-11.898z" fill="#CFDFE2"/>
        <path d="M171.227 230.105c-2.695-7.913 2.333-11.064 5.246-11.268 7.393-.518 10.34 4.313 10.693 8.786.229 2.9-1.679 4.176-2.759 4.547-.897.307.181 1.833-1.516 3.965-1.582 1.987-11.486-.765-16.643-2.27-5.157-1.504-4.771-2.828-4.159-3.799.613-.971 2.288-2.098 4.866-.879 3.244 1.533 4.066.966 4.272.918z" fill="#fff"/>
        <path d="M205.921 208.437c-1.833-6.786-13.71-16.045-16.351-16.913l-.512-.26-14.403 11.423c-1.022.781-3.358 1.071-4.636 2.113-2.358 16.502 4.36 25.871 8.086 26.673 15.439 4.14 25.336-6.297 28.355-12.033.814-1.939.394-7.547-.539-11.003z" fill="url(#qk1xq0w8hg)"/>
        <path d="m167.798 210.673 1.196-6.945h2.266v6.945l-.503 2.058-2.959-2.058z" fill="#223A5A"/>
        <path d="M170.764 202.184c-.552 0-1.458-.355-1.841-.533-.608 1.066-.465 2.133-.235 2.932.737.427 2.072.8 2.532.267.077-.711.097-2.666-.456-2.666z" fill="#223A5A"/>
        <path d="M185.689 190.594c-2.249 4.011-8.992 8.774-14.985 11.782-.307.2 0 1.755 0 1.253 8.741-2.256 13.855-9.677 14.985-10.528.999-.752 1.498-1.504 1.498-1.755-.499-.25-.499-.251-.749-.501-.177-.177-.583-.334-.749-.251z" fill="#223A5A"/>
        <path d="M172.311 199.66c4.454-.831 10.628-6.752 12.905-10.388.326-.519 3.037 1.453 4.049 2.337-.759 1.039-8.018 10.863-18.814 14.097v-3.342l.848-1.406c-.253-.779.81-1.506 1.012-1.298z" fill="#E8F1F3"/>
        <path d="M158.749 203.297c2.028-2.282 3.429 2.351 11.899 4.262 5.199 2.085 5.404 7.007 1.25 8.308-5.882 1.841-15.874-9.505-13.149-12.57z" fill="#fff"/>
        <ellipse cx="200.962" cy="226.645" rx="4.36" ry="4.103" transform="rotate(13.058 200.962 226.645)" fill="#fff"/>
        <path d="M189.214 206.737c-5.246-10.772-15.464-13.011-20.118-12.554l.42 5.82c4.166-.873 8.914 3.54 10.809 10.367 2.78 10.013 6.334 15.305 9.123 14.393 2.789-.912 4.24-8.84-.234-18.026zM200.427 198.112c-5.247-10.772-15.464-13.011-20.118-12.554l.42 5.82c4.166-.873 8.914 3.54 10.809 10.367 2.78 10.013 6.333 15.305 9.123 14.393 2.789-.912 4.24-8.84-.234-18.026z" fill="#fff"/>
        <path d="M184.719 209.076c-1.991-4.295-4.921-6.631-6.76-7.538.052.331-.144.743-.144.743 2.494 3.374 4.404 6.077 5.627 8.953 2.86 6.724 3.529 8.943 3.529 8.943.391-.824-.01-6.264-2.252-11.101z" fill="url(#0755uipe8h)"/>
    </g>
    <defs>
        <linearGradient id="6nagxc0rzb" x1="160.209" y1="61.022" x2="101.667" y2="254.006" gradientUnits="userSpaceOnUse">
            <stop stop-color="#fff"/>
            <stop offset=".594" stop-color="#E4EBEB"/>
        </linearGradient>
        <linearGradient id="3cfld3klcc" x1="189.642" y1="253.791" x2="261.014" y2="259.181" gradientUnits="userSpaceOnUse">
            <stop stop-color="#9BADB5"/>
            <stop offset="1" stop-color="#B7CDD0"/>
        </linearGradient>
        <linearGradient id="rgv01jydwd" x1="162.833" y1="277.248" x2="137.442" y2="315.002" gradientUnits="userSpaceOnUse">
            <stop stop-color="#59BCCC"/>
            <stop offset="1" stop-color="#40B3C6"/>
        </linearGradient>
        <linearGradient id="6h1rg79jpe" x1="305.539" y1="206.103" x2="332.777" y2="177.527" gradientUnits="userSpaceOnUse">
            <stop stop-color="#5EB1BE"/>
            <stop offset="1" stop-color="#75CAD8"/>
        </linearGradient>
        <linearGradient id="q5xj46hr6f" x1="191.164" y1="224.08" x2="183.326" y2="192.188" gradientUnits="userSpaceOnUse">
            <stop offset=".016" stop-color="#F6F4F1"/>
            <stop offset="1" stop-color="#fff"/>
        </linearGradient>
        <linearGradient id="qk1xq0w8hg" x1="185.736" y1="190.743" x2="191.556" y2="213.6" gradientUnits="userSpaceOnUse">
            <stop offset=".048" stop-color="#668EAB"/>
            <stop offset=".872" stop-color="#2C5663"/>
        </linearGradient>
        <linearGradient id="0755uipe8h" x1="177.62" y1="202.693" x2="187.49" y2="221.689" gradientUnits="userSpaceOnUse">
            <stop offset=".031" stop-color="#FEC2C2"/>
            <stop offset=".552" stop-color="#FCD5D5"/>
            <stop offset="1" stop-color="#FAAFAF" stop-opacity=".12"/>
        </linearGradient>
        <clipPath id="n9242dseja">
            <path fill="#fff" d="M0 0h345v329.691H0z"/>
        </clipPath>
    </defs>
</svg>
