<svg width="121" height="100" viewBox="0 0 121 100" fill="none" xmlns="http://www.w3.org/2000/svg">
    <path fill-rule="evenodd" clip-rule="evenodd" d="M42.5 30a6 6 0 0 1 6-6h26a6 6 0 0 1 6 6v29.5h-4V30a2 2 0 0 0-2-2h-26a2 2 0 0 0-2 2v6.833h-4V30zm4 46v-7.1h-4V80H67v-4H46.5zM40.071 57.029V62L52.5 53.169 40.071 42.943v5.8H23.5v8.286h16.571z" fill="#4AA6B5"/>
    <path fill-rule="evenodd" clip-rule="evenodd" d="M94.5 74c0 7.18-5.82 13-13 13-3.06 0-5.874-1.057-8.094-2.827l17.85-18.765A12.95 12.95 0 0 1 94.5 74zm-23.212 8.046 17.738-18.647A12.94 12.94 0 0 0 81.5 61c-7.18 0-13 5.82-13 13 0 3.038 1.042 5.833 2.788 8.046zM97.5 74c0 8.837-7.163 16-16 16s-16-7.163-16-16 7.163-16 16-16 16 7.163 16 16z" fill="#385378"/>
</svg>
