<svg width="345" height="330" viewBox="0 0 345 330" fill="none" xmlns="http://www.w3.org/2000/svg">
    <ellipse cx="269.639" cy="112.986" rx="24.473" ry="24.496" fill="#FCF5E8"/>
    <path d="M336.299 268.593c16.705-17.203-15.715-35.097-10.765-40.535 21.53-73.359-30.316-56.156-44.917-74.842-14.601-18.685-17.333-49.835-79.433-49.835-59.561 0-79.695 61.502-93.43 59.228-13.735-2.274-48.753 21.75-55.559 51.41-6.805 29.66-38.111 14.039-40.09 31.242-1.98 17.202 95.649 56.034 153.178 29.271 23.687-11.019 154.311 11.264 171.016-5.939z" fill="#F9EBD1"/>
    <path d="M14.53 260.938c-16.708-18.563 15.718-37.873 10.768-43.741-21.535-79.159 30.321-60.596 44.925-80.759 14.604-20.164 17.336-53.776 79.448-53.776 59.573 0 43.96 63.911 93.449 63.911 13.954 0 48.762 23.47 55.569 55.475 6.807 32.005 23.511 29.496 21.575 48.064-3.559 34.119-77.144 46.113-134.684 17.235-23.692-11.891-154.342 12.154-171.05-6.409z" fill="#F1E0BF"/>
    <path d="M148.747 251.838c-51.272-1.61-100.365 1.005-117.228 6.656-13.964 5.078-5.99 7.599-.258 8.225 19.685.618 58.445 2.223 56.007 3.7-3.047 1.845-67.472 5.044-72.012 8.182-4.54 3.137 106.692.069 76.843 3.951-23.88 3.106-13.552 5.376-5.403 6.123 54.378 2.086 165.058 4.833 172.754-.869 9.62-7.129-101.383-3.183-96.454-7.848 4.93-4.665 125.549-1.949 163.029-6.73 37.48-4.781-90.05-5.036-98.908-8.594-8.858-3.558 44.803 1.406 43.146-5.674-1.657-7.081-57.426-5.111-121.516-7.122z" fill="#E3D0AB" fill-opacity=".7"/>
    <path d="M181.948 275.23c38.128-1.516 74.723 1.649 87.391 8.016 10.499 5.715 4.616 8.474.363 9.139-14.639.582-43.455 2.159-41.61 3.812 2.307 2.066 50.324 5.962 53.769 9.471 3.444 3.51-79.409-.489-57.112 3.982 17.838 3.577 10.198 6.044 4.148 6.83-40.43 2.029-122.752 4.493-128.598-1.882-7.309-7.97 75.393-2.998 71.627-8.206-3.766-5.208-115.338-3.817-121.92-5.113-6.584-1.296 67.358-8.345 73.877-12.25 6.519-3.906-33.318 1.324-32.231-6.532 1.086-7.857 42.635-5.373 90.296-7.267z" fill="#E3D0AB" fill-opacity=".5"/>
    <path fill-rule="evenodd" clip-rule="evenodd" d="M192.684 107.536a.348.348 0 0 0-.482.095c-.298.445-.673 1.201-1.112 2.208a89.72 89.72 0 0 0-1.534 3.822c-1.157 3.044-2.569 7.039-4.157 11.681-3.175 9.284-7.053 21.169-10.985 33.242l-.703 2.161c-3.702 11.368-7.416 22.777-10.605 32.224-3.394 10.056-6.183 17.861-7.724 21.039a.347.347 0 1 0 .624.303c1.564-3.226 4.369-11.081 7.757-21.12 3.19-9.451 6.906-20.863 10.607-32.23l.704-2.161c3.932-12.075 7.809-23.955 10.982-33.234 1.586-4.639 2.996-8.625 4.148-11.658a88.136 88.136 0 0 1 1.522-3.791c.438-1.006.792-1.711 1.053-2.099a.348.348 0 0 0-.095-.482z" fill="#E3D1AD"/>
    <path d="M198.548 112.699c-6.063-.842-7.438 1.266-8.728 3.947 5.419 5.261 11.502.971 13.866-1.831.283.039-.622-1.489-5.138-2.116zM196.199 121.038c-5.433-.754-8.106 1.87-9.434 4.632 6.375 3.923 11.846 1 14.28-1.886 1.632-.937.35-2.024-4.846-2.746zM192.695 132.238c-5.359-1.599-8.832.282-10.966 2.515 4.208 5.778 11.865 2.913 15.167.758 1.935-.556.925-1.744-4.201-3.273zM188.988 142.064c-5.471-1.162-8.781.994-10.728 3.392 4.66 5.42 12.061 1.945 15.179-.469 1.884-.711.781-1.812-4.451-2.923zM186.17 153.211c-6.367-.878-9.309.42-11.73 2.968 5.177 5.256 13.748 3.281 17.547.651 2.254-.828.272-2.779-5.817-3.619zM185.023 164.433c-6.234-1.563-9.299-.591-11.982 1.68 4.579 5.786 13.313 4.75 17.374 2.547 2.33-.578.571-2.733-5.392-4.227zM180.412 173.777c-6.235-1.562-9.299-.59-11.982 1.68 4.579 5.786 13.313 4.751 17.374 2.548 2.329-.579.571-2.733-5.392-4.228zM175.677 185.415c-3.132-2.949-6.068-2.57-8.207-1.492 1.056 5.866 7.13 6.037 10.036 5.389 1.482.175 1.167-1.077-1.829-3.897zM176.189 193.508c-5.76-2.144-10.169-1.094-13.127.453 3.473 5.466 12.897 4.222 17.174 2.916 2.342-.174 1.461-1.318-4.047-3.369zM173.245 204.226c-4.858-3.767-9.38-4.08-12.664-3.488 1.686 6.254 11.051 7.881 15.522 7.912 2.287.534 1.788-.822-2.858-4.424zM156.319 179.21c3.646-1.507 6.407-.738 8.25.379-2.245 3.889-8.157 2.961-10.832 2.011-1.471-.134-.905-.948 2.582-2.39zM180.557 110.916c.9 4.877 3.909 6.423 6.653 6.778 1.374-5.4-2.515-10.45-5.68-11.718-1.267-1.134-1.833.276-.973 4.94zM185.83 101.182c.9 4.877 3.908 6.423 6.652 6.777 1.375-5.399-2.514-10.45-5.68-11.718-1.266-1.133-1.833.276-.972 4.941z" fill="#E3D1AD"/>
    <path d="M201.649 108.698c-4.413 2.256-7.471.81-9.422-1.153 3.44-4.38 9.811-4.369 12.743-2.629 1.67.316.899 1.624-3.321 3.782zM173.465 121.922c2.07 5.778 6.053 7.067 9.475 6.952.604-6.87-5.152-12.264-9.27-13.181-1.774-1.132-2.185.702-.205 6.229zM169.583 135.32c1.803 5.033 5.272 6.155 8.252 6.056.527-5.984-4.487-10.682-8.074-11.481-1.834-.408-1.903.612-.178 5.425zM165.925 148.222c3.654 3.9 7.283 3.549 9.978 2.272-1.894-5.7-8.36-8.015-11.969-7.32-1.845.355-1.503 1.319 1.991 5.048zM160.427 158.899c5.014 3.984 9.255 2.931 12.227.944-3.243-6.426-11.315-8.037-15.473-6.58-2.125.744-1.55 1.827 3.246 5.636zM155.041 170.401c5.651 4.134 10.4 3.081 13.718 1.058-3.683-6.635-12.746-8.35-17.397-6.881-2.378.751-1.727 1.869 3.679 5.823z" fill="#E3D1AD"/>
    <path d="M197.537 217.469c-6.775-.513-10.205 14.639-7.65 25.823l4.133-.629c-.854-10.686 10.293-24.681 3.517-25.194z" fill="#D9C7A5"/>
    <path fill-rule="evenodd" clip-rule="evenodd" d="M195.679 222.133a.105.105 0 0 1 .044.146c-4.366 7.637-4.007 16.188-3.822 20.584l.006.144-.225.014a8.307 8.307 0 0 0-.007-.154c-.184-4.395-.546-12.996 3.851-20.688a.117.117 0 0 1 .153-.046z" fill="#F1E0BF"/>
    <path d="M208.785 222.138c-4.782-2.045-11.261 8.224-12.351 17.056l2.935-.201c2.194-8.047 14.198-14.81 9.416-16.855z" fill="#E3D1AD"/>
    <path fill-rule="evenodd" clip-rule="evenodd" d="M206.23 225.087a.105.105 0 0 1-.013.152c-4.928 4.055-6.491 8.511-7.906 12.546-.158.452-.315.898-.474 1.338l-.213-.067c.159-.439.315-.885.473-1.336 1.415-4.036 2.996-8.546 7.974-12.643a.117.117 0 0 1 .159.01z" fill="#F1E0BF"/>
    <path d="M184.644 219.449c6.769 1.864 4.988 18.16-1.278 28.406l-2.931-2.682c4.441-10.345-2.559-27.588 4.209-25.724z" fill="#D9C7A5"/>
    <path fill-rule="evenodd" clip-rule="evenodd" d="M184.866 224.714a.141.141 0 0 0-.114.171c1.799 8.429-.292 14.45-2.186 19.903-.212.61-.421 1.213-.623 1.811l.282.109c.201-.597.41-1.199.622-1.809 1.895-5.453 4.012-11.547 2.195-20.062a.157.157 0 0 0-.176-.123z" fill="#F1E0BF"/>
    <ellipse cx="34.069" cy="126.906" rx="13.584" ry="13.597" fill="#F9EBD1"/>
    <ellipse cx="262.524" cy="57.086" rx="13.261" ry="13.273" fill="#FCF5E8"/>
    <ellipse cx="104.039" cy="75.432" rx="24.689" ry="24.712" fill="#F9EBD1" fill-opacity=".5"/>
    <ellipse cx="286.242" cy="141.906" rx="21.886" ry="21.907" fill="#F9EBD1"/>
    <ellipse cx="298.425" cy="36.043" rx="8.841" ry="8.849" fill="#FAF0DE"/>
    <path d="M206.747 50.183c3.733 12.868-3.662 26.33-16.518 30.067-12.856 3.737-26.305-3.665-30.039-16.533-3.734-12.869 3.662-26.33 16.518-30.067 12.856-3.737 26.305 3.665 30.039 16.533z" fill="#B1DEDC"/>
    <path fill-rule="evenodd" clip-rule="evenodd" d="M175.834 31.082a.246.246 0 0 1 .305.168l.274.946a.246.246 0 1 1-.472.137l-.275-.946a.246.246 0 0 1 .168-.305zm.961 3.312a.246.246 0 0 1 .305.168l.549 1.892a.246.246 0 1 1-.473.137l-.549-1.892a.246.246 0 0 1 .168-.305zm1.235 4.258a.246.246 0 0 1 .305.167l.549 1.893a.246.246 0 1 1-.472.137l-.549-1.892a.246.246 0 0 1 .167-.305zm1.236 4.257a.246.246 0 0 1 .305.168l.549 1.893a.246.246 0 1 1-.473.137l-.549-1.892a.246.246 0 0 1 .168-.306zm1.235 4.258a.246.246 0 0 1 .305.168l.549 1.893a.246.246 0 1 1-.473.137l-.549-1.892a.247.247 0 0 1 .168-.306zm1.235 4.258a.246.246 0 0 1 .305.168l.55 1.892a.246.246 0 1 1-.473.137l-.549-1.892a.246.246 0 0 1 .167-.305zm1.236 4.258a.246.246 0 0 1 .305.168l.549 1.892a.246.246 0 1 1-.473.138l-.549-1.893a.246.246 0 0 1 .168-.305zm1.235 4.258a.246.246 0 0 1 .305.168l.549 1.892a.246.246 0 1 1-.472.138l-.549-1.893a.246.246 0 0 1 .167-.305zm1.236 4.258a.246.246 0 0 1 .305.168l.549 1.892a.246.246 0 1 1-.473.138l-.549-1.893a.246.246 0 0 1 .168-.305zm1.235 4.258a.246.246 0 0 1 .305.168l.549 1.892a.246.246 0 1 1-.472.137l-.55-1.892a.248.248 0 0 1 .168-.305zm1.236 4.258a.245.245 0 0 1 .304.167l.55 1.893a.246.246 0 1 1-.473.137l-.549-1.892a.246.246 0 0 1 .168-.305zm1.235 4.257a.246.246 0 0 1 .305.168l.549 1.893a.246.246 0 1 1-.473.137l-.549-1.892a.246.246 0 0 1 .168-.306zm1.235 4.258a.246.246 0 0 1 .305.168l.275.946a.246.246 0 1 1-.473.138l-.274-.946a.246.246 0 0 1 .167-.306z" fill="#385378"/>
    <path fill-rule="evenodd" clip-rule="evenodd" d="M157.556 64.354a.247.247 0 0 1 .168-.305l.95-.276a.246.246 0 0 1 .137.473l-.95.276a.246.246 0 0 1-.305-.168zm3.324-.966a.246.246 0 0 1 .168-.306l1.899-.552a.246.246 0 0 1 .138.473l-1.9.553a.246.246 0 0 1-.305-.168zm4.274-1.243a.246.246 0 0 1 .168-.305l1.899-.552a.246.246 0 0 1 .137.473l-1.899.552a.246.246 0 0 1-.305-.168zm4.273-1.242a.248.248 0 0 1 .168-.305l1.899-.552a.246.246 0 0 1 .138.473l-1.9.552a.246.246 0 0 1-.305-.168zm4.274-1.242a.246.246 0 0 1 .168-.305l1.899-.553a.246.246 0 1 1 .137.474l-1.899.552a.246.246 0 0 1-.305-.168zm4.274-1.242a.246.246 0 0 1 .167-.306l1.9-.552a.246.246 0 0 1 .137.473l-1.899.552a.246.246 0 0 1-.305-.167zm4.273-1.243a.246.246 0 0 1 .168-.305l1.899-.552a.246.246 0 1 1 .137.473l-1.899.552a.246.246 0 0 1-.305-.168zm4.274-1.242a.246.246 0 0 1 .167-.305l1.9-.552a.246.246 0 0 1 .137.473l-1.899.552a.246.246 0 0 1-.305-.168zm4.273-1.242a.247.247 0 0 1 .168-.306l1.899-.552a.246.246 0 0 1 .138.473l-1.9.552a.246.246 0 0 1-.305-.167zm4.274-1.243a.246.246 0 0 1 .168-.305l1.899-.552a.246.246 0 0 1 .137.473l-1.899.552a.246.246 0 0 1-.305-.168zm4.273-1.242a.248.248 0 0 1 .168-.305l1.9-.552a.246.246 0 0 1 .137.473l-1.9.552a.246.246 0 0 1-.305-.168zm4.274-1.242a.246.246 0 0 1 .168-.306l1.899-.552a.246.246 0 1 1 .137.474l-1.899.552a.246.246 0 0 1-.305-.168zm4.274-1.243a.246.246 0 0 1 .167-.305l.95-.276a.246.246 0 1 1 .137.473l-.949.276a.246.246 0 0 1-.305-.168z" fill="#385378"/>
    <path fill-rule="evenodd" clip-rule="evenodd" d="M159.923 43.99a.246.246 0 0 1 .334-.097l.863.475a.246.246 0 0 1-.237.432l-.863-.475a.247.247 0 0 1-.097-.335zm3.019 1.662a.246.246 0 0 1 .334-.097l1.726.95a.247.247 0 0 1-.238.431l-1.725-.95a.247.247 0 0 1-.097-.334zm3.882 2.136a.246.246 0 0 1 .334-.097l1.725.95a.246.246 0 0 1-.237.431l-1.725-.949a.246.246 0 0 1-.097-.334zm3.881 2.137a.246.246 0 0 1 .334-.097l1.726.95a.247.247 0 0 1-.238.43l-1.725-.949a.247.247 0 0 1-.097-.334zm3.882 2.136a.246.246 0 0 1 .334-.097l1.725.95a.246.246 0 0 1-.237.431l-1.725-.95a.246.246 0 0 1-.097-.334zm3.881 2.137a.247.247 0 0 1 .335-.098l1.725.95a.247.247 0 0 1-.238.432l-1.725-.95a.247.247 0 0 1-.097-.334zm3.882 2.136a.246.246 0 0 1 .334-.097l1.725.95a.246.246 0 0 1-.237.431l-1.725-.95a.246.246 0 0 1-.097-.334zm3.881 2.136a.247.247 0 0 1 .335-.097l1.725.95a.246.246 0 1 1-.237.432l-1.726-.95a.247.247 0 0 1-.097-.335zm3.882 2.137a.246.246 0 0 1 .334-.097l1.725.95a.246.246 0 1 1-.237.43l-1.725-.949a.246.246 0 0 1-.097-.334zm3.881 2.136a.247.247 0 0 1 .335-.097l1.725.95a.246.246 0 1 1-.237.432l-1.726-.95a.247.247 0 0 1-.097-.335zm3.882 2.137a.246.246 0 0 1 .334-.098l1.725.95a.246.246 0 0 1-.237.432l-1.725-.95a.246.246 0 0 1-.097-.334zm3.881 2.136a.247.247 0 0 1 .335-.097l1.725.95a.246.246 0 1 1-.237.432l-1.726-.95a.247.247 0 0 1-.097-.335zm3.882 2.136a.246.246 0 0 1 .334-.097l.863.475a.246.246 0 1 1-.237.432l-.863-.475a.246.246 0 0 1-.097-.335z" fill="#385378"/>
    <path fill-rule="evenodd" clip-rule="evenodd" d="M196.415 33.383a.246.246 0 0 0-.334.097l-.474.863a.246.246 0 1 0 .431.237l.474-.863a.246.246 0 0 0-.097-.334zm-1.66 3.021a.246.246 0 0 0-.334.097l-.949 1.727a.247.247 0 0 0 .432.237l.948-1.726a.246.246 0 0 0-.097-.335zm-2.134 3.885a.246.246 0 0 0-.334.098l-.949 1.726a.246.246 0 1 0 .431.238l.949-1.727a.247.247 0 0 0-.097-.335zm-2.135 3.886a.246.246 0 0 0-.334.097l-.948 1.727a.246.246 0 1 0 .431.237l.948-1.727a.246.246 0 0 0-.097-.334zm-2.134 3.885a.246.246 0 0 0-.334.097l-.949 1.727a.246.246 0 1 0 .431.237l.949-1.727a.246.246 0 0 0-.097-.334zm-2.134 3.885a.247.247 0 0 0-.335.097l-.948 1.727a.246.246 0 1 0 .431.237l.949-1.727a.247.247 0 0 0-.097-.334zm-2.135 3.885a.246.246 0 0 0-.334.097l-.949 1.727a.247.247 0 0 0 .432.237l.948-1.726a.246.246 0 0 0-.097-.335zm-2.134 3.885a.246.246 0 0 0-.334.097l-.949 1.727a.246.246 0 1 0 .431.237l.949-1.726a.247.247 0 0 0-.097-.335zm-2.135 3.885a.246.246 0 0 0-.334.097l-.948 1.727a.246.246 0 1 0 .431.238l.948-1.727a.245.245 0 0 0-.097-.335zm-2.134 3.886a.246.246 0 0 0-.334.097l-.949 1.726a.246.246 0 1 0 .431.237l.949-1.726a.246.246 0 0 0-.097-.334zm-2.134 3.885a.247.247 0 0 0-.335.097l-.948 1.727a.246.246 0 1 0 .431.237l.949-1.727a.247.247 0 0 0-.097-.334zm-2.135 3.885a.246.246 0 0 0-.334.097l-.949 1.727a.247.247 0 0 0 .432.237l.948-1.727a.246.246 0 0 0-.097-.334zm-2.134 3.885a.246.246 0 0 0-.334.097l-.475.864a.247.247 0 0 0 .432.237l.474-.864a.247.247 0 0 0-.097-.334z" fill="#385378"/>
    <path d="m183.281 56.748-6.692-23.064c6.278-2.21 15.194-.184 18.533 2.051l-11.841 21.013z" fill="#81CBC8"/>
    <path d="M71.803 72.302v7.554h84.094V61.187H81.075c-3.45 0-9.272 2.266-9.272 11.115z" fill="#9BADB5"/>
    <path fill-rule="evenodd" clip-rule="evenodd" d="M80.751 61.08h78.703c5.954 0 10.781 4.83 10.781 10.79v173.741l.863 2.843a10.787 10.787 0 0 0 7.444 7.265l2.475.684h-78.704c-5.954 0-10.78-4.832-10.78-10.792V71.871l-.863-2.843a10.786 10.786 0 0 0-7.445-7.265l-2.474-.684z" fill="url(#sykbposota)"/>
    <path fill-rule="evenodd" clip-rule="evenodd" d="M170.235 245.611V71.871c0-5.96-4.827-10.792-10.781-10.792H80.751l2.474.684a10.786 10.786 0 0 1 7.445 7.265l.862 2.843v173.74c0 5.96 4.827 10.792 10.781 10.792h78.704l-2.475-.684a10.787 10.787 0 0 1-7.444-7.265l-.863-2.843zm6.504 10.144a11.436 11.436 0 0 1-6.26-7.113l-.891-2.934V71.871c0-5.603-4.537-10.144-10.134-10.144H85.028a11.436 11.436 0 0 1 6.26 7.113l.891 2.934v173.837c0 5.603 4.537 10.144 10.134 10.144h74.426z" fill="#F2F4F4"/>
    <path fill-rule="evenodd" clip-rule="evenodd" d="M134.873 245.612c0-5.955-4.827-10.792-10.781-10.792-5.955 0-10.781 4.837-10.781 10.792 0 5.954-4.827 10.791-10.782 10.791h39.028v-10.791h-6.684z" fill="#9BADB5"/>
    <path fill-rule="evenodd" clip-rule="evenodd" d="M134.873 245.612V234.82c0 13.469 10.919 24.389 24.389 24.389h65.095l-.875-.036c-5.545-.446-9.906-5.096-9.906-10.756V259.209c0-13.47-10.919-24.389-24.388-24.389h-65.096l.876.035c5.544.447 9.905 5.097 9.905 10.757z" fill="#fff"/>
    <path fill-rule="evenodd" clip-rule="evenodd" d="M175.626 259.424c5.954 0 10.781-4.837 10.781-10.791h89.269c0 5.954-4.827 10.791-10.781 10.791h-89.269z" fill="url(#bix3lhr56b)"/>
    <path fill="#C8D8D8" d="M99.727 90.216h50.672v1.295H99.727zM99.835 80.288h35.578v1.295H99.835zM99.403 70.36h35.578l.216 1.295H99.619l-.216-1.295zM99.727 110.072h22.532v1.295H99.727v-1.295zM99.727 120h33.961v1.295H99.727V120zM99.727 129.928h19.514v1.295H99.727v-1.295zM99.727 139.856h50.672v1.295H99.727zM99.727 149.784h50.672v1.295H99.727zM99.727 167.266h50.672v1.295H99.727zM99.727 177.194h23.287v1.295H99.727v-1.295zM99.727 197.05h50.672v1.295H99.727zM99.727 206.978h31.266v1.295H99.727zM141.558 238.489h59.943l1.725 1.295h-59.943l-1.725-1.295zM186.3 250.144h-42.478l-.324 1.295h42.586l.216-1.295zM99.727 216.906h21.131v1.295H99.727zM99.727 226.835h50.672v1.295H99.727zM99.727 238.489h16.279l-.97 1.295h-15.31v-1.295z"/>
    <ellipse rx="9.284" ry="11.61" transform="rotate(31.876 -109.947 462.836) skewX(.048)" fill="#ECB96D"/>
    <path d="M226.809 146.326c1.231-3.305-.206-6.325-1.078-7.422l5.926-1.989c.123 5.57 2.041 11.52 8.817 12.17 0 4.12-2.32 17.095-10.024 17.653-6.096.441-11.102-16.173-10.025-17.653.847-.178 5.152.547 6.384-2.759z" fill="#ECB96D"/>
    <ellipse rx="9.283" ry="11.613" transform="rotate(-16.739 475.557 -248) skewX(-.03)" fill="#ECB96D"/>
    <path d="M84.741 146.007c3.364-1.64 3.127-7.518 2.588-10.252h7.87c-.395 2.375-.985 8.261 1.94 10.252 2.696 1.835 6.685 2.59 8.841 3.022-.898 4.532-4.356 12.928-8.41 14.136-4.053 1.209-15.524-8.597-20.591-14.136 1.078 0 4.398-1.382 7.762-3.022zM222.434 300.093c.302-.52-.126-3.991-.379-5.662h4.731c-.379 1.114-.316 4.27 0 5.662l3.027 8.539c.158 1.207-.037 3.712-2.081 4.084-2.555.464-6.718-1.857-7.096-2.506-.378-.65 1.419-9.467 1.798-10.117zM232.598 282.384l3.272-5.219 4.02 2.61-2.431 4.287 3.179 12.768c-.374.28-1.253.839-1.776.839-.524 0-2.525-3.418-3.46-5.126-1.807-2.206-5.403-6.86-5.329-7.829.075-.969 1.714-1.957 2.525-2.33z" fill="#ECB96D"/>
    <path d="m221.615 308.024 1.011-7.981c-2.722 8.241-2.084 12.095-1.655 13.642.368.835 2.299 4.083 5.058 4.269 2.111.142 4.537-5.506 3.955-8.631l-3.403-9.28c.766 2.66 2.152 8.334 1.563 9.744-.735 1.763-3.494 1.207-4.69.928-.956-.222-1.625-1.887-1.839-2.691zM240.206 296.331c-2.156.173-7.08-8.561-9.272-12.95-2.674.777-3.055 3.13-2.911 4.209 3.306 5.108 10.199 15.54 11.32 16.403 1.402 1.079 2.265-.432 2.588-1.079.259-.518-.827-4.605-1.402-6.583h-.323zM248.271 122.043c-4.901-2.007-9.406-.837-11.045 0 .994.349.278 1.672.278 1.672 2.97 4.373 2.593 6.553 2.321 10.598-.65 9.663 7.796 11.428 12.902 10.685-3.899-.651-4.239-4.46-3.528-5.668 5.941-8.454 4.084-15.235-.928-17.287z" fill="#13284B"/>
    <path d="M248.086 120.006c-4.668-2.503-9.313-1.58-10.953-.744.994.349.557 2.044.557 2.044 8.557 4.404 5.284 9.698 5.012 13.744-.65 9.662 8.416 9.91 10.396 9.662-1.392-.458-3.991-3.059-2.878-5.939 4.363-9.848 3.064-15.98-2.134-18.767zM223.674 115.826c1.798-1.117 6.394-1.67 8.8 0-.7 5.682-6.437 8.018-9.218 8.476l-4.118-2.826c.003-1.317 2.18-4.47 4.536-5.65z" fill="#223A5A"/>
    <path d="M224.23 124.886c3.724-1.02 6.538-6.577 6.982-9.526 5.718 4.287 1.551 9.838-1.247 12.078l-5.735-2.552z" fill="#223A5A"/>
    <path d="M229.985 128.953c4.693-1.149 1.118-10.274 1.676-13.593 9.951 2.01 9.741 14.203 6.214 16.723l-7.89-3.13z" fill="#223A5A"/>
    <path d="M231.749 136.915c-5.792-2.973-1.856-9.353.557-12.357 1.708-2.767 4.734-3.569 6.034-3.623.464.402 2.005 1.56 1.485 7.061-.52 5.5-6.034 8.454-8.076 8.919z" fill="#223A5A"/>
    <path d="M228.222 130.04c-4.232-1.115-2.196-4.491-.649-6.039 4.603-1.859 5.259 1.269 5.012 3.065-2.451-1.04-3.93 1.549-4.363 2.974z" fill="#223A5A"/>
    <path d="M167.373 285.604c4.243 11.836-1.904 24.873-13.729 29.12s-24.85-1.906-29.093-13.742c-4.243-11.836 1.904-24.874 13.729-29.12 11.825-4.247 24.85 1.906 29.093 13.742z" fill="url(#wkaxope2ic)"/>
    <path fill-rule="evenodd" clip-rule="evenodd" d="M139.943 290.917a2.483 2.483 0 0 0 2.269-2.681 2.483 2.483 0 0 0-2.679-2.271 2.484 2.484 0 0 0-2.268 2.681 2.482 2.482 0 0 0 2.678 2.271zm.143 1.721a4.21 4.21 0 0 0 3.845-4.545 4.208 4.208 0 1 0-8.385.696 4.208 4.208 0 0 0 4.54 3.849zM152.308 301.399a2.483 2.483 0 0 0 2.268-2.681 2.483 2.483 0 1 0-4.947.41 2.483 2.483 0 0 0 2.679 2.271zm.142 1.721a4.21 4.21 0 0 0 3.845-4.545 4.208 4.208 0 1 0-8.385.696 4.208 4.208 0 0 0 4.54 3.849zM136.672 303.277l17.181-20.305 1.316 1.116-17.181 20.305-1.316-1.116z" fill="#fff"/>
    <path d="M231.877 131.389c-.925 1.883-2.728 2.891-4.028 2.251-1.3-.639-.683-1.434-.214-2.818.794-2.343 2.262-4.64 3.562-4.001 1.3.64 1.604 2.685.68 4.568zM192.932 179.349c24.808 1.782 30.956-17.242 30.928-26.977-6.202-6.798-11.381-1.182-13.196 2.475-1.704 4.455-7.192 13.629-15.505 14.685-8.314 1.056-18.31-5.995-22.269-9.652l-3.051 4.891c3.546 9.487 16.825 14.578 23.093 14.578z" fill="#ECB96D"/>
    <path d="M174.294 169.618c-4.901.446-11.943-5.915-13.83-8.548-1.671-3.065 0-5.574 3.156-6.224 2.524-.521 6.806 3.933 8.632 6.224l.557-1.486c.124-.681-1.393-3.475-1.021-4.738.371-1.264.34-.589 1.021-.558l4.362 4.924-1.299 4.924c.835 1.239 3.323 5.036-1.578 5.482zM255.988 160.22c-3.88-8.407-8.74-10.219-10.685-10.074-7.661.815.336 14.75 1.695 17.876 1.087 2.5 11.751 27.841 17.555 41.459l6.589-3.878c-5.238-4.488-10.304-34.874-15.154-45.383z" fill="#ECB96D"/>
    <path d="m261.996 203.867 2.76-3.19c2.542-1.512 7.125 4.842 8.251 6.05.999 2.505 1.872 5.615.247 9.09-1.626 3.475-4.728 3.889-6.135 3.762l-3.601-1.392 5.5-3.576-1.565-5.065-2.156.79-.844 6.418c-.77-.52-1.699-1.259-2.246-2.973-.546-1.714-.024-8.159-.211-9.914z" fill="#ECB96D"/>
    <path d="M252.726 236.418c-6.618-9.229-16.184-23.827-19.77-31.124-.801-12.941 18.678-13.168 20.977-8.733 2.299 4.435 13.705 24.91 15.236 35.162 1.095 7.326-.372 9.856-2.241 10.827-1.87.971-7.15 3.702-14.202-6.132z" fill="#223A5A"/>
    <path d="M234.879 277.681c5.936-24.159 17.491-37.975 23.11-44.011 6.124-3.336 9.939 2.458 11.082 5.772-3.192 13.018-21.46 32.976-29.315 41.464-2.33-.004-4.727-2.051-4.877-3.225zM214.042 233.105c-1.628-11.243-.175-27.175 0-35.305 5.244-11.856 19.721-1.645 19.721 3.352 0 4.996 1.44 25.022-1.919 34.827-2.399 7.008-5.117 9.637-8.155 9.637-3.039 0-7.912-.532-9.647-12.511z" fill="#223A5A"/>
    <path d="M221.447 295.712c-8.354-23.432-6.322-41.334-4.959-49.471 3.272-6.163 9.647-3.434 12.425-1.299 4.507 12.623.257 39.354-1.621 50.77-1.947 1.282-5.073.897-5.845 0z" fill="#223A5A"/>
    <path d="M216.381 250.024c-.134-6.252-.888-9.866-1.618-13.154 1.686-6.103 12.831-9.05 18.564-7.5-1.18 5.768-1.503 6.37-2.227 10.114-.342 1.765-1.041 8.121-.928 10.54-6.138 3.795-10.868 1.581-13.791 0zM213.685 206.104v-5.191l41.615-1.92 2.803 5.395c-4.672 2.489-14.878 6.963-21.778 6.906-6.9-.056-17.969-3.484-22.64-5.19z" fill="#223A5A"/>
    <path d="M221.879 147.982c2.104 3.436 4.528 10.327 6.684 11.73 3.342-2.698 7.537-11.855 7.983-12.475 1.671.465 5.55 1.209 7.333 1.705 2.507.697 4.611.336 5.756 1.085-.322 4.716-3.034 8.255-2.636 14.757.406 6.64 4.947 16.225 9.919 33.453-7.979 5.504-24.757 12.413-46.145 3.238l4.206-36.691c.056-7.97-2.432-12.343-2.939-15.404 1.578.129 6.646-.344 9.839-1.398z" fill="#4AA6B5"/>
    <path d="m159.638 135.288-3.197 1.363 4.428 11.554c-.662 2.704.508 5.962 1.176 7.253l6.886 15.454 8.425-3.592a5714.087 5714.087 0 0 0-7.277-15.952c-1.929-4.2-3.935-5.141-4.697-5.087l-5.744-10.993z" fill="#385378"/>
    <path d="M79.35 118.489c1.95-1.646 2.911-.977 4.456-1.481 4.96-1.187 9.811 2.267 5.175 3.13-3.708.69-2.91 3.567-1.868 6.121l.36 7.554c-.36.216-.015 1.999-2.085 1.481s-3.127-.402-5.175-3.963c-4.313-2.417-2.84-7.554-2.48-8.849 0-1.942.431-2.992 1.617-3.993z" fill="#223A5A"/>
    <path d="M79.781 119.892c.54-3.165 3.235-6.151 8.84-6.151 6.754 0 8.322 5.867 8.775 7.164l.067.174a2.192 2.192 0 0 1-.067-.174c-5.026-4.382-17.615-.581-17.615-1.013z" fill="#223A5A"/>
    <path d="M84.905 116.977c1.524-2.825 5.034-4.788 10.344-2.989 6.397 2.167 6.002 8.228 6.016 9.602l.007.186a2.731 2.731 0 0 1-.007-.186c-3.357-5.764-16.499-6.204-16.36-6.613zM79.984 119.825c1.458-1.83 4.23-2.785 7.808-.807 4.31 2.382 3.246 6.68 3.078 7.668l-.019.134a1.53 1.53 0 0 1 .019-.134c-1.665-4.57-11.038-6.585-10.886-6.861z" fill="#223A5A"/>
    <path d="M81.125 119.63c2.093-1.047 5.008-.748 7.425 2.552 2.91 3.975.14 7.427-.427 8.253l-.074.114a1.41 1.41 0 0 1 .073-.114c.409-4.848-7.25-10.619-6.997-10.805z" fill="#223A5A"/>
    <path d="M80.093 120.755c1.35-2.912 4.735-5.084 10.144-3.61 6.516 1.776 6.489 7.849 6.585 9.22l.019.185a2.185 2.185 0 0 1-.019-.185c-3.699-5.55-16.843-5.193-16.73-5.61z" fill="#223A5A"/>
    <path d="M87.287 129.387c.849 1.776 1.571 3.544.414 4.098-1.158.554-3.756-.315-4.605-2.091-.85-1.776-1.665-3.842.29-4.779 1.158-.554 3.052.996 3.9 2.772zM130.881 151.307c-11.257 5.503-22.426.109-26.604-3.277-6.1.228-3.544 12.934-4.802 12.222 24.654 14.468 44.41-3.771 51.205-14.699l-3.549-3.772c-.727.882-4.993 4.022-16.25 9.526z" fill="#ECB96D"/>
    <path d="M144.404 152.156c4.9.446 10.361-3.301 12.248-5.933 1.671-3.066 1.582-8.189-1.574-8.839-2.525-.52-6.807 3.933-8.633 6.225l-.556-1.487c-.124-.681 1.392-3.475 1.021-4.738-.372-1.264-.341-.589-1.021-.558l-4.363 4.924 1.3 4.925c-.836 1.238-3.323 5.035 1.578 5.481z" fill="#ECB96D"/>
    <path fill-rule="evenodd" clip-rule="evenodd" d="M41.69 197.946a.323.323 0 0 1 .432.15c3.292 6.77 9.471 26.84 9.667 51.182a.323.323 0 1 1-.647.005c-.195-24.256-6.356-44.229-9.602-50.904a.324.324 0 0 1 .15-.433z" fill="#D9C7A5"/>
    <path d="M41.747 189.103c4.23 4.643 1.817 7.88 0 10.222-7.017-2.551-5.925-9.061-4.89-13.26-.05-.016-.052-.022.005-.022l-.006.022c.326.106 2.727.663 4.89 3.038zM35.61 200.4c5.694 0 6.691 2.117 7.538 4.753-5.665 4.154-10.722-.577-12.542-3.461-.266 0 .763-1.292 5.004-1.292zM38.608 211.171c5.705 0 8.083 3.086 9.057 6.121-7.127 3.129-12.345-.664-14.441-3.986-1.547-1.198-.071-2.135 5.384-2.135zM39.4 223.551c5.142-.788 8.102 1.39 9.783 3.721-4.615 4.785-11.304 1.165-14.072-1.243-1.711-.76-.629-1.724 4.29-2.478zM41.834 234.192c3.263-2.316 5.92-1.591 7.752-.324-1.721 5.27-7.34 4.65-9.934 3.681-1.389-.029-.938-1.141 2.182-3.357zM58.145 232.806c-3.658.295-5.62 2.1-6.676 3.806 3.503 2.272 8.01-.999 9.824-2.919 1.163-.733.35-1.168-3.148-.887zM52.43 202.613c-1.452 4.378-4.422 5.418-6.995 5.393-.577-5.15 3.651-9.306 6.73-10.069 1.312-.882 1.654.488.265 4.676zM57.56 213.661c-2.645 5.058-6.479 5.736-9.617 5.193.32-6.407 6.312-10.64 10.224-10.959 1.779-.816 1.923.927-.607 5.766zM59.426 226.502c-2.304 4.406-5.643 4.997-8.377 4.523.28-5.58 5.498-9.267 8.906-9.544 1.549-.711 1.675.807-.529 5.021z" fill="#D9C7A5"/>
    <path d="m161.157 114.394-3.284-1.137-4.465 11.539c-2.304 1.56-3.621 4.762-3.991 6.167l-5.257 16.083 8.654 2.997c1.19-3.735 3.916-12.305 5.302-16.714 1.385-4.41.529-6.456-.072-6.927l3.113-12.008z" fill="#385378"/>
    <path d="m40.373 249.516 16.497-6.627 3.022 8.287-17.713 6.169-.04 9.414-3.06-.948c-3.806-4.824-3.508-12.299-2.883-15.434l4.177-.861z" fill="#ECB96D"/>
    <path d="m38.597 249.595 1.176.65-2.847 1.446c.469 9.955 3.303 12.968 5.243 12.567.717 3.196 2.072 10.079 1.767 12.046-.306 1.966-2.347 1.518-3.33 1.048-1.425-.86-4.39-2.898-4.85-4.168-.46-1.269-3.855-13.666-5.64-19.918l8.481-3.671z" fill="#13284B"/>
    <path d="m107.597 294.389 1.833-17.698 8.733 1.187-2.803 18.561 8.301 4.424-2.264 2.267c-6.037 1.122-12.506-2.626-14.986-4.641l1.186-4.1z" fill="#ECB96D"/>
    <path d="m106.597 293.585 1.202-.599-.429 3.166c8.45 5.272 12.537 4.65 13.31 2.824 3.034 1.227 9.463 4.023 10.906 5.392 1.443 1.369-.086 2.795-1.03 3.337-1.518.685-4.878 1.969-6.183 1.626-1.305-.342-13.425-4.592-19.579-6.675l1.803-9.071z" fill="#13284B"/>
    <path d="M128.375 232.098c-1.777-2.705-13.853-24.361-19.67-34.852-.48-.281-11.678-1.401-17.217-1.926-.285-.031-.72 1.951-.182 10.136.673 10.232 26.547 37.614 30.186 37.262 3.638-.352 9.105-7.239 6.883-10.62z" fill="#F9FDFD"/>
    <path d="M103.252 234.794c-.987-2.997-6.8-26.544-9.583-37.943-.39-.373-10.959-3.793-16.194-5.456-.268-.091-1.233 1.744-2.946 9.805-2.14 10.076 15.507 42.058 19.137 42.474 3.63.415 10.82-5.134 9.586-8.88z" fill="#fff"/>
    <path d="M129.434 237.671c-.222-.852-.434-4.429-1.009-4.789-11.946-5.582-13.413.773-17.12 4.739-2.966 3.173-4.203 32.211-4.451 46.333l10.811 3.495c4.347-17.119 11.992-48.926 11.769-49.778z" fill="#F9FDFD"/>
    <path d="M98.314 242.131c.619-.626 3.584-2.633 3.601-3.312-1.296-13.132-7.505-11.154-12.804-12.323-4.239-.935-29.824 12.809-42.087 19.798l2.51 11.091c16.929-4.989 48.161-14.628 48.78-15.254z" fill="#fff"/>
    <path d="M92.934 157.77c-4.313-1.641-9.631-7.662-11.752-10.468l-9.38 2.158c0 3.669.389 13.166 1.941 21.799 1.553 8.633-.646 22.59-1.94 28.489 1.078 0 4.161.302 7.87 1.511 4.636 1.511 25.228-.755 28.894-1.511 2.932-.604 3.881-2.698 3.989-3.669-8.302-10.36-.97-46.834-2.264-46.619-1.035.173-6.325-1.366-8.841-2.158-1.042 4.173-4.204 12.108-8.517 10.468z" fill="#567196"/>
    <path d="M115.791 152.698c-.431-.432-3.881-2.374-5.606-3.13l-1.402 17.267 3.666-.972c1.294-4.208 3.773-12.734 3.342-13.165z" fill="#567196"/>
    <path d="M65.815 161.98c.258-5.266 4.276-10.468 7.223-11.979 5.779-1.726 6.577 7.267 6.253 11.979l-2.803 17.482c-1.15 3.561-4.894 10.295-10.673 8.741-7.224-1.943-.324-19.641 0-26.223z" fill="#ECB96D"/>
    <path d="m78.487 169.317-14.015-9.281 3.989-8.309 3.126-2.159c1.467-1.213 6.47-.505 7.763 0l1.833 5.612-2.696 14.137z" fill="#567196"/>
    <path d="M68.505 191.377c-5.865-.69-6.325-6.546-5.821-9.388 8.257-4.039 19.254 0 29.82 0v5.503c-7.26 1.583-18.134 4.576-23.999 3.885z" fill="#ECB96D"/>
    <path d="M107.92 189.065c-3.795 1.467-12.003-.612-15.633-1.835v-5.288l8.625 1.943h14.339c-.862 1.115-3.536 3.712-7.331 5.18z" fill="#ECB96D"/>
    <ellipse cx="110.292" cy="183.669" rx="15.417" ry="4.748" fill="#fff"/>
    <ellipse cx="109.106" cy="181.295" rx="3.234" ry="1.295" fill="#E9C16C"/>
    <ellipse cx="104.362" cy="184.532" rx="3.234" ry="1.295" fill="#E9C16C"/>
    <ellipse cx="105.656" cy="182.806" rx="3.234" ry="1.295" fill="#E9C16C"/>
    <path d="M112.341 180.54c0 .715-1.448 1.834-3.235 1.834-1.786 0-3.234-1.119-3.234-1.834 0-.716 1.448-.756 3.234-.756 1.787 0 3.235.04 3.235.756z" fill="#D9C24D"/>
    <path d="M107.597 183.777c0 .715-1.448 1.835-3.235 1.835-1.786 0-3.234-1.12-3.234-1.835 0-.715 1.448-.755 3.234-.755 1.787 0 3.235.04 3.235.755z" fill="#F2D384"/>
    <path d="M108.891 182.05c0 .716-1.448 1.835-3.235 1.835-1.786 0-3.234-1.119-3.234-1.835 0-.715 1.448-.755 3.234-.755 1.787 0 3.235.04 3.235.755z" fill="#EFDF89"/>
    <ellipse rx="3.234" ry="1.295" transform="rotate(-4.137 2613.842 -1451.273) skewX(-.008)" fill="#E9C16C"/>
    <ellipse rx="3.234" ry="1.295" transform="rotate(-4.137 2604.376 -1518.642) skewX(-.008)" fill="#E9C16C"/>
    <path d="M114.66 183.771c.049.713-1.318 1.93-3.1 2.054-1.782.123-3.304-.893-3.354-1.607-.049-.713 1.393-.854 3.175-.977 1.782-.124 3.229-.184 3.279.53z" fill="#F5E27C"/>
    <path d="M119.493 182.912c.049.713-1.318 1.93-3.1 2.054-1.782.123-3.304-.893-3.354-1.607-.049-.713 1.393-.853 3.175-.977 1.782-.124 3.229-.184 3.279.53z" fill="#F7E587"/>
    <ellipse rx="3.234" ry="1.295" transform="rotate(-4.137 2579.172 -1483.664) skewX(-.008)" fill="#E9C16C"/>
    <path d="M116.905 181.185c.049.714-1.318 1.931-3.1 2.054-1.782.124-3.304-.893-3.353-1.606-.05-.714 1.392-.854 3.174-.978 1.782-.123 3.229-.183 3.279.53z" fill="#F5E27C"/>
    <ellipse cx="111.693" cy="183.453" rx="3.234" ry="1.295" fill="#E9C16C"/>
    <path d="M114.928 182.698c0 .715-1.448 1.834-3.235 1.834-1.786 0-3.234-1.119-3.234-1.834 0-.715 1.448-.756 3.234-.756 1.787 0 3.235.041 3.235.756z" fill="#FFF4BC"/>
    <path d="M324.574 223.906c2.787 9.587-2.718 19.621-12.296 22.411-9.578 2.79-19.602-2.72-22.39-12.307-2.787-9.587 2.717-19.621 12.296-22.411 9.578-2.79 19.602 2.72 22.39 12.307z" fill="url(#zux2110azd)"/>
    <path fill-rule="evenodd" clip-rule="evenodd" d="m315.35 225.8-15.379 8.453-1.038-1.891 15.379-8.454 1.038 1.892z" fill="#fff"/>
    <path fill-rule="evenodd" clip-rule="evenodd" d="m303.863 220.864 8.446 15.394-1.89 1.039-8.446-15.394 1.89-1.039z" fill="#fff"/>
    <defs>
        <linearGradient id="sykbposota" x1="160.209" y1="61.079" x2="101.566" y2="254.214" gradientUnits="userSpaceOnUse">
            <stop stop-color="#fff"/>
            <stop offset=".594" stop-color="#E6EBEB"/>
        </linearGradient>
        <linearGradient id="bix3lhr56b" x1="189.642" y1="254.029" x2="261.014" y2="259.414" gradientUnits="userSpaceOnUse">
            <stop stop-color="#9BADB5"/>
            <stop offset="1" stop-color="#B7CDD0"/>
        </linearGradient>
        <linearGradient id="wkaxope2ic" x1="160.948" y1="271.549" x2="131.777" y2="314.883" gradientUnits="userSpaceOnUse">
            <stop stop-color="#59BCCC"/>
            <stop offset="1" stop-color="#40B3C6"/>
        </linearGradient>
        <linearGradient id="zux2110azd" x1="294.111" y1="245.577" x2="321.376" y2="217" gradientUnits="userSpaceOnUse">
            <stop stop-color="#5EB1BE"/>
            <stop offset="1" stop-color="#75CAD8"/>
        </linearGradient>
    </defs>
</svg>
