<svg width="345" height="119" viewBox="0 0 345 119" fill="none" xmlns="http://www.w3.org/2000/svg">
    <g clip-path="url(#b04veeoowa)">
        <rect width="345" height="118.68" rx="15" fill="#EDDFCD"/>
        <path d="M176.663 132.319c32.982 0 59.719-26.737 59.719-59.72 0-32.982-26.737-59.719-59.719-59.719s-59.72 26.737-59.72 59.72c0 32.982 26.738 59.719 59.72 59.719z" fill="#E6D2BE"/>
        <path d="M244.869 141.117c22.484 0 40.71-18.227 40.71-40.71 0-22.484-18.226-40.71-40.71-40.71-22.483 0-40.71 18.226-40.71 40.71 0 22.483 18.227 40.71 40.71 40.71zM100.004 139.702c25.399 0 45.989-20.59 45.989-45.989 0-25.398-20.59-45.988-45.989-45.988-25.399 0-45.988 20.59-45.988 45.988 0 25.399 20.59 45.989 45.988 45.989z" fill="#E6D2BE"/>
        <path d="M98.853 114.181c15.65-1.142 9.822-14.167 26.171-14.738 23.879-.835 25.451 4.898 38.046 5.557 12.594.637 20.103 8.983 21.151 10.147 10.302 11.312 9.931 8.588 19.099 13.332 0 0-25.168 6.546-34.27 5.689-9.102-.856-6.613-6.787-15.148-5.93-8.535.856-6.483-17.901-24.01-13.245-12.704 3.361.982 15.771-23.793 19.263-9.473 1.34-45.38.923-45.38.923s18.729-19.571 38.134-20.998z" fill="url(#bb3q4zy1lb)"/>
        <path d="M207.547 89.932c6.138-6.181 6.921-5.527 9.604-4.916 8.473 1.932 0 17.385-3.466 22.794-2.508 3.913-6.524 6.847-15.382 4.529-8.858-2.318 2.385-15.5 9.244-22.407z" fill="#fff"/>
        <path d="M265.343 138.92c3.042-32.486-7.486-55.773-15.343-61.663-5.415-5.264-18.9-12.002-30.794 1.504-10.265 11.656-12.791 45.37-10.51 60.159h56.647zM216.967 32.907c9.354 16.066 11.749 14.345 7.141 19.949l-7.141-5.567c-2.465-4.52-8.647-11.715-19.312-14.382-11.505-2.876-17.965-8.697-14.381-11.505 3.585-2.807 25.717-2.194 33.693 11.505z" fill="#fff"/>
        <path d="M237.053 35.717c-13.475-2.911-26.422 8.02-27.189 19.864-1.355 20.932 14.846 25.68 22.964 24.987 12.56-1.07 19.907-7.384 22.41-18.968s-4.709-22.971-18.185-25.883z" fill="#fff"/>
        <path d="M222.64 75.411v-.5l-.077.994.077-.494zm4.105-1.549a.5.5 0 1 0-.851-.524l.851.524zm-3.771 1.049h-.334v1h.334v-1zm-.411.994c.909.14 2.973-.08 4.182-2.043l-.851-.524c-.932 1.514-2.526 1.68-3.178 1.579l-.153.988z" fill="#CFD1D1"/>
        <path d="M253.209 29.843c3.232 21.592-9.805 35.495-17.266 39.61l-5.375-9.175c7.159-2.987 14.372-13.365 10.175-25.574-6.155-17.908-10.91-30.67-5.78-32.178 5.131-1.508 15.489 8.904 18.246 27.317z" fill="#fff"/>
        <ellipse cx="3.271" cy="2.578" rx="3.271" ry="2.578" transform="matrix(-.6839 .72958 .72958 .6839 236.67 56.894)" fill="#D96459"/>
        <ellipse cx="2.852" cy="2.248" rx="2.852" ry="2.248" transform="scale(-1 1) rotate(-64.138 -59.334 204.29)" fill="#D96459"/>
        <path d="M219.88 72.68c.23.657 1.104 2.13 2.76 2.76" stroke="#CFD1D1" stroke-linecap="round"/>
        <path d="M223.186 78.532a.5.5 0 1 0 .747-.664l-.747.664zm-1.046-3.092c0 .33.051.857.201 1.415.148.554.405 1.183.845 1.677l.747-.664c-.296-.334-.499-.797-.626-1.272a4.771 4.771 0 0 1-.167-1.156h-1z" fill="#CFD1D1"/>
        <path d="M229.879 84.836c-9.075-.825-11.312-4.525-11.312-5.656.377-1.885 1.509-1.76 1.509-1.13.377 1.507 3.393 3.864 10.18 4.147 7.239.301 14.328-4.902 18.098-7.541.252 0 .754.15.754.754 0 .754.754.754.754 1.131s-5.278 6.787-19.983 8.295z" fill="#223A5A"/>
        <path d="M229.503 121.41c-18.991-.678-14.454-28.279-11.312-41.475 0 0 2.338 3.544 11.689 4.147 9.351.603 17.47-4.273 20.361-6.787 6.409 16.59 10.934 45.246-20.738 44.115z" fill="#C0D7DC"/>
        <path d="M232.896 84.082c.377-1.131 1.131-.754 1.131-1.131 2.111.603 4.399-.754 5.278-1.508l1.886 3.77-8.295 6.033c-.377-1.76-1.056-3.469-.754-3.77.377-.378-.345-.096.754-3.394zM227.994 85.59c-.377-1.13-1.131-.754-1.131-1.13-2.112.602-4.399-.755-5.279-1.51l-1.885 3.771 8.295 6.033c.377-1.76 1.056-3.469.754-3.77-.377-.377.345-.096-.754-3.394z" fill="#9EBFC6"/>
        <path d="M232.142 87.098c.158-3.378 1.495-4.172 1.998-4.298l.264 1.66-2.262 2.638zM227.994 87.853c-.294-3.673-1.171-4.007-1.674-4.133l-.92 1.38 2.594 2.753z" fill="#E2EEF0"/>
        <path d="M227.617 87.853c-1.319-.33-1.509-3.771-.377-4.525 1.885-.754 2.639-.754 4.901 0 1.81.603.754 3.393 0 4.147-1.508.755-3.016.755-4.524.378z" fill="#223A5A"/>
        <path d="m228.748 115-4.269-5.06.92-11.5 1.841-10.965h4.901l1.078 16.485.92 5.98-5.391 5.06z" fill="#223A5A"/>
        <path d="M228.748 113.115c-2.781 0-9.678-19.23-12.82-29.033-11.688 12.82-12.568 36.071-12.442 47.131l69.754-1.885c-1.885-25.262-4.148-34.689-19.607-49.77-13.951 16.213-21.333 33.557-24.885 33.557z" fill="url(#tzae6ow6kc)"/>
        <path d="M247.94 102.58c2.761-9.66 6.441-18.86 12.554-17.06 11.367 7.4 7.94 23.056 4.926 28.56-2.18 3.982-5.074 12.958-13.883 11.311-8.81-1.646-7.534-9.032-3.597-22.811z" fill="#fff"/>
        <path d="M219.88 77.74c.569 1.217 2.527 3.698 6.44 5.98-1.423 4.183-7.36 12.873-7.36 11.96 0-1.14-3.68-12.234-3.68-12.234-.92 1.194 3.888-7.227 4.6-5.706zM236.028 96.6l-1.888-13.8c5.323 0 12.327-6.148 16.372-10.062 1.174-.757 3.682 6.03 5.248 8.682.64 1.085-12.42 11.04-19.732 15.18z" fill="#E2EEF0"/>
        <path d="M182.893 93.237c2.96-3.059 14.698.354 19.507 2.903 6.51 9.482.446 14.316-2.76 16.1-8.74.92-20.446-15.18-16.747-19.003z" fill="#fff"/>
        <path d="m187.04 98.998 5.899 1.346c1.07.276 1.38-1.173.725-2.036l-9.488-22.46c-.517-.965-1.725-1.103-2.656-1.345l-4.899-.897c-.69-.069-1.208.449-.69 1.38l8.97 21.942c.552.897.966 1.76 2.139 2.07z" fill="url(#cy8co9vr7d)"/>
        <path d="M309.246 89.493a4.727 4.727 0 1 0 0-9.454 4.727 4.727 0 0 0 0 9.454z" fill="#E6D2BE"/>
        <path d="M287.276 19c1.715-.014 3.096-1.183 3.084-2.612-.011-1.43-1.41-2.577-3.125-2.564-1.715.014-3.096 1.184-3.085 2.612.012 1.43 1.411 2.577 3.126 2.564z" fill="#fff"/>
        <path d="M285.659 21.93a3.278 3.278 0 1 0 0-6.556 3.278 3.278 0 0 0 0 6.556zM292.801 20.481a2.588 2.588 0 1 0 0-5.176 2.588 2.588 0 0 0 0 5.176z" fill="#fff"/>
        <path d="M283.59 22.103a2.07 2.07 0 1 0 0-4.14 2.07 2.07 0 0 0 0 4.14z" fill="#fff"/>
        <path d="M319.263 21.62c-7.797.103-33.155.448-33.603.31-.518-.138-.794-5.244 2.553-5.623 6.969-.828 7.59 1.518 8.142 2.415.552.897 2.725 1.483 7.797 2.035 3.277.345 8.935.345 12.213.483.793.035 1.897.104 2.898.173 1.242.103 1.414.207 0 .207zM275.034 112.148a1.794 1.794 0 1 0 0-3.587 1.794 1.794 0 0 0 0 3.587zM241.293 64.36a1.794 1.794 0 1 0 0-3.588 1.794 1.794 0 0 0 0 3.588zM310.914 102.028a1.794 1.794 0 1 0 0-3.587 1.794 1.794 0 0 0 0 3.587zM20.194 95.588a1.794 1.794 0 1 0 0-3.588 1.794 1.794 0 0 0 0 3.588zM193.856 60.818a1.207 1.207 0 1 0 0-2.414 1.207 1.207 0 0 0 0 2.414zM259.026 20.59a1.207 1.207 0 1 0 0-2.413 1.207 1.207 0 0 0 0 2.414z" fill="#fff"/>
        <path d="M27.497 55.074a5.417 5.417 0 1 0 0-10.834 5.417 5.417 0 0 0 0 10.834z" fill="#E6D2BE"/>
        <path d="M33.706 21.298a4.209 4.209 0 1 0 0-8.418 4.209 4.209 0 0 0 0 8.418z" fill="#fff"/>
        <path d="M31.119 24.403a3.519 3.519 0 1 0 0-7.038 3.519 3.519 0 0 0 0 7.038zM38.743 22.885a2.76 2.76 0 1 0 0-5.52 2.76 2.76 0 0 0 0 5.52z" fill="#fff"/>
        <path d="M66.895 24.334c-8.315.035-35.328.207-35.811.069-.552-.172-.794-5.589 2.794-6.003 7.418-.828 8.073 1.69 8.66 2.622.552.966 2.863 1.587 8.314 2.243 3.52.413 9.522.448 13.007.62.862.035 2.035.138 3.07.207 1.277.139 1.484.242-.034.242zM147.695 86.549a1.414 1.414 0 1 0 0-2.828 1.414 1.414 0 0 0 0 2.828zM27.91 79.258a1.76 1.76 0 1 0 0-3.519 1.76 1.76 0 0 0 0 3.519z" fill="#fff"/>
        <path d="m146.352 31.836-16.326-1.476-2.115 23.399 2.164-1.176 1.917 1.545 2.164-1.176 1.918 1.545 2.163-1.176 1.918 1.545 2.164-1.176 1.917 1.545 2.116-23.4z" fill="#F2EDE6"/>
        <path fill="#BCCDE4" d="m131.821 33.265 8.163.738-.062.68-8.162-.738zM131.951 46.993l10.203.922-.061.68-10.204-.922zM131.514 36.666l3.401.307-.061.68-3.401-.307zM131.206 40.068l4.762.43-.062.68-4.762-.43zM137.209 49.525l4.762.43-.062.68-4.761-.43z"/>
        <path d="m132.147 43.185-16.227 2.316 3.319 23.258 1.835-1.641 2.222 1.063 1.835-1.642 2.221 1.063 1.836-1.642 2.221 1.063 1.836-1.642 2.221 1.063-3.319-23.259z" fill="#fff"/>
        <path fill="#C3D3EA" d="m118.334 47.916 8.114-1.158.096.676-8.114 1.158zM121.616 61.246l10.142-1.447.097.676-10.142 1.447zM118.816 51.297l3.38-.482.097.676-3.38.482zM119.299 54.677l4.733-.675.097.676-4.734.675zM127.314 62.502l4.733-.675.096.676-4.733.675z"/>
        <path d="m81.089 78.232-2.09-.28.435-13.523 9.246-8.447 1.448 1.786L81.62 65.6l-.532 12.632z" fill="url(#4265dnfnke)"/>
        <path d="m93.34 99.445-11.62 2.787-8.876-25.131 15.742-4.036 4.755 26.38z" fill="url(#kksy7vuiyf)"/>
        <path d="m90.432 73.947-19.09 4.776-.565-2.001 19.079-4.856.576 2.08z" fill="#fff"/>
        <path d="m21.306 46 24.623 9.02v.026c-.28.839.177 1.779.99 2.084l-3.277 10.087c-.813-.304-1.703.153-1.982.992L16.63 59.06a1.687 1.687 0 0 0-.99-2.084l3.532-10.24s1.423.584 2.134-.737z" fill="url(#ftvae4k3qg)"/>
        <path opacity=".6" d="M21.307 52.403c-.077-.203-.077-.406 0-.686l.61-1.778a.895.895 0 0 1 .406-.534c.178-.102.381-.102.635 0s.407.229.483.432c.076.203.076.406 0 .686l-.127.356-.483-.178.127-.381c.077-.203.026-.33-.152-.407-.178-.076-.28 0-.356.204l-.635 1.854c-.076.204-.026.33.152.407.178.076.28 0 .356-.203l.178-.508.483.177-.153.483a.895.895 0 0 1-.406.534c-.178.101-.381.101-.636 0-.228-.102-.406-.254-.482-.458zm2.668-2.54.508.203-1.118 3.328-.508-.203 1.118-3.329zm.89.33.634.254-.177 2.185.66-2.007.457.178-1.092 3.328-.534-.203.204-2.668-.814 2.44-.457-.179 1.118-3.328zm1.981.737 1.398.533-.153.483-.89-.33-.304.889.686.254-.152.483-.687-.254-.355 1.016.89.33-.153.483-1.398-.533 1.118-3.354zm1.677.635.737.28-.483 2.515 1.118-2.262.737.28-1.118 3.329-.483-.178.839-2.516-1.22 2.389-.432-.153.483-2.668-.838 2.516-.433-.178 1.093-3.354zm2.897 1.093.686.254-.584 3.532-.509-.204.127-.686-.584-.229-.305.61-.483-.178 1.652-3.1zm-.203 2.439.33-1.728-.762 1.575.432.153zm-10.266-.788-.534-.203.153-.483 1.575.585-.152.482-.534-.203-.965 2.846-.509-.203.966-2.82zm1.448.026.508.203-1.117 3.303-.509-.203 1.118-3.303zm-.025 3.557c-.076-.203-.076-.407 0-.686l.61-1.779a.894.894 0 0 1 .406-.533c.178-.102.381-.102.636 0 .254.101.406.228.482.431.077.204.077.407 0 .687l-.127.355-.483-.177.128-.382c.076-.203.025-.33-.153-.406-.178-.077-.28 0-.356.203l-.635 1.855c-.076.203-.025.33.153.407.177.076.28 0 .355-.204l.178-.508.483.178-.152.483a.895.895 0 0 1-.407.533c-.178.102-.381.102-.635 0-.254-.127-.407-.28-.483-.457zm2.668-2.567.508.204-.483 1.397 1.118-1.169.509.204-1.017.99-.101 2.338-.534-.203.076-1.651-.355.355-.356 1.068-.509-.204 1.144-3.329zm1.931.737 1.398.534-.153.483-.89-.33-.304.889.686.254-.152.483-.686-.254-.356 1.016.89.33-.153.483-1.398-.533 1.118-3.355zm1.906 1.245-.534-.203.153-.483 1.575.585-.152.483-.534-.204-.965 2.846-.509-.203.966-2.82z" fill="url(#ghydbhb1wh)"/>
        <path d="m44.074 58.35-2.999-1.144.381-1.144 2.999 1.144-.381 1.143zm-.102.304-2.998-1.118-.204.56 2.999 1.143.203-.585zm-.305.89L40.67 58.4l-.204.56 2.999 1.143.203-.56zm-.305.915-2.998-1.144-.407 1.22 2.999 1.143.406-1.22zm-.534 1.575L39.83 60.89l-.203.56 2.998 1.143.203-.56zM41.99 64.6l-2.998-1.143-.204.559 2.999 1.143.203-.559zm-.305.89-2.998-1.144-.204.56 2.999 1.143.203-.56zm.839-2.541-2.999-1.144-.406 1.22 2.998 1.143.407-1.22z" fill="url(#9rmdtqme8i)"/>
        <path d="m304.783 40.585-3.412.409-5.539 19.5 2.709.895 2.582 3.553 3.991-20.611-.331-3.746z" fill="url(#9jh1jzwdej)"/>
        <path d="m304.783 40.585 20.724 4.406-.202 2.934.22 20.432-24.402-3.415 3.383-21.433.277-2.924z" fill="url(#r65tk987bk)"/>
        <path d="M310.357 46.592c.328.044.632-.21.679-.567.048-.358-.179-.682-.506-.726-.328-.044-.632.21-.68.568-.047.357.18.681.507.725z" fill="url(#umj1gvv5al)"/>
        <path d="M319.59 48.357c.327.043.631-.21.679-.568.047-.357-.18-.682-.507-.726-.328-.043-.632.211-.679.568-.048.357.179.682.507.726z" fill="url(#i5qv4b1zhm)"/>
        <path d="M309.972 46.088c.001-.575.284-13.741 5.143-15.11l.822-.22c.074.01 3.046-.498 4.469 2.694 1.333 3.016-.311 13.944-.407 14.383l-.816-.108c.484-3.062 1.503-11.564.486-13.838-1.165-2.583-3.517-2.197-3.554-2.202l-.779.185c-3.487.975-4.419 10.517-4.459 14.214l-.905.002z" fill="url(#zffqo4np9n)"/>
        <path d="m327.496 59.421-11.485-1.166-1.671 16.462 1.533-.811 1.338 1.103 1.533-.812 1.339 1.103 1.532-.811 1.339 1.103 1.533-.812 1.338 1.103 1.671-16.462z" fill="#fff"/>
        <path fill="#C3D3EA" d="m317.252 60.315 5.743.583-.049.478-5.743-.582zM317.237 69.984l7.178.729-.048.478-7.179-.728zM317.009 62.708l2.393.243-.049.478-2.393-.242zM316.767 65.101l3.35.34-.049.479-3.35-.34zM320.921 71.808l3.35.34-.049.478-3.35-.34z"/>
    </g>
    <defs>
        <linearGradient id="bb3q4zy1lb" x1="98.03" y1="97.587" x2="166.431" y2="165.563" gradientUnits="userSpaceOnUse">
            <stop offset=".018" stop-color="#F6EEE3"/>
            <stop offset=".219" stop-color="#fff"/>
            <stop offset=".581" stop-color="#F8F1ED"/>
            <stop offset=".999" stop-color="#F4EAE4"/>
        </linearGradient>
        <linearGradient id="tzae6ow6kc" x1="238.358" y1="79.558" x2="238.358" y2="131.213" gradientUnits="userSpaceOnUse">
            <stop stop-color="#93CF6F"/>
            <stop offset="1" stop-color="#5DA644"/>
        </linearGradient>
        <linearGradient id="cy8co9vr7d" x1="189.719" y1="83.2" x2="179.986" y2="90.447" gradientUnits="userSpaceOnUse">
            <stop stop-color="#493C50"/>
            <stop offset="1" stop-color="#625D7D"/>
        </linearGradient>
        <linearGradient id="4265dnfnke" x1="79.958" y1="74.389" x2="89.056" y2="58.434" gradientUnits="userSpaceOnUse">
            <stop stop-color="#394E54"/>
            <stop offset="1" stop-color="#73A5C0"/>
        </linearGradient>
        <linearGradient id="kksy7vuiyf" x1="76.189" y1="100.931" x2="92.049" y2="75.18" gradientUnits="userSpaceOnUse">
            <stop stop-color="#954848"/>
            <stop offset="1" stop-color="#EB5D5D"/>
        </linearGradient>
        <linearGradient id="ftvae4k3qg" x1="34.21" y1="69.906" x2="28.399" y2="44.381" gradientUnits="userSpaceOnUse">
            <stop stop-color="#ED82A5"/>
            <stop offset=".153" stop-color="#EE8BA0"/>
            <stop offset=".679" stop-color="#EFA490"/>
            <stop offset=".999" stop-color="#F0AD8A"/>
        </linearGradient>
        <linearGradient id="ghydbhb1wh" x1="24.669" y1="59.103" x2="27.418" y2="50.908" gradientUnits="userSpaceOnUse">
            <stop stop-color="#F1E3D1"/>
            <stop offset=".806" stop-color="#F8F1ED"/>
            <stop offset=".999" stop-color="#F4EAE4"/>
        </linearGradient>
        <linearGradient id="9rmdtqme8i" x1="39.089" y1="65.251" x2="43.842" y2="56.864" gradientUnits="userSpaceOnUse">
            <stop offset=".187" stop-color="#B3578F"/>
            <stop offset="1" stop-color="#D4739C"/>
        </linearGradient>
        <linearGradient id="9jh1jzwdej" x1="294.886" y1="59.417" x2="309.921" y2="46.579" gradientUnits="userSpaceOnUse">
            <stop offset=".085" stop-color="#8783A6"/>
            <stop offset="1" stop-color="#374292"/>
        </linearGradient>
        <linearGradient id="r65tk987bk" x1="300.79" y1="64.326" x2="327.805" y2="49.022" gradientUnits="userSpaceOnUse">
            <stop stop-color="#9A96B9"/>
            <stop offset="1" stop-color="#B3AFD2"/>
        </linearGradient>
        <linearGradient id="umj1gvv5al" x1="309.874" y1="45.828" x2="311.057" y2="46.093" gradientUnits="userSpaceOnUse">
            <stop stop-color="#635E5E"/>
            <stop offset="1" stop-color="#717AA2"/>
        </linearGradient>
        <linearGradient id="i5qv4b1zhm" x1="319.068" y1="47.616" x2="320.266" y2="47.775" gradientUnits="userSpaceOnUse">
            <stop stop-color="#635E5E"/>
            <stop offset="1" stop-color="#717AA2"/>
        </linearGradient>
        <linearGradient id="zffqo4np9n" x1="310.787" y1="36.066" x2="322.697" y2="43.737" gradientUnits="userSpaceOnUse">
            <stop stop-color="#635E5E"/>
            <stop offset="1" stop-color="#717AA2"/>
        </linearGradient>
        <clipPath id="b04veeoowa">
            <rect width="345" height="118.68" rx="15" fill="#fff"/>
        </clipPath>
    </defs>
</svg>
