<svg width="345" height="119" viewBox="0 0 345 119" fill="none" xmlns="http://www.w3.org/2000/svg">
    <g clip-path="url(#j53r21drra)">
        <rect width="345" height="118.68" rx="15" fill="#EDDFCD"/>
        <path d="M186.679 137.839c32.983 0 59.72-26.737 59.72-59.72 0-32.982-26.737-59.72-59.72-59.72-32.982 0-59.719 26.738-59.719 59.72 0 32.983 26.737 59.72 59.719 59.72z" fill="#E6D2BE"/>
        <path d="M255.07 134.78c22.484 0 40.71-18.226 40.71-40.71 0-22.483-18.226-40.71-40.71-40.71-22.483 0-40.71 18.227-40.71 40.71 0 22.484 18.227 40.71 40.71 40.71zM100.004 139.702c25.399 0 45.989-20.59 45.989-45.988 0-25.4-20.59-45.989-45.989-45.989-25.399 0-45.988 20.59-45.988 45.989 0 25.398 20.59 45.988 45.988 45.988z" fill="#E6D2BE"/>
        <path d="M98.853 114.181c15.65-1.142 9.822-14.167 26.171-14.738 23.879-.835 25.451 4.898 38.046 5.557 12.594.637 20.103 8.983 21.151 10.147 10.302 11.312 9.931 8.588 19.099 13.333 0 0-25.168 6.545-34.27 5.688-9.102-.856-6.613-6.787-15.148-5.93-8.535.857-6.483-17.901-24.01-13.244-12.704 3.36.982 15.77-23.793 19.262-9.473 1.34-45.38.923-45.38.923s18.729-19.57 38.134-20.998z" fill="url(#7o15bt90fb)"/>
        <path d="M255.253 104.294c15.65-1.142 9.822-14.167 26.171-14.738 23.88-.835 16.284-5.575 28.878-4.916 12.595.637 43.217 13.294 38.378 19.654 10.303 11.311 1.873 9.554 11.04 14.299 0 0-25.167 6.545-34.269 5.688-9.102-.856-6.614-6.787-15.149-5.93-8.534.857-7.114 1.274-24.642 5.93-12.704 3.361 1.614-3.404-23.16.088-9.473 1.34-45.38.923-45.38.923s18.728-19.57 38.133-20.998z" fill="url(#rhz6rxj36c)"/>
        <path d="M254.345 122.36c3.041-31.608-7.486-54.265-15.343-59.996-5.415-5.122-18.9-11.678-30.794 1.463-10.265 11.34-12.791 44.144-10.51 58.533h56.647z" fill="#F2F1EB"/>
        <path d="M324.887 91.333a4.726 4.726 0 1 0 0-9.453 4.726 4.726 0 0 0 0 9.453z" fill="#E6D2BE"/>
        <path d="M287.276 19c1.715-.014 3.096-1.183 3.084-2.613-.011-1.429-1.41-2.576-3.125-2.563-1.715.014-3.096 1.183-3.085 2.612.012 1.43 1.411 2.577 3.126 2.563z" fill="#fff"/>
        <path d="M285.659 21.93a3.278 3.278 0 1 0 0-6.556 3.278 3.278 0 0 0 0 6.556zM292.801 20.481a2.588 2.588 0 1 0 0-5.176 2.588 2.588 0 0 0 0 5.176z" fill="#fff"/>
        <path d="M283.59 22.103a2.07 2.07 0 1 0 0-4.14 2.07 2.07 0 0 0 0 4.14z" fill="#fff"/>
        <path d="M319.263 21.62c-7.797.103-33.155.448-33.603.31-.518-.138-.794-5.244 2.553-5.623 6.969-.828 7.59 1.518 8.142 2.415.552.897 2.725 1.483 7.797 2.035 3.277.345 8.935.345 12.213.483.793.035 1.897.104 2.898.173 1.242.103 1.414.207 0 .207zM280.554 76.268a1.794 1.794 0 1 0 0-3.588 1.794 1.794 0 0 0 0 3.588zM310.914 102.028a1.794 1.794 0 1 0 0-3.587 1.794 1.794 0 0 0 0 3.587zM20.194 95.588a1.794 1.794 0 1 0 0-3.588 1.794 1.794 0 0 0 0 3.588zM182.858 64.498a1.207 1.207 0 1 0 0-2.414 1.207 1.207 0 0 0 0 2.414zM263.408 41.055a1.207 1.207 0 1 0 0-2.414 1.207 1.207 0 0 0 0 2.414z" fill="#fff"/>
        <path d="M27.497 55.074a5.417 5.417 0 1 0 0-10.834 5.417 5.417 0 0 0 0 10.834z" fill="#E6D2BE"/>
        <path d="M33.706 21.298a4.21 4.21 0 1 0 0-8.418 4.21 4.21 0 0 0 0 8.418z" fill="#fff"/>
        <path d="M31.119 24.403a3.519 3.519 0 1 0 0-7.038 3.519 3.519 0 0 0 0 7.038zM38.743 22.885a2.76 2.76 0 1 0 0-5.52 2.76 2.76 0 0 0 0 5.52z" fill="#fff"/>
        <path d="M66.895 24.334c-8.315.034-35.328.207-35.811.069-.552-.173-.794-5.59 2.794-6.003 7.418-.828 8.073 1.69 8.66 2.622.552.966 2.863 1.587 8.314 2.242 3.52.414 9.522.449 13.007.621.862.035 2.035.138 3.07.207 1.277.138 1.484.242-.034.242zM147.695 86.549a1.414 1.414 0 1 0 0-2.828 1.414 1.414 0 0 0 0 2.828zM27.91 79.258a1.76 1.76 0 1 0 0-3.519 1.76 1.76 0 0 0 0 3.519z" fill="#fff"/>
        <path d="M108.363 13.8 92 14.768l1.387 23.453 1.965-1.484 2.126 1.242 1.965-1.484 2.126 1.242 1.965-1.485 2.126 1.243 1.964-1.484 2.126 1.242-1.387-23.453z" fill="#F2EDE6"/>
        <path fill="#BCCDE4" d="m94.207 17.374 8.182-.484.04.682-8.182.484zM96.377 30.929l10.227-.605.04.682-10.227.605zM94.408 20.783l3.409-.202.04.682-3.409.202zM94.61 24.192l4.773-.282.04.682-4.773.282zM101.952 32.652l4.773-.282.04.682-4.773.282z"/>
        <path d="M97.187 24.84 80.96 27.156l3.319 23.258 1.835-1.642 2.222 1.063 1.835-1.641 2.221 1.062 1.836-1.641 2.221 1.063 1.836-1.642 2.221 1.063-3.319-23.259z" fill="#fff"/>
        <path fill="#C3D3EA" d="m83.374 29.571 8.114-1.158.096.676-8.113 1.158zM86.656 42.901l10.142-1.447.097.676-10.142 1.447zM83.856 32.951l3.38-.482.097.676-3.38.482zM84.339 36.332l4.733-.675.097.676-4.734.675zM92.355 44.157l4.733-.675.097.676-4.734.675z"/>
        <path d="m86.029 89.373-2.105-.134-4.163-24.25 8.64-9.066 1.559 1.098-8.146 8.866 4.215 23.486z" fill="url(#uwtn2yf6id)"/>
        <path d="m96.633 96.134-11.4 3.585-10.595-24.456 15.425-5.116 6.57 25.987z" fill="url(#wc66wg95me)"/>
        <path d="m91.965 70.898-18.714 6.088-.701-1.958 18.696-6.165.72 2.035z" fill="#fff"/>
        <path d="m24.067 45.08 24.622 9.02v.026c-.28.839.178 1.779.991 2.084l-3.277 10.088c-.814-.305-1.703.152-1.983.99l-25.029-9.147a1.687 1.687 0 0 0-.99-2.084l3.531-10.24s1.423.584 2.135-.737z" fill="url(#xpgawhalof)"/>
        <path opacity=".6" d="M24.067 51.484c-.076-.204-.076-.407 0-.687l.61-1.778a.895.895 0 0 1 .407-.534c.178-.102.381-.102.635 0s.407.229.483.432c.076.203.076.407 0 .686l-.127.356-.483-.178.127-.381c.076-.203.025-.33-.152-.407-.178-.076-.28 0-.356.204l-.635 1.855c-.077.203-.026.33.152.406.178.076.28 0 .356-.203l.178-.508.482.178-.152.482a.895.895 0 0 1-.406.534c-.178.102-.382.102-.636 0-.229-.102-.406-.254-.483-.457zm2.668-2.541.509.203-1.118 3.329-.509-.204 1.118-3.328zm.89.33.635.254-.178 2.185.66-2.007.458.178-1.092 3.328-.534-.203.203-2.668-.813 2.44-.457-.178 1.118-3.33zm1.982.737 1.397.533-.152.483-.89-.33-.304.89.686.253-.153.483-.686-.254-.355 1.016.889.33-.153.483-1.397-.533 1.118-3.354zm1.677.635.737.28-.483 2.515 1.118-2.261.737.28-1.118 3.328-.483-.178.839-2.516-1.22 2.389-.432-.152.483-2.669-.839 2.516-.432-.178 1.093-3.354zm2.897 1.093.686.254-.585 3.532-.508-.203.127-.687-.584-.228-.305.61-.483-.178 1.652-3.1zm-.204 2.44.33-1.729-.762 1.576.432.152zm-10.265-.789-.534-.203.152-.483 1.576.585-.152.483-.534-.204-.966 2.846-.508-.203.966-2.82zm1.448.026.508.203-1.118 3.303-.508-.203 1.118-3.303zm-.025 3.557c-.077-.203-.077-.406 0-.686l.61-1.779a.894.894 0 0 1 .406-.533c.178-.102.381-.102.635 0 .254.101.407.229.483.432.076.203.076.406 0 .686l-.127.356-.483-.178.127-.382c.076-.203.026-.33-.152-.406-.178-.076-.28 0-.356.203l-.635 1.855c-.076.203-.026.33.152.407.178.076.28 0 .356-.204l.178-.508.483.178-.153.483a.895.895 0 0 1-.406.534c-.178.101-.381.101-.636 0-.254-.127-.406-.28-.482-.458zm2.668-2.566.508.203-.483 1.398 1.118-1.17.508.204-1.016.991-.102 2.338-.533-.203.076-1.652-.356.355-.355 1.068-.509-.204 1.144-3.328zm1.93.737 1.398.533-.152.483-.89-.33-.304.89.686.253-.153.483-.686-.254-.356 1.016.89.33-.153.483-1.397-.533 1.118-3.354zm1.907 1.245-.534-.203.152-.483 1.576.584-.153.483-.533-.203-.966 2.846-.508-.204.966-2.82z" fill="url(#kc838g59lg)"/>
        <path d="m46.834 57.43-2.998-1.144.381-1.143 2.998 1.143-.38 1.143zm-.101.304-2.999-1.118-.203.56 2.998 1.143.204-.585zm-.305.89-2.999-1.144-.203.56 2.998 1.143.204-.56zm-.305.914-2.998-1.143-.407 1.22 2.998 1.143.407-1.22zm-.534 1.576-2.998-1.143-.203.559 2.998 1.143.203-.559zm-.838 2.566-2.999-1.143-.203.559 2.998 1.143.204-.559zm-.305.89-2.999-1.144-.203.56 2.998 1.143.204-.56zm.838-2.541-2.998-1.144-.407 1.22 2.999 1.143.406-1.22z" fill="url(#64pzaucw4h)"/>
        <path d="m305.703 32.305-3.412.409-5.539 19.5 2.709.895 2.582 3.553 3.991-20.611-.331-3.746z" fill="url(#rctlfqzx3i)"/>
        <path d="m305.703 32.304 20.724 4.407-.203 2.934.221 20.432-24.402-3.416 3.383-21.432.277-2.925z" fill="url(#b8cwlc02aj)"/>
        <path d="M311.277 38.312c.328.044.632-.21.679-.567.048-.358-.179-.682-.507-.726-.327-.044-.631.21-.679.568-.047.357.18.682.507.725z" fill="url(#jgi95mwlpk)"/>
        <path d="M320.51 40.077c.327.043.631-.21.679-.568.047-.357-.18-.682-.507-.726-.328-.043-.632.21-.679.568-.048.357.179.682.507.726z" fill="url(#nssqhondwl)"/>
        <path d="M310.892 37.808c.001-.575.284-13.741 5.143-15.11l.822-.22c.074.01 3.046-.498 4.469 2.694 1.333 3.016-.311 13.944-.407 14.383l-.816-.108c.484-3.062 1.503-11.564.486-13.839-1.165-2.582-3.517-2.196-3.554-2.2l-.779.184c-3.487.975-4.419 10.517-4.459 14.214l-.905.002z" fill="url(#r14if7ly6m)"/>
        <path d="m328.416 51.141-11.485-1.165-1.671 16.461 1.533-.811 1.338 1.103 1.533-.812 1.339 1.103 1.532-.811 1.339 1.103 1.533-.812 1.338 1.103 1.671-16.462z" fill="#fff"/>
        <path fill="#C3D3EA" d="m318.172 52.035 5.743.583-.049.478-5.743-.582zM318.157 61.704l7.178.729-.048.478-7.179-.728zM317.929 54.428l2.393.243-.049.478-2.393-.242zM317.687 56.821l3.35.34-.049.479-3.35-.34zM321.841 63.528l3.35.34-.049.479-3.35-.34z"/>
        <path d="M217.428 113.914c-18.991-.678-19.127-36.174-8.547-41.694 0 0-.427 3.763 8.924 4.366 9.351.603 17.47-4.273 20.361-6.787 6.41 16.59 10.934 45.246-20.738 44.115z" fill="#C0D7DC"/>
        <path d="M219.803 72.1c.377-1.132 1.131-.755 1.131-1.132 2.112.603 13.72-5.814 14.6-6.568l5.52 5.52-20.7 10.58c-.377-1.76-1.607-4.706-1.305-5.007.377-.377-.345-.096.754-3.394zM215.382 71.05c-.377-1.13-1.131-.753-1.131-1.13-2.111.603-4.029-3.846-4.909-4.6l-4.14 5.06 9.049 8.28c.3-1.4.947-3.483 1.113-4.045.018.284 1.032-.523.018-3.564z" fill="#9EBFC6"/>
        <path d="M219.922 75.138c.158-3.378 1.495-4.172 1.998-4.298l.264 1.659-2.262 2.64zM216.076 81.412c-.294-3.672-1.171-4.006-1.674-4.132v3.22l1.674.912z" fill="#E2EEF0"/>
        <path d="M216.675 98.877c-2.781 0-9.678-19.23-12.82-29.032-11.689 12.82-12.413 41.198-12.287 52.259l70.172-1.124c-1.245-25.728 1.84-43.24-13.34-53.36-2.841-2.3-7.879-3.68-9.2-3.68-13.95 16.213-18.974 34.937-22.525 34.937z" fill="url(#nnvudhr8xn)"/>
        <path d="M218.354 71.276c-9.075-.825-9.6-4.698-9.6-5.83.377-1.885 1.508-1.759 1.508-1.13.377 1.508 1.682 4.038 8.469 4.32 7.239.302 14.327-4.901 18.098-7.54.251 0 .754.15.754.754 0 .754.754.754.754 1.13 0 .378-5.279 6.788-19.983 8.296z" fill="#223A5A"/>
        <path d="M215.543 73.372c-1.319-.33-1.508-3.77-.377-4.525 1.886-.753 2.64-.753 4.902 0 1.81.604.754 3.394 0 4.148-1.508.754-3.017.754-4.525.377z" fill="#223A5A"/>
        <path d="m216.242 96.055-3.68-6.9.764-8.876 1.84-10.964h4.901l1.079 16.484.616 4.276-5.52 5.98z" fill="#223A5A"/>
        <path d="M208.422 64.315c.569 1.217 2.184 3.423 6.097 5.705-1.423 4.183-7.36 12.873-7.36 11.96 0-1.141-3.797-12.605-3.797-12.605s4.349-6.58 5.06-5.06zM223.65 84.096l-2.663-13.69c5.324 0 12.788-6.232 16.833-10.146 1.174-.758 3.22 2.39 5.561 6.355.641 1.085-12.42 13.34-19.731 17.48z" fill="#E2EEF0"/>
        <path d="M227.106 16.05c-16.136-3.487-30.587 8.263-31.369 21.816-1.382 23.953 14.484 28.374 23.684 28.374 15.037 0 24.839-8.74 27.599-21.16.92-11.5-3.777-25.544-19.914-29.03z" fill="#fff"/>
        <path d="M201.812 14.774c10.458 17.62 15.922 15.604 7.853 21.952l-5.435-2.342c-2.751-4.96-12.382-16.519-24.569-19.293-13.148-2.993-20.459-9.327-16.3-12.492 4.159-3.165 29.534-2.851 38.451 12.175zM250.2 8.753c0 18.08-13.233 36.762-22.974 41.84l-11.634-5.166c9.328-3.718 18.5-16.529 18.5-28.569 0-22.582-13.539-36.606-6.866-38.511 6.673-1.905 22.974 8.17 22.974 30.406z" fill="#fff"/>
        <path d="M213.481 49.028c.403.53 1.63 1.608 3.32 1.693" stroke="#CFD1D1" stroke-linecap="round"/>
        <path d="M216.959 53.643a.5.5 0 1 0 .949-.316l-.949.316zm-.465-2.793c0 .578.003 1.406.465 2.793l.949-.316c-.416-1.248-.414-1.958-.414-2.477h-1z" fill="#CFD1D1"/>
        <path d="m216.994 50.85-.043-.498-.033.992.076-.494zm3.939-1.933a.5.5 0 0 0-.852-.525l.852.525zm-3.663 1.407-.319.028.086.996.32-.027-.087-.997zm-.352 1.02c.525.081 1.263-.105 1.967-.486a5.486 5.486 0 0 0 2.048-1.941l-.852-.525a4.481 4.481 0 0 1-1.672 1.586c-.611.33-1.119.412-1.338.378l-.153.988z" fill="#CFD1D1"/>
        <path d="M195.96 89.24c5.06-10.58 9.598-20.411 6.441-19.78C193.2 71.3 179.4 84.64 175.26 93.84c-2.202 4.894-1.173 20.409 5.98 15.64 8.28-5.52 7.412-4.96 14.72-20.24z" fill="#fff"/>
        <ellipse cx="3.815" cy="3.007" rx="3.815" ry="3.007" transform="scale(1 -1) rotate(-59.765 81.923 -216.233)" fill="#D96459"/>
        <ellipse cx="3.721" cy="2.683" rx="3.721" ry="2.683" transform="scale(1 -1) rotate(70.899 133.639 123.486)" fill="#D96459"/>
        <path d="m176.18 127.88-9.2-30.36 60.72 1.84 4.6 28.52h-56.12z" fill="#C4BD82"/>
        <path d="M240.58 75.44 227.7 99.36l5.06 33.58 11.5-20.7-3.68-36.8z" fill="#9F9960"/>
        <path d="m227.7 99.36-60.72-1.84 19.78-21.16 53.82-.92-12.88 23.92z" fill="#F2ECAF"/>
        <path d="m185.661 87.367 2.299-2.955a.598.598 0 0 1 .473-.232h34.895a.6.6 0 0 1 .491.944l-2.377 3.396a.6.6 0 0 1-.499.256l-34.816-.44a.6.6 0 0 1-.466-.97z" fill="#655E54"/>
        <path d="M202.673 73.474c4.364 3.978 6.06 9.224 3.788 11.716-2.272 2.492-7.435 1.05-11.799-2.928-4.365-3.978-6.277-8.986-4.005-11.479 2.273-2.492 7.652-1.288 12.016 2.69z" fill="url(#0fnp6724oo)"/>
        <path transform="rotate(42.353 191.74 69.596)" fill="url(#wk70ag71tp)" d="M191.74 69.596h21.385v1.928H191.74z"/>
        <ellipse cx="199.642" cy="76.799" rx="5.785" ry="10.692" transform="rotate(-47.647 199.642 76.799)" fill="url(#d7ehgcechq)"/>
        <path fill-rule="evenodd" clip-rule="evenodd" d="M197.718 71.07c-1.47-.39-2.666-.215-3.326.508-.659.724-.723 1.93-.199 3.358.521 1.419 1.605 3 3.138 4.398 1.533 1.397 3.208 2.331 4.668 2.719 1.47.39 2.666.215 3.326-.508.66-.724.723-1.93.199-3.359-.521-1.418-1.605-3-3.138-4.397-1.533-1.397-3.208-2.331-4.668-2.719zm.096-.42c1.544.41 3.283 1.386 4.86 2.824 1.576 1.437 2.709 3.078 3.259 4.578.547 1.49.536 2.897-.28 3.792-.815.895-2.216 1.036-3.75.629-1.544-.41-3.283-1.386-4.859-2.824-1.577-1.437-2.71-3.078-3.26-4.578-.547-1.49-.535-2.897.28-3.792.815-.894 2.216-1.036 3.75-.629z" fill="#AF514B" fill-opacity=".2"/>
        <path d="M194.503 71.68c.603-.662 1.726-.85 3.176-.465 1.433.38 3.087 1.3 4.606 2.685 1.519 1.385 2.587 2.947 3.098 4.338.517 1.409.434 2.544-.169 3.206-.603.661-1.726.849-3.176.464-1.433-.38-3.087-1.3-4.606-2.685-1.518-1.385-2.587-2.947-3.098-4.338-.517-1.409-.434-2.544.169-3.206zm8.272 1.683c-1.591-1.45-3.35-2.44-4.922-2.858-1.554-.412-3.028-.284-3.9.673-.872.957-.864 2.436-.31 3.945.56 1.527 1.709 3.187 3.3 4.637 1.59 1.45 3.35 2.44 4.921 2.858 1.554.412 3.028.284 3.9-.673.872-.957.864-2.436.31-3.945-.56-1.527-1.709-3.187-3.299-4.637z" stroke="#AF514B" stroke-opacity=".2" stroke-width=".3"/>
        <path d="M145.62 48.08c3.219 2.807 4.569 6.525 3.017 8.305-1.552 1.78-5.272.779-8.49-2.028-3.219-2.806-4.717-6.355-3.165-8.135 1.552-1.78 5.42-.948 8.638 1.858z" fill="url(#exat5e36qr)"/>
        <path transform="rotate(41.09 137.722 45.373)" fill="url(#c6wvnc28xs)" d="M137.722 45.373h15.464v1.35h-15.464z"/>
        <ellipse cx="143.55" cy="50.456" rx="4.051" ry="7.732" transform="rotate(-48.91 143.55 50.456)" fill="url(#ui36a9kxzt)"/>
        <path fill-rule="evenodd" clip-rule="evenodd" d="M142.023 46.395c-1.059-.27-1.906-.142-2.357.375-.451.517-.464 1.374-.051 2.386.409 1.005 1.225 2.124 2.355 3.11 1.131.986 2.35 1.642 3.402 1.91 1.058.271 1.906.142 2.356-.375.451-.517.464-1.374.052-2.386-.41-1.005-1.226-2.123-2.356-3.11-1.131-.985-2.35-1.641-3.401-1.91zm.057-.299c1.112.284 2.377.97 3.54 1.984 1.163 1.014 2.015 2.175 2.448 3.238.43 1.056.46 2.056-.097 2.694-.558.64-1.552.746-2.657.463-1.112-.284-2.377-.97-3.54-1.984-1.163-1.014-2.015-2.174-2.448-3.237-.43-1.056-.46-2.056.098-2.695.557-.639 1.551-.745 2.656-.463z" fill="#AF514B" fill-opacity=".17"/>
        <path d="M139.779 46.869c.394-.452 1.166-.595 2.206-.329 1.025.262 2.223.905 3.34 1.879s1.917 2.074 2.316 3.053c.405.994.368 1.779-.026 2.23-.393.452-1.166.595-2.206.33-1.025-.263-2.223-.906-3.34-1.88-1.117-.973-1.917-2.073-2.315-3.052-.406-.995-.369-1.78.025-2.231zm5.94 1.098c-1.177-1.026-2.463-1.725-3.602-2.016-1.122-.287-2.192-.195-2.806.51-.615.704-.561 1.776-.123 2.85.443 1.088 1.311 2.267 2.487 3.293 1.177 1.026 2.463 1.725 3.602 2.017 1.123.287 2.192.194 2.807-.51.614-.704.56-1.777.123-2.85-.444-1.089-1.312-2.268-2.488-3.294z" stroke="#AF514B" stroke-opacity=".17" stroke-width=".3"/>
        <path d="M167.403 51.336c-4.477-.64-7.818-3.178-7.462-5.667.356-2.489 4.241-3.75 8.718-3.108 4.478.64 7.853 2.94 7.496 5.43-.356 2.488-4.274 3.986-8.752 3.345z" fill="url(#3vcgsxd4uu)"/>
        <path transform="rotate(-171.853 175.985 49.176)" fill="url(#wyp9gu4vbv)" d="M175.985 49.176h16.38v1.438h-16.38z"/>
        <ellipse cx="167.878" cy="48.016" rx="4.313" ry="8.19" transform="rotate(98.147 167.878 48.016)" fill="url(#wgxg9wg3iw)"/>
        <path d="M135.249 14.658c-1.8-2.345-2.346-4.948-1.219-5.813 1.128-.866 3.394.416 5.194 2.76 1.801 2.346 2.454 4.866 1.327 5.732-1.128.865-3.501-.334-5.302-2.679z" fill="url(#ratn6kdxx)"/>
        <path transform="rotate(-127.519 140.014 17.749)" fill="url(#mx3sahf68y)" d="M140.014 17.749h10.706v.813h-10.706z"/>
        <ellipse cx="136.753" cy="13.503" rx="2.438" ry="5.353" transform="rotate(142.481 136.753 13.503)" fill="url(#7n92desucz)"/>
        <path d="M167.934 59.548c-2.482-3.87-2.589-8.23-.241-9.736 2.349-1.505 6.041.555 8.523 4.427 2.482 3.87 2.814 8.086.465 9.592-2.349 1.506-6.265-.412-8.747-4.283z" fill="url(#47k0fvaodA)"/>
        <path transform="rotate(-122.665 175.562 64.548)" fill="url(#mvokb1qmyB)" d="M175.562 64.548h16.652v1.595h-16.652z"/>
        <ellipse cx="171.068" cy="57.539" rx="4.786" ry="8.326" transform="rotate(147.335 171.068 57.54)" fill="url(#slee6yy9fC)"/>
        <path fill-rule="evenodd" clip-rule="evenodd" d="M171.243 62.313c1.056.57 2.028.656 2.711.218.682-.437 1.01-1.356.932-2.554-.077-1.19-.557-2.61-1.429-3.97-.871-1.36-1.961-2.387-3.01-2.954-1.056-.571-2.029-.656-2.711-.219-.682.437-1.011 1.357-.933 2.554.078 1.19.558 2.61 1.429 3.97.872 1.36 1.962 2.388 3.011 2.955zm-.173.306c-1.109-.6-2.238-1.672-3.135-3.07-.897-1.4-1.4-2.873-1.482-4.132-.081-1.25.253-2.334 1.096-2.874.843-.54 1.968-.393 3.07.203 1.11.6 2.239 1.672 3.136 3.071.896 1.399 1.4 2.873 1.482 4.13.081 1.251-.254 2.335-1.097 2.876-.843.54-1.967.392-3.07-.204z" fill="#AF514B" fill-opacity=".2"/>
        <path d="M173.873 62.405c-.616.394-1.524.335-2.559-.224-1.023-.553-2.095-1.562-2.955-2.904-.861-1.343-1.33-2.738-1.406-3.898-.076-1.174.249-2.024.864-2.419.615-.394 1.524-.335 2.559.224 1.022.553 2.094 1.562 2.955 2.905.861 1.342 1.33 2.737 1.406 3.898.076 1.173-.249 2.024-.864 2.418zm-6.064-2.776c.907 1.416 2.055 2.508 3.19 3.122 1.123.607 2.312.781 3.222.198.91-.584 1.248-1.737 1.165-3.01-.084-1.289-.597-2.787-1.505-4.203-.908-1.416-2.055-2.508-3.19-3.122-1.124-.607-2.313-.781-3.223-.198-.91.584-1.248 1.737-1.165 3.011.084 1.288.598 2.786 1.506 4.202z" stroke="#AF514B" stroke-opacity=".2" stroke-width=".3"/>
        <path d="M244.282 88.2c1.03-12.418.994-22.34 7.338-18.28 11.5 7.36 7.127 23.973 2.3 31.28-2.958 4.478-17.485 14.067-20.24 2.76-2.129-8.74 10.019-8.74 10.602-15.76z" fill="#fff"/>
        <path d="M282.818 106.642h-5.537c.629 1.134 1.535 2.075 2.718 2.811 1.196-.724 2.165-1.641 2.819-2.811zm.717-.917.642.386c-.717 1.641-1.862 2.883-3.309 3.824 1.371.676 2.995 1.135 4.87 1.352a4.055 4.055 0 0 0-.579.868c-2.026-.301-3.775-.844-5.197-1.665-1.561.833-3.386 1.376-5.286 1.726a3.567 3.567 0 0 0-.516-.857c1.787-.277 3.486-.724 4.946-1.424a8.768 8.768 0 0 1-2.807-3.197l.277-.096h-1.334v-.881h4.204v-1.846h-4.77v-.881h4.77V101.2h.956v1.834h4.795v.881h-4.795v1.846h2.945l.188-.036zM291.413 106.436l.126.821-1.346.422v3.415c0 .494-.114.724-.428.868-.29.145-.768.181-1.573.169a3.02 3.02 0 0 0-.265-.832c.541.012 1.032.012 1.171.012.163 0 .226-.048.226-.229v-3.137c-.566.181-1.095.35-1.56.482l-.252-.856c.491-.133 1.12-.314 1.812-.519v-2.606h-1.636v-.833h1.636V101.2h.869v2.413h1.296v.833h-1.296v2.352l1.22-.362zm1.347 2.389.717-.398c.491.664 1.12 1.533 1.422 2.076l-.768.446c-.276-.543-.881-1.46-1.371-2.124zm4.782-2.642v1.074h1.548v.82h-1.548v3.089c0 .531-.126.772-.491.917-.378.145-.982.157-1.913.157a3.23 3.23 0 0 0-.289-.869c.704.024 1.371.024 1.548.012.201-.012.251-.06.251-.229v-3.077h-4.82v-.82h4.82v-1.074h.894zm-1.661-3.439h3.284v.833h-3.284v1.472h2.705v.82h-6.279v-.82h2.68v-1.472h-3.297v-.833h3.297v-1.496h.894v1.496zM312.139 103.517l-.755.518c-.377-.567-1.233-1.435-1.963-2.051l.718-.47c.717.591 1.598 1.435 2 2.003zm-1.12 2.63.831.326a12.217 12.217 0 0 1-2.19 2.835c.479 1.267 1.045 2.039 1.674 2.039.34 0 .491-.615.566-2.16.202.193.529.399.793.483-.176 1.991-.503 2.57-1.447 2.57-.994 0-1.749-.845-2.328-2.256a13.123 13.123 0 0 1-2.655 1.773 3.428 3.428 0 0 0-.642-.712 12.435 12.435 0 0 0 2.982-1.954c-.302-1.002-.541-2.196-.704-3.499h-2.958v1.93c.743-.157 1.51-.313 2.253-.47l.063.808c-.768.181-1.548.35-2.316.519v2.679c0 .579-.151.844-.541.989-.39.145-1.07.169-2.089.169a4.057 4.057 0 0 0-.352-.905c.805.036 1.548.024 1.762.012.226 0 .302-.06.302-.278v-2.449c-.944.193-1.85.398-2.605.555l-.265-.905c.755-.12 1.775-.326 2.87-.543v-2.111h-2.693v-.857h2.693v-1.918c-.781.145-1.573.265-2.316.362a3.089 3.089 0 0 0-.302-.748c1.762-.254 3.788-.664 4.971-1.086l.667.736c-.604.205-1.334.398-2.102.555v2.099h2.882a37.576 37.576 0 0 1-.176-3.439h.956c0 1.207.051 2.365.151 3.439h3.7v.857h-3.599a20.28 20.28 0 0 0 .516 2.751 10.408 10.408 0 0 0 1.648-2.196zM317.01 101.26l.868.23a20.244 20.244 0 0 1-.982 2.352v8.362h-.893v-6.757a12.42 12.42 0 0 1-1.183 1.617 6.389 6.389 0 0 0-.491-.905c1.082-1.207 2.077-3.041 2.681-4.899zm3.674 1.34h-1.749v1.098h1.749V102.6zm-1.749 2.944h1.749v-1.171h-1.749v1.171zm2.492-3.656v4.355h-2.492v5.937h-.868v-10.292h3.36zm1.522 3.656h1.85v-1.171h-1.85v1.171zm1.85-2.944h-1.85v1.098h1.85V102.6zm.881-.712v9.145c0 .58-.138.857-.554 1.002-.427.145-1.157.157-2.34.157a4.757 4.757 0 0 0-.315-.857c.894.024 1.762.024 2.001.012.239-.012.327-.084.327-.326v-4.778h-2.617v-4.355h3.498z" fill="#B0794E"/>
        <path fill-rule="evenodd" clip-rule="evenodd" d="M333.557 107.955v2.457l4.914-3.686-4.914-3.686v2.457h-3.277v2.458h3.277z" fill="#B0784E"/>
    </g>
    <defs>
        <linearGradient id="7o15bt90fb" x1="98.03" y1="97.587" x2="166.431" y2="165.563" gradientUnits="userSpaceOnUse">
            <stop offset=".018" stop-color="#F6EEE3"/>
            <stop offset=".219" stop-color="#fff"/>
            <stop offset=".581" stop-color="#F8F1ED"/>
            <stop offset=".999" stop-color="#F4EAE4"/>
        </linearGradient>
        <linearGradient id="rhz6rxj36c" x1="247.99" y1="85.627" x2="316.391" y2="153.603" gradientUnits="userSpaceOnUse">
            <stop offset=".018" stop-color="#F6EEE3"/>
            <stop offset=".219" stop-color="#fff"/>
            <stop offset=".581" stop-color="#F8F1ED"/>
            <stop offset=".999" stop-color="#F4EAE4"/>
        </linearGradient>
        <linearGradient id="uwtn2yf6id" x1="80.974" y1="74.89" x2="88.945" y2="58.343" gradientUnits="userSpaceOnUse">
            <stop stop-color="#394E54"/>
            <stop offset="1" stop-color="#73A5C0"/>
        </linearGradient>
        <linearGradient id="wc66wg95me" x1="79.626" y1="98.804" x2="93.665" y2="72.017" gradientUnits="userSpaceOnUse">
            <stop stop-color="#954848"/>
            <stop offset="1" stop-color="#EB5D5D"/>
        </linearGradient>
        <linearGradient id="xpgawhalof" x1="36.971" y1="68.986" x2="31.16" y2="43.461" gradientUnits="userSpaceOnUse">
            <stop stop-color="#ED82A5"/>
            <stop offset=".153" stop-color="#EE8BA0"/>
            <stop offset=".679" stop-color="#EFA490"/>
            <stop offset=".999" stop-color="#F0AD8A"/>
        </linearGradient>
        <linearGradient id="kc838g59lg" x1="27.43" y1="58.183" x2="30.179" y2="49.989" gradientUnits="userSpaceOnUse">
            <stop stop-color="#F1E3D1"/>
            <stop offset=".806" stop-color="#F8F1ED"/>
            <stop offset=".999" stop-color="#F4EAE4"/>
        </linearGradient>
        <linearGradient id="64pzaucw4h" x1="41.849" y1="64.331" x2="46.602" y2="55.945" gradientUnits="userSpaceOnUse">
            <stop offset=".187" stop-color="#B3578F"/>
            <stop offset="1" stop-color="#D4739C"/>
        </linearGradient>
        <linearGradient id="rctlfqzx3i" x1="295.806" y1="51.137" x2="310.841" y2="38.299" gradientUnits="userSpaceOnUse">
            <stop offset=".085" stop-color="#8783A6"/>
            <stop offset="1" stop-color="#374292"/>
        </linearGradient>
        <linearGradient id="b8cwlc02aj" x1="301.71" y1="56.046" x2="328.725" y2="40.742" gradientUnits="userSpaceOnUse">
            <stop stop-color="#9A96B9"/>
            <stop offset="1" stop-color="#B3AFD2"/>
        </linearGradient>
        <linearGradient id="jgi95mwlpk" x1="310.794" y1="37.548" x2="311.977" y2="37.813" gradientUnits="userSpaceOnUse">
            <stop stop-color="#635E5E"/>
            <stop offset="1" stop-color="#717AA2"/>
        </linearGradient>
        <linearGradient id="nssqhondwl" x1="319.988" y1="39.336" x2="321.185" y2="39.495" gradientUnits="userSpaceOnUse">
            <stop stop-color="#635E5E"/>
            <stop offset="1" stop-color="#717AA2"/>
        </linearGradient>
        <linearGradient id="r14if7ly6m" x1="311.707" y1="27.786" x2="323.617" y2="35.457" gradientUnits="userSpaceOnUse">
            <stop stop-color="#635E5E"/>
            <stop offset="1" stop-color="#717AA2"/>
        </linearGradient>
        <linearGradient id="nnvudhr8xn" x1="226.284" y1="65.32" x2="226.284" y2="116.976" gradientUnits="userSpaceOnUse">
            <stop stop-color="#93CF6F"/>
            <stop offset=".33" stop-color="#6DCD4B"/>
            <stop offset="1" stop-color="#498734"/>
        </linearGradient>
        <linearGradient id="0fnp6724oo" x1="190.59" y1="71.656" x2="206.528" y2="87.565" gradientUnits="userSpaceOnUse">
            <stop stop-color="#FFEA7C"/>
            <stop offset="1" stop-color="#C9991F"/>
        </linearGradient>
        <linearGradient id="wk70ag71tp" x1="191.74" y1="70.56" x2="213.125" y2="70.56" gradientUnits="userSpaceOnUse">
            <stop stop-color="#FCE272"/>
            <stop offset="1" stop-color="#C9991F"/>
        </linearGradient>
        <linearGradient id="d7ehgcechq" x1="198.989" y1="66.645" x2="197.912" y2="89.136" gradientUnits="userSpaceOnUse">
            <stop stop-color="#F4BE33"/>
            <stop offset="1" stop-color="#F9E168"/>
        </linearGradient>
        <linearGradient id="exat5e36qr" x1="136.958" y1="46.842" x2="148.716" y2="58.106" gradientUnits="userSpaceOnUse">
            <stop stop-color="#FDFFA6"/>
            <stop offset=".815" stop-color="#F9D476"/>
        </linearGradient>
        <linearGradient id="c6wvnc28xs" x1="137.722" y1="46.049" x2="153.186" y2="46.049" gradientUnits="userSpaceOnUse">
            <stop stop-color="#FBECA0"/>
            <stop offset=".755" stop-color="#F9D476"/>
        </linearGradient>
        <linearGradient id="ui36a9kxzt" x1="143.092" y1="43.112" x2="142.288" y2="59.374" gradientUnits="userSpaceOnUse">
            <stop stop-color="#FFE178"/>
            <stop offset="1" stop-color="#F2C44F"/>
        </linearGradient>
        <linearGradient id="3vcgsxd4uu" x1="175.82" y1="47.423" x2="158.879" y2="44.186" gradientUnits="userSpaceOnUse">
            <stop offset=".016" stop-color="#F2C44C"/>
            <stop offset="1" stop-color="#FFEA7C"/>
        </linearGradient>
        <linearGradient id="wyp9gu4vbv" x1="175.985" y1="49.895" x2="192.365" y2="49.895" gradientUnits="userSpaceOnUse">
            <stop stop-color="#F4C445"/>
            <stop offset=".86" stop-color="#FCE272"/>
        </linearGradient>
        <linearGradient id="wgxg9wg3iw" x1="167.391" y1="40.238" x2="166.544" y2="57.463" gradientUnits="userSpaceOnUse">
            <stop offset=".44" stop-color="#EAB11F"/>
            <stop offset="1" stop-color="#FCCF5C"/>
        </linearGradient>
        <linearGradient id="ratn6kdxx" x1="140.617" y1="16.946" x2="134.245" y2="7.651" gradientUnits="userSpaceOnUse">
            <stop offset=".016" stop-color="#F2C44C"/>
            <stop offset="1" stop-color="#FFEA7C"/>
        </linearGradient>
        <linearGradient id="mx3sahf68y" x1="140.014" y1="18.155" x2="150.72" y2="18.155" gradientUnits="userSpaceOnUse">
            <stop stop-color="#F4C445"/>
            <stop offset=".86" stop-color="#FCE272"/>
        </linearGradient>
        <linearGradient id="7n92desucz" x1="136.478" y1="8.419" x2="135.838" y2="19.669" gradientUnits="userSpaceOnUse">
            <stop offset=".44" stop-color="#EAB11F"/>
            <stop offset="1" stop-color="#FCCF5C"/>
        </linearGradient>
        <linearGradient id="47k0fvaodA" x1="176.935" y1="63.17" x2="168.108" y2="48.016" gradientUnits="userSpaceOnUse">
            <stop offset=".016" stop-color="#F2C44C"/>
            <stop offset="1" stop-color="#FFEA7C"/>
        </linearGradient>
        <linearGradient id="mvokb1qmyB" x1="175.562" y1="65.346" x2="192.214" y2="65.346" gradientUnits="userSpaceOnUse">
            <stop stop-color="#F4C445"/>
            <stop offset=".86" stop-color="#FCE272"/>
        </linearGradient>
        <linearGradient id="slee6yy9fC" x1="170.527" y1="49.632" x2="169.738" y2="67.15" gradientUnits="userSpaceOnUse">
            <stop stop-color="#EAB11F"/>
            <stop offset="1" stop-color="#FADA6A"/>
        </linearGradient>
        <clipPath id="j53r21drra">
            <rect width="345" height="118.68" rx="15" fill="#fff"/>
        </clipPath>
    </defs>
</svg>
