<svg width="245" height="48" viewBox="0 0 245 48" fill="none" xmlns="http://www.w3.org/2000/svg">
    <rect width="245" height="48" rx="13" fill="#F7F9F9"/>
    <path d="M26.285 28.623v1.241h4.624v-1.241h-4.624zm-9.384-9.673v1.241h6.528V18.95h-6.528zm8.806-1.105v13.26h1.241V19.069h3.281v11.917h1.292V17.845h-5.814zm-2.618 1.105v.306c-.119 7.276-.272 9.792-.663 10.319-.153.221-.306.272-.561.255-.323 0-1.054 0-1.853-.068.221.357.357.918.374 1.292.765.051 1.547.051 2.023-.017.51-.051.816-.204 1.122-.646.544-.748.663-3.23.799-10.795v-.646h-1.241zm-3.774-2.992c-.017 5.95 0 11.56-2.839 14.552.323.187.765.578.986.867 2.992-3.247 3.077-9.146 3.094-15.419h-1.241zm17.136.799v1.292h4.811v-1.292h-4.811zm4.165 0c0 3.196.561 10.438 7.361 14.552.238-.306.748-.85 1.037-1.071-6.715-3.978-7.089-10.438-7.089-13.481h-1.309zm-.476 3.332c-1.037 4.811-3.162 8.245-6.936 10.217.34.238.918.765 1.156 1.037 3.757-2.21 6.001-5.797 7.225-10.982l-1.445-.272zm10.778-.969v1.258h13.515V19.12H50.918zm.782 4.998v1.241h12.019v-1.241H51.7zm-1.564 5.423v1.258h15.147v-1.258H50.136zm6.851-9.418v10.064h1.377V20.123h-1.377zm-1.462-3.621c1.122.833 2.465 2.04 3.077 2.839l1.105-.799c-.663-.816-2.04-1.972-3.145-2.754l-1.037.714zm18.088 8.925v3.417h1.19v-3.417h-1.19zm-6.97 4.539v.918h15.283v-.918H66.643zm.034-11.526v.799h15.198v-.799H66.677zm-.034 5.1v.901h15.283v-.901H66.643zm1.309-1.683v.799h12.75v-.799h-12.75zm.527-5.083v.799h10.268v2.601h-10.37v.799h11.645v-4.199H68.479zm5.083-1.054v8.177h1.292V15.72h-1.292zm-3.723 11.798h8.925v.901h-8.925v-.901zm0-1.581h8.925v.867h-8.925v-.867zm-1.258-.765v3.995h11.475v-3.995H68.581zm19.822-1.887v1.054h4.658v-1.054h-4.658zm0 2.958v1.054h4.709v-1.054h-4.709zm-3.502 3.043v1.19h12.002v-1.19H84.901zm-.782-9.078v11.169h1.241v-9.979h10.948v9.979H97.6V20.208H84.119zm3.689.748v8.874h1.156v-8.874h-1.156zm4.76 0v8.823h1.173v-8.823h-1.173zm-2.55-3.536c-.119.986-.459 2.397-.731 3.315l1.156.323c.34-.85.697-2.159 1.054-3.298l-1.479-.34zm-6.664-.561v1.224h15.062v-1.224H83.354z" fill="#000"/>
    <g clip-path="url(#d54ufezfoa)">
        <path fill-rule="evenodd" clip-rule="evenodd" d="M213 16h12a2 2 0 0 1 2 2v12a2 2 0 0 1-2 2h-12a2 2 0 0 1-2-2V18a2 2 0 0 1 2-2zm-4 2a4 4 0 0 1 4-4h12a4 4 0 0 1 4 4v12a4 4 0 0 1-4 4h-12a4 4 0 0 1-4-4V18zm10 1a1 1 0 0 1 1 1v3h3a1 1 0 0 1 0 2h-3v3a1 1 0 0 1-2 0v-3h-3a1 1 0 0 1 0-2h3v-3a1 1 0 0 1 1-1z" fill="#000"/>
    </g>
    <defs>
        <clipPath id="d54ufezfoa">
            <path fill="#fff" transform="translate(209 14)" d="M0 0h20v20H0z"/>
        </clipPath>
    </defs>
</svg>
