<svg width="240" height="36" viewBox="0 0 240 36" fill="none" xmlns="http://www.w3.org/2000/svg">
    <path fill="#F7F9F9" d="M0 3h239.189v30H0z"/>
    <path d="M20.24 17.892c0 .165.059.31.184.434l5.224 5.098a.567.567 0 0 0 .428.177.59.59 0 0 0 .607-.598.618.618 0 0 0-.178-.428l-4.797-4.683 4.797-4.682a.63.63 0 0 0 .178-.428.59.59 0 0 0-.607-.598.587.587 0 0 0-.428.17l-5.224 5.104a.582.582 0 0 0-.185.434zM74.589 17.843c0 .165-.06.31-.185.434l-5.224 5.098a.567.567 0 0 1-.428.177.59.59 0 0 1-.606-.598c0-.171.072-.316.177-.428l4.797-4.683-4.797-4.682a.63.63 0 0 1-.177-.428.59.59 0 0 1 .606-.598c.17 0 .316.059.428.17l5.224 5.104c.126.119.185.27.185.434z" fill="#007AFF"/>
    <path fill="#F7F9F9" d="M96.29 3h45.997v30H96.29z"/>
    <path d="M119.281 20.244a.53.53 0 0 0 .527-.512v-6.755l-.039-.986.441.466 1.002 1.066a.47.47 0 0 0 .355.158.464.464 0 0 0 .481-.467.465.465 0 0 0-.158-.342l-2.227-2.144c-.131-.132-.243-.178-.382-.178-.131 0-.243.046-.382.178l-2.227 2.144a.461.461 0 0 0-.151.342c0 .27.197.467.474.467.125 0 .27-.053.363-.158l.994-1.066.448-.466-.039.986v6.755c0 .276.237.512.52.512zm-3.775 5.15h7.557c1.377 0 2.069-.684 2.069-2.039v-6.563c0-1.355-.692-2.04-2.069-2.04h-1.838v1.06h1.818c.652 0 1.028.355 1.028 1.039v6.445c0 .684-.376 1.04-1.028 1.04h-7.524c-.658 0-1.021-.356-1.021-1.04v-6.445c0-.684.363-1.04 1.021-1.04h1.825v-1.058h-1.838c-1.377 0-2.068.684-2.068 2.039v6.563c0 1.355.691 2.04 2.068 2.04zM160.113 22.855c0 .54.356.75.745.75.224 0 .415-.132.665-.283a4.506 4.506 0 0 1 2.537-.79c.948.007 1.89.356 2.628 1.066.29.263.501.349.745.349.237 0 .454-.086.738-.349a3.836 3.836 0 0 1 2.635-1.065 4.483 4.483 0 0 1 2.53.789c.25.151.441.283.672.283.382 0 .738-.21.738-.75V13.93a.518.518 0 0 0-.079-.316c-.587-1.019-2.076-1.88-3.887-1.88-1.437 0-2.682.572-3.347 1.38-.666-.808-1.917-1.38-3.347-1.38-1.818 0-3.307.861-3.894 1.88a.563.563 0 0 0-.079.316v8.925zm1.061-.56v-8.214c.534-.77 1.693-1.289 2.912-1.289 1.252 0 2.345.526 2.813 1.329v8.287c-.672-.533-1.719-.934-2.813-.934-1.146 0-2.214.322-2.912.822zm6.786.113V14.12c.468-.803 1.568-1.329 2.82-1.329 1.212 0 2.371.52 2.905 1.29v8.214c-.698-.5-1.766-.822-2.905-.822-1.101 0-2.148.4-2.82.934zM210.062 21.697h1.126v1.007c0 1.354.686 2.038 2.069 2.038h6.615c1.37 0 2.062-.684 2.062-2.038v-6.656c0-1.355-.692-2.039-2.062-2.039h-1.133v-1.006c0-1.355-.692-2.039-2.063-2.039h-6.614c-1.384 0-2.069.684-2.069 2.039v6.656c0 1.354.685 2.038 2.069 2.038zm.013-1.058c-.659 0-1.021-.356-1.021-1.04v-6.537c0-.684.362-1.04 1.021-1.04h6.582c.652 0 1.021.356 1.021 1.04v.947h-4.421c-1.383 0-2.069.678-2.069 2.039v4.59h-1.113zm3.195 3.045c-.652 0-1.021-.356-1.021-1.04v-6.537c0-.684.369-1.04 1.021-1.04h6.582c.652 0 1.021.356 1.021 1.04v6.538c0 .683-.369 1.039-1.021 1.039h-6.582z" fill="#007AFF"/>
    <path d="M136 18c0 9.389-7.611 17-17 17s-17-7.611-17-17 7.611-17 17-17 17 7.611 17 17z" stroke="#F38181" stroke-width="2"/>
</svg>
